<svg xmlns="http://www.w3.org/2000/svg" width="473" height="333" fill="none"><mask id="a" width="473" height="333" x="0" y="0" maskUnits="userSpaceOnUse" style="mask-type:luminance"><path fill="#fff" d="M6.477.127c-20.438 85.055 15.361 180.012 88.356 233.33 50.017 36.561 110.317 56.237 170.364 71.852 62.839 16.376 127.328 29.198 192.325 27.548a306 306 0 0 0 15.234-.762V.127z"/></mask><g mask="url(#a)"><mask id="b" width="572" height="1411" x="-467" y="-726" maskUnits="userSpaceOnUse" style="mask-type:luminance"><path fill="#fff" d="M-225.329-725.125c.889.254 1.777.381 2.666.635C875.561-321.05-1234.31 279.793-136.085 683.232c-.888.381-1.65.635-2.539 1.016C-1238.12 280.3 874.164-321.177-225.329-725.125"/></mask><g mask="url(#b)"><path fill="url(#c)" d="m-1100.25-1246.88-485.7 1839.217L737.823 1205.88 1223.4-633.342z"/></g></g><mask id="d" width="473" height="333" x="0" y="0" maskUnits="userSpaceOnUse" style="mask-type:luminance"><path fill="#fff" d="M6.477.127c-20.438 85.055 15.361 180.012 88.356 233.33 50.017 36.561 110.317 56.237 170.364 71.852 62.839 16.376 127.328 29.198 192.325 27.548a306 306 0 0 0 15.234-.762V.127z"/></mask><g mask="url(#d)"><mask id="e" width="569" height="1403" x="-453" y="-723" maskUnits="userSpaceOnUse" style="mask-type:luminance"><path fill="#fff" d="M-210.222-721.443c1092.13 401.282-1006.058 998.697 86.07 1399.978-.888.381-1.65.635-2.539 1.016C-1220.09 277.889 880.511-320.415-212.888-722.078c.888.254 1.777.508 2.666.635"/></mask><g mask="url(#e)"><path fill="url(#f)" d="m-1083.11-1240.91-482.91 1829.185L744.931 1198.39 1227.97-630.676z"/></g></g><mask id="g" width="473" height="333" x="0" y="0" maskUnits="userSpaceOnUse" style="mask-type:luminance"><path fill="#fff" d="M6.477.127c-20.438 85.055 15.361 180.012 88.356 233.33 50.017 36.561 110.317 56.237 170.364 71.852 62.839 16.376 127.328 29.198 192.325 27.548a306 306 0 0 0 15.234-.762V.127z"/></mask><g mask="url(#g)"><mask id="h" width="565" height="1394" x="-439" y="-719" maskUnits="userSpaceOnUse" style="mask-type:luminance"><path fill="#fff" d="M-197.781-718.269C888.382-319.273-1198.26 274.969-112.092 673.965c-.888.381-1.65.635-2.539 1.015C-1202.06 275.476 887.113-319.4-200.32-718.904c.888.127 1.65.381 2.539.635"/></mask><g mask="url(#h)"><path fill="url(#i)" d="m-1065.85-1234.95-480.24 1819.036L752.168 1191.02 1232.41-628.136z"/></g></g><mask id="j" width="473" height="333" x="0" y="0" maskUnits="userSpaceOnUse" style="mask-type:luminance"><path fill="#fff" d="M6.477.127c-20.438 85.055 15.361 180.012 88.356 233.33 50.017 36.561 110.317 56.237 170.364 71.852 62.839 16.376 127.328 29.198 192.325 27.548a306 306 0 0 0 15.234-.762V.127z"/></mask><g mask="url(#j)"><mask id="k" width="562" height="1387" x="-425" y="-716" maskUnits="userSpaceOnUse" style="mask-type:luminance"><path fill="#fff" d="M-185.34-715.223c1080.07 396.839-995.02 987.78 85.181 1384.618-.888.381-1.65.635-2.539 1.015C-1184.04 273.064 893.46-318.511-188.006-715.73c1.015.126 1.904.38 2.666.507"/></mask><g mask="url(#k)"><path fill="url(#l)" d="m-1048.58-1228.98-477.58 1809.004L759.404 1183.53 1236.98-625.471z"/></g></g><mask id="m" width="473" height="333" x="0" y="0" maskUnits="userSpaceOnUse" style="mask-type:luminance"><path fill="#fff" d="M6.477.127c-20.438 85.055 15.361 180.012 88.356 233.33 50.017 36.561 110.317 56.237 170.364 71.852 62.839 16.376 127.328 29.198 192.325 27.548a306 306 0 0 0 15.234-.762V.127z"/></mask><g mask="url(#m)"><mask id="n" width="560" height="1379" x="-412" y="-713" maskUnits="userSpaceOnUse" style="mask-type:luminance"><path fill="#fff" d="M-172.773-712.049C901.331-317.496-1162.2 270.145-88.098 664.825c-.89.381-1.65.634-2.54 1.015-1075.372-395.061 990.573-983.336-84.8-1378.397.888 0 1.777.254 2.665.508"/></mask><g mask="url(#n)"><path fill="url(#o)" d="m-1031.32-1223.01-474.91 1798.844L766.512 1176.04 1241.55-622.932z"/></g></g><mask id="p" width="473" height="333" x="0" y="0" maskUnits="userSpaceOnUse" style="mask-type:luminance"><path fill="#fff" d="M6.477.127c-20.438 85.055 15.361 180.012 88.356 233.33 50.017 36.561 110.317 56.237 170.364 71.852 62.839 16.376 127.328 29.198 192.325 27.548a306 306 0 0 0 15.234-.762V.127z"/></mask><g mask="url(#p)"><mask id="q" width="557" height="1372" x="-398" y="-710" maskUnits="userSpaceOnUse" style="mask-type:luminance"><path fill="#fff" d="M-160.332-709.002C907.806-316.607-1144.18 267.733-76.165 660.128c-.889.381-1.65.634-2.54 1.015-1069.275-392.903 984.987-977.877-84.293-1370.78.889.254 1.778.508 2.666.635"/></mask><g mask="url(#q)"><path fill="url(#r)" d="M-1014.05-1217.05-1486.3 571.772 773.749 1168.55 1246.12-620.266z"/></g></g><mask id="s" width="473" height="333" x="0" y="0" maskUnits="userSpaceOnUse" style="mask-type:luminance"><path fill="#fff" d="M6.477.127c-20.438 85.055 15.361 180.012 88.356 233.33 50.017 36.561 110.317 56.237 170.364 71.852 62.839 16.376 127.328 29.198 192.325 27.548a306 306 0 0 0 15.234-.762V.127z"/></mask><g mask="url(#s)"><mask id="t" width="553" height="1364" x="-384" y="-707" maskUnits="userSpaceOnUse" style="mask-type:luminance"><path fill="#fff" d="M-147.891-705.829C914.153-315.592-1126.15 265.32-64.105 655.557c-.89.381-1.65.635-2.54 1.016C-1129.96 265.955 912.884-315.719-150.43-706.463c.762.127 1.651.38 2.539.634"/></mask><g mask="url(#t)"><path fill="url(#u)" d="M-996.789-1211.08-1466.5 567.71l2247.358 593.35L1250.56-617.6z"/></g></g><mask id="v" width="473" height="333" x="0" y="0" maskUnits="userSpaceOnUse" style="mask-type:luminance"><path fill="#fff" d="M6.477.127c-20.438 85.055 15.361 180.012 88.356 233.33 50.017 36.561 110.317 56.237 170.364 71.852 62.839 16.376 127.328 29.198 192.325 27.548a306 306 0 0 0 15.234-.762V.127z"/></mask><g mask="url(#v)"><mask id="w" width="550" height="1356" x="-370" y="-704" maskUnits="userSpaceOnUse" style="mask-type:luminance"><path fill="#fff" d="M-135.45-702.782C920.627-314.83-1108.25 262.909-52.172 650.86c-.889.381-1.65.635-2.54 1.016-1057.348-388.46 973.943-966.833-83.404-1355.293.889.254 1.777.508 2.666.635"/></mask><g mask="url(#w)"><path fill="url(#x)" d="M-979.524-1205.11-1446.56 563.521 788.094 1153.57 1255.13-615.061z"/></g></g><mask id="y" width="473" height="333" x="0" y="0" maskUnits="userSpaceOnUse" style="mask-type:luminance"><path fill="#fff" d="M6.477.127c-20.438 85.055 15.361 180.012 88.356 233.33 50.017 36.561 110.317 56.237 170.364 71.852 62.839 16.376 127.328 29.198 192.325 27.548a306 306 0 0 0 15.234-.762V.127z"/></mask><g mask="url(#y)"><mask id="z" width="547" height="1349" x="-357" y="-701" maskUnits="userSpaceOnUse" style="mask-type:luminance"><path fill="#fff" d="M-123.009-699.608C926.974-313.814-1090.22 260.624-40.239 646.291c-.89.381-1.65.634-2.54 1.015-1051.251-386.174 968.357-961.374-82.896-1347.549 1.016.127 1.777.381 2.666.635"/></mask><g mask="url(#z)"><path fill="url(#A)" d="m-962.26-1199.15-464.37 1758.608L795.33 1146.08 1259.7-612.395z"/></g></g><mask id="B" width="473" height="333" x="0" y="0" maskUnits="userSpaceOnUse" style="mask-type:luminance"><path fill="#fff" d="M6.477.127c-20.438 85.055 15.361 180.012 88.356 233.33 50.017 36.561 110.317 56.237 170.364 71.852 62.839 16.376 127.328 29.198 192.325 27.548a306 306 0 0 0 15.234-.762V.127z"/></mask><g mask="url(#B)"><mask id="C" width="544" height="1341" x="-343" y="-698" maskUnits="userSpaceOnUse" style="mask-type:luminance"><path fill="#fff" d="M-110.568-696.562C933.449-313.053-1072.2 258.084-28.306 641.593c-.889.381-1.65.635-2.54 1.016C-1076 258.719 932.053-313.18-113.106-697.196c.888.254 1.777.508 2.539.634"/></mask><g mask="url(#C)"><path fill="url(#D)" d="M-944.995-1193.18-1406.7 555.396 802.439 1138.72 1264.15-609.856z"/></g></g><mask id="E" width="473" height="333" x="0" y="0" maskUnits="userSpaceOnUse" style="mask-type:luminance"><path fill="#fff" d="M6.477.127c-20.438 85.055 15.361 180.012 88.356 233.33 50.017 36.561 110.317 56.237 170.364 71.852 62.839 16.376 127.328 29.198 192.325 27.548a306 306 0 0 0 15.234-.762V.127z"/></mask><g mask="url(#E)"><mask id="F" width="541" height="1333" x="-329" y="-694" maskUnits="userSpaceOnUse" style="mask-type:luminance"><path fill="#fff" d="M-98-693.388C939.923-312.037-1054.17 255.8-16.12 637.15c-.888.381-1.65.635-2.538 1.016-1039.192-381.732 957.311-950.33-81.881-1332.062.761 0 1.65.254 2.538.508"/></mask><g mask="url(#F)"><path fill="url(#G)" d="m-927.73-1187.21-459.04 1738.417L809.675 1131.23 1268.72-607.19z"/></g></g><mask id="H" width="473" height="333" x="0" y="0" maskUnits="userSpaceOnUse" style="mask-type:luminance"><path fill="#fff" d="M6.477.127c-20.438 85.055 15.361 180.012 88.356 233.33 50.017 36.561 110.317 56.237 170.364 71.852 62.839 16.376 127.328 29.198 192.325 27.548a306 306 0 0 0 15.234-.762V.127z"/></mask><g mask="url(#H)"><mask id="I" width="538" height="1325" x="-315" y="-691" maskUnits="userSpaceOnUse" style="mask-type:luminance"><path fill="#fff" d="M-85.56-690.341C946.398-311.275-1036.14 253.261-4.186 632.453c-.889.381-1.65.635-2.54 1.016-1033.224-379.574 951.727-944.744-81.5-1324.445.89.254 1.778.508 2.666.635"/></mask><g mask="url(#I)"><path fill="url(#J)" d="M-910.465-1181.25-1366.84 547.144 816.911 1123.74 1273.29-604.651z"/></g></g><mask id="K" width="473" height="333" x="0" y="0" maskUnits="userSpaceOnUse" style="mask-type:luminance"><path fill="#fff" d="M6.477.127c-20.438 85.055 15.361 180.012 88.356 233.33 50.017 36.561 110.317 56.237 170.364 71.852 62.839 16.376 127.328 29.198 192.325 27.548a306 306 0 0 0 15.234-.762V.127z"/></mask><g mask="url(#K)"><mask id="L" width="534" height="1317" x="-301" y="-688" maskUnits="userSpaceOnUse" style="mask-type:luminance"><path fill="#fff" d="M-73.119-687.167C952.745-310.26-1018.12 250.976 7.747 627.883c-.889.381-1.65.635-2.539 1.016-1027.138-377.416 946.14-939.286-80.993-1316.701.889.127 1.778.381 2.666.635"/></mask><g mask="url(#L)"><path fill="url(#M)" d="m-893.2-1175.28-453.71 1718.235L824.02 1116.25l453.71-1718.235z"/></g></g><mask id="N" width="473" height="333" x="0" y="0" maskUnits="userSpaceOnUse" style="mask-type:luminance"><path fill="#fff" d="M6.477.127c-20.438 85.055 15.361 180.012 88.356 233.33 50.017 36.561 110.317 56.237 170.364 71.852 62.839 16.376 127.328 29.198 192.325 27.548a306 306 0 0 0 15.234-.762V.127z"/></mask><g mask="url(#N)"><mask id="O" width="532" height="1310" x="-288" y="-685" maskUnits="userSpaceOnUse" style="mask-type:luminance"><path fill="#fff" d="M-60.678-684.12C959.22-309.371-1000.09 248.564 19.68 623.186c-.889.381-1.65.635-2.539 1.016C-1004.03 249.071 957.823-309.625-63.344-684.755c.889.254 1.778.508 2.666.635"/></mask><g mask="url(#O)"><path fill="url(#P)" d="M-875.935-1169.31-1326.98 538.893 831.256 1108.76 1282.3-599.446z"/></g></g><mask id="Q" width="473" height="333" x="0" y="0" maskUnits="userSpaceOnUse" style="mask-type:luminance"><path fill="#fff" d="M6.477.127c-20.438 85.055 15.361 180.012 88.356 233.33 50.017 36.561 110.317 56.237 170.364 71.852 62.839 16.376 127.328 29.198 192.325 27.548a306 306 0 0 0 15.234-.762V.127z"/></mask><g mask="url(#Q)"><mask id="R" width="528" height="1302" x="-274" y="-682" maskUnits="userSpaceOnUse" style="mask-type:luminance"><path fill="#fff" d="M-48.237-680.947C965.566-308.483-982.19 246.151 31.74 618.616c-.889.38-1.65.634-2.539 1.015C-985.872 246.659 964.297-308.61-50.776-681.582c.762.127 1.65.381 2.539.635"/></mask><g mask="url(#R)"><path fill="url(#S)" d="m-858.67-1163.35-448.38 1698.18 2145.542 566.44L1286.87-596.781z"/></g></g><mask id="T" width="473" height="333" x="0" y="0" maskUnits="userSpaceOnUse" style="mask-type:luminance"><path fill="#fff" d="M6.477.127c-20.438 85.055 15.361 180.012 88.356 233.33 50.017 36.561 110.317 56.237 170.364 71.852 62.839 16.376 127.328 29.198 192.325 27.548a306 306 0 0 0 15.234-.762V.127z"/></mask><g mask="url(#T)"><mask id="U" width="525" height="1294" x="-260" y="-679" maskUnits="userSpaceOnUse" style="mask-type:luminance"><path fill="#fff" d="M-35.796-677.9C972.04-307.594-964.164 243.74 43.673 613.919c-.889.381-1.65.634-2.539 1.015C-967.973 244.247 970.645-307.848-38.462-678.535c1.016.254 1.904.508 2.666.635"/></mask><g mask="url(#U)"><path fill="url(#V)" d="M-841.406-1157.38-1287.12 530.641 845.601 1093.78 1291.31-594.242z"/></g></g><mask id="W" width="473" height="333" x="0" y="0" maskUnits="userSpaceOnUse" style="mask-type:luminance"><path fill="#fff" d="M6.477.127c-20.438 85.055 15.361 180.012 88.356 233.33 50.017 36.561 110.317 56.237 170.364 71.852 62.839 16.376 127.328 29.198 192.325 27.548a306 306 0 0 0 15.234-.762V.127z"/></mask><g mask="url(#W)"><mask id="X" width="522" height="1287" x="-246" y="-676" maskUnits="userSpaceOnUse" style="mask-type:luminance"><path fill="#fff" d="M-23.228-674.726C978.515-306.705-946.01 241.328 55.732 609.476c-.888.38-1.65.634-2.538 1.015C-949.819 241.962 977.119-306.705-25.894-675.234c.888 0 1.777.254 2.666.508"/></mask><g mask="url(#X)"><path fill="url(#Y)" d="M-824.141-1151.41-1267.19 526.579 852.837 1086.42 1295.88-591.576z"/></g></g><mask id="Z" width="473" height="333" x="0" y="0" maskUnits="userSpaceOnUse" style="mask-type:luminance"><path fill="#fff" d="M6.477.127c-20.438 85.055 15.361 180.012 88.356 233.33 50.017 36.561 110.317 56.237 170.364 71.852 62.839 16.376 127.328 29.198 192.325 27.548a306 306 0 0 0 15.234-.762V.127z"/></mask><g mask="url(#Z)"><mask id="aa" width="520" height="1279" x="-233" y="-673" maskUnits="userSpaceOnUse" style="mask-type:luminance"><path fill="#fff" d="M-10.787-671.68C984.99-305.817-927.984 238.915 67.666 604.778c-.888.381-1.65.635-2.539 1.016-997.046-366.244 918.466-911.738-78.58-1277.982.888.127 1.777.381 2.666.508"/></mask><g mask="url(#aa)"><path fill="url(#ab)" d="M-806.876-1145.45-1247.38 522.389 860.073 1078.93 1300.45-589.037z"/></g></g><mask id="ac" width="473" height="333" x="0" y="0" maskUnits="userSpaceOnUse" style="mask-type:luminance"><path fill="#fff" d="M6.477.127c-20.438 85.055 15.361 180.012 88.356 233.33 50.017 36.561 110.317 56.237 170.364 71.852 62.839 16.376 127.328 29.198 192.325 27.548a306 306 0 0 0 15.234-.762V.127z"/></mask><g mask="url(#ac)"><mask id="ad" width="516" height="1272" x="-219" y="-670" maskUnits="userSpaceOnUse" style="mask-type:luminance"><path fill="#fff" d="M1.653-668.506C991.337-304.928-910.084 236.631 79.726 600.208c-.888.381-1.65.635-2.539 1.016-990.953-364.086 912.88-906.279-78.2-1270.365.89.127 1.778.381 2.666.635"/></mask><g mask="url(#ad)"><path fill="url(#ae)" d="M-789.611-1139.48-1227.45 518.327 867.182 1071.44 1304.9-586.371z"/></g></g><mask id="af" width="15" height="15" x="3" y="0" maskUnits="userSpaceOnUse" style="mask-type:luminance"><path fill="#fff" d="M15.237.127c-3.682 3.681-7.49 7.49-11.172 11.298-.127 1.016-.38 1.904-.507 2.92C8.255 9.648 12.952 4.951 17.648.127z"/></mask><g mask="url(#af)"><path fill="url(#ag)" d="M4.446-3.427.13 13.33l16.63 4.443 4.443-16.757z"/></g><mask id="ah" width="29" height="28" x="1" y="0" maskUnits="userSpaceOnUse" style="mask-type:luminance"><path fill="#fff" d="M26.79.127C18.537 8.379 10.285 16.757 2.16 25.009c-.127.888-.254 1.777-.254 2.793C10.921 18.534 20.061 9.394 29.328.127z"/></mask><g mask="url(#ah)"><path fill="url(#ai)" d="m3.558-6.601-8.633 32.499 32.499 8.632 8.505-32.626z"/></g><mask id="aj" width="41" height="41" x="0" y="0" maskUnits="userSpaceOnUse" style="mask-type:luminance"><path fill="#fff" d="M38.214.127C25.647 12.695 13.206 25.263 1.02 37.83c0 .889-.127 1.778-.127 2.666C13.84 27.04 27.17 13.583 40.626.127z"/></mask><g mask="url(#aj)"><path fill="url(#ak)" d="M3.558-9.648-9.01 37.831l47.097 12.44L50.655 2.666z"/></g><mask id="al" width="53" height="53" x="0" y="0" maskUnits="userSpaceOnUse" style="mask-type:luminance"><path fill="#fff" d="M49.767.127A2992 2992 0 0 0 .892 50.144v2.54C17.522 35.291 34.787 17.772 52.179.253h-2.412z"/></mask><g mask="url(#al)"><path fill="url(#am)" d="M4.065-12.568-12.184 49.13 48.751 65.25 65.127 3.555z"/></g><mask id="an" width="63" height="65" x="1" y="0" maskUnits="userSpaceOnUse" style="mask-type:luminance"><path fill="#fff" d="M61.192.127C40.626 20.693 20.442 41.385 1.146 61.824c0 .761.127 1.65.127 2.412C21.203 42.908 42.15 21.58 63.477.127z"/></mask><g mask="url(#an)"><path fill="url(#ao)" d="m5.208-15.36-19.93 75.406 74.264 19.55 19.93-75.28z"/></g><mask id="ap" width="74" height="76" x="2" y="0" maskUnits="userSpaceOnUse" style="mask-type:luminance"><path fill="#fff" d="M72.617.127C48.243 24.501 24.504 49.002 2.161 73.249c.127.761.127 1.523.254 2.412C25.392 50.525 49.894 25.39 75.029.254h-2.412z"/></mask><g mask="url(#ap)"><path fill="url(#aq)" d="M6.858-17.9-16.5 70.584l86.832 22.978L93.69 4.95z"/></g><mask id="ar" width="84" height="87" x="3" y="0" maskUnits="userSpaceOnUse" style="mask-type:luminance"><path fill="#fff" d="M84.17.127C56.113 28.309 28.82 56.365 3.684 84.293l.38 2.285C29.71 57.888 57.765 29.071 86.581.127z"/></mask><g mask="url(#ar)"><path fill="url(#as)" d="M9.143-20.311-17.643 80.993l98.766 26.024L107.909 5.713z"/></g><mask id="at" width="94" height="98" x="5" y="0" maskUnits="userSpaceOnUse" style="mask-type:luminance"><path fill="#fff" d="M95.595.127c-31.61 31.737-62.332 63.474-89.88 94.957.128.761.382 1.523.508 2.285C34.28 65.124 65.635 32.626 98.007.127z"/></mask><g mask="url(#at)"><path fill="url(#au)" d="m11.682-22.723-29.96 113.745L92.04 120.093 122 6.475z"/></g><mask id="av" width="102" height="108" x="8" y="0" maskUnits="userSpaceOnUse" style="mask-type:luminance"><path fill="#fff" d="M107.147.127C71.982 35.418 37.961 70.71 8.255 105.747c.254.762.38 1.524.634 2.158C38.976 72.233 73.633 36.18 109.56.127z"/></mask><g mask="url(#av)"><path fill="url(#aw)" d="m14.856-24.882-33.26 125.805 121.362 31.991L136.091 7.109z"/></g><mask id="ax" width="110" height="119" x="11" y="0" maskUnits="userSpaceOnUse" style="mask-type:luminance"><path fill="#fff" d="M118.572.127C79.98 38.973 42.784 77.692 11.302 116.157c.253.762.507 1.397.634 2.158C43.8 79.215 81.63 39.735 120.984.127z"/></mask><g mask="url(#ax)"><path fill="url(#ay)" d="m18.41-27.04-36.307 137.612 131.772 34.783 36.307-137.61z"/></g><mask id="az" width="119" height="129" x="14" y="0" maskUnits="userSpaceOnUse" style="mask-type:luminance"><path fill="#fff" d="M129.997.127C87.977 42.401 47.735 84.674 14.729 126.44c.254.762.508 1.396.762 2.158C48.75 86.07 89.628 43.162 132.409.127z"/></mask><g mask="url(#az)"><path fill="url(#aA)" d="m22.473-28.944-39.48 149.037 141.8 37.449L164.146 8.506z"/></g><mask id="aB" width="126" height="139" x="18" y="0" maskUnits="userSpaceOnUse" style="mask-type:luminance"><path fill="#fff" d="M141.55.127C96.102 45.828 52.813 91.529 18.791 136.596c.254.761.635 1.396.889 2.158C53.956 93.053 97.88 46.717 143.962.254h-2.412z"/></mask><g mask="url(#aB)"><path fill="url(#aC)" d="m26.916-30.848-42.4 160.462 151.321 39.861L178.111 9.141z"/></g><mask id="aD" width="133" height="149" x="23" y="0" maskUnits="userSpaceOnUse" style="mask-type:luminance"><path fill="#fff" d="M152.975.127c-48.748 49.129-94.957 98.13-129.867 146.37.38.762.634 1.397 1.015 2.032C59.033 99.527 105.877 49.89 155.387 0h-2.412z"/></mask><g mask="url(#aD)"><path fill="url(#aE)" d="m31.867-32.499-45.32 171.379 160.208 42.401 45.32-171.506z"/></g><mask id="aF" width="139" height="159" x="28" y="0" maskUnits="userSpaceOnUse" style="mask-type:luminance"><path fill="#fff" d="M164.527.127C112.479 52.683 63.35 104.986 28.186 156.526c.38.635.761 1.397 1.142 2.032C64.493 106.382 114.129 53.445 166.939.127z"/></mask><g mask="url(#aF)"><path fill="url(#aG)" d="m37.199-34.149-48.113 182.297 168.84 44.558L206.039 10.41z"/></g><mask id="aH" width="146" height="169" x="33" y="0" maskUnits="userSpaceOnUse" style="mask-type:luminance"><path fill="#fff" d="M175.952.127C120.603 55.984 68.809 111.714 33.772 166.301c.38.635.76 1.397 1.269 2.032C69.95 113.11 122.38 56.746 178.49.127z"/></mask><g mask="url(#aH)"><path fill="url(#aI)" d="M43.165-35.672-7.74 157.288l176.711 46.717 50.906-192.96z"/></g><mask id="aJ" width="151" height="178" x="39" y="0" maskUnits="userSpaceOnUse" style="mask-type:luminance"><path fill="#fff" d="M187.505.127c-58.65 59.158-113.11 118.061-147.64 175.822.507.635.888 1.397 1.396 2.032C75.537 119.585 130.632 60.046 189.917.127z"/></mask><g mask="url(#aJ)"><path fill="url(#aK)" d="m49.64-36.942-53.7 203.243 184.202 48.621 53.572-203.243z"/></g><mask id="aL" width="156" height="188" x="46" y="0" maskUnits="userSpaceOnUse" style="mask-type:luminance"><path fill="#fff" d="M198.93.127C137.107 62.585 79.98 124.79 46.593 185.597c.508.635 1.015 1.27 1.523 2.032C81.25 126.313 138.884 63.347 201.342.254h-2.412z"/></mask><g mask="url(#aL)"><path fill="url(#aM)" d="M56.749-38.084.384 175.315l190.929 50.398 56.238-213.399z"/></g><mask id="aN" width="159" height="197" x="54" y="0" maskUnits="userSpaceOnUse" style="mask-type:luminance"><path fill="#fff" d="M210.482.127C145.485 65.886 85.82 131.264 54.082 194.992c.509.634 1.143 1.269 1.651 1.904C87.216 132.533 147.262 66.521 212.894.127z"/></mask><g mask="url(#aN)"><path fill="url(#aO)" d="M64.366-39.1 5.461 184.074l197.023 52.049 58.903-223.174z"/></g><mask id="aP" width="163" height="207" x="62" y="0" maskUnits="userSpaceOnUse" style="mask-type:luminance"><path fill="#fff" d="M221.907.127C153.737 69.06 91.787 137.611 62.08 204.259c.635.634 1.143 1.269 1.778 1.904C93.056 139.008 155.514 69.694 224.319.127z"/></mask><g mask="url(#aP)"><path fill="url(#aQ)" d="M72.617-39.988 11.175 192.705l202.608 53.445 61.443-232.568z"/></g><mask id="aR" width="166" height="216" x="70" y="0" maskUnits="userSpaceOnUse" style="mask-type:luminance"><path fill="#fff" d="M233.46.127C162.242 72.233 98.007 143.959 70.967 213.399l1.904 1.904C99.276 145.355 164.019 72.995 235.745.253h-2.285z"/></mask><g mask="url(#aR)"><path fill="url(#aS)" d="M81.63-40.623 17.776 201.212l207.305 54.714 63.855-241.835z"/></g><mask id="aT" width="168" height="224" x="80" y="0" maskUnits="userSpaceOnUse" style="mask-type:luminance"><path fill="#fff" d="M244.885.127C170.748 75.28 104.354 150.052 80.488 222.158c.761.635 1.396 1.143 2.158 1.778C105.75 151.322 172.525 75.915 247.297.127z"/></mask><g mask="url(#aT)"><path fill="url(#aU)" d="m91.405-41.13-66.14 250.467 211.115 55.73 66.139-250.34z"/></g><mask id="aV" width="169" height="233" x="90" y="0" maskUnits="userSpaceOnUse" style="mask-type:luminance"><path fill="#fff" d="M256.31.127c-77.057 78.2-145.482 155.765-165.412 230.41.761.635 1.523 1.142 2.285 1.777C112.352 157.161 181.157 78.961 258.722.127z"/></mask><g mask="url(#aV)"><path fill="url(#aW)" d="m101.815-41.385-68.17 258.593 214.16 56.491 68.298-258.465z"/></g><mask id="aX" width="169" height="241" x="102" y="0" maskUnits="userSpaceOnUse" style="mask-type:luminance"><path fill="#fff" d="M267.863.127C188.139 81.12 117.937 161.604 102.069 238.661c.762.508 1.65 1.143 2.412 1.651C119.334 162.747 189.917 81.754 270.274.127z"/></mask><g mask="url(#aX)"><path fill="url(#aY)" d="M113.113-41.385 42.785 224.697l216.572 57.127 70.202-266.082z"/></g><mask id="aZ" width="168" height="249" x="114" y="0" maskUnits="userSpaceOnUse" style="mask-type:luminance"><path fill="#fff" d="M279.415.127c-82.389 83.785-154.242 166.936-165.286 246.278.889.508 1.777 1.016 2.539 1.651C126.697 168.206 198.93 84.42 281.827.127z"/></mask><g mask="url(#aZ)"><path fill="url(#ba)" d="M124.919-41.258 52.813 231.807l217.969 57.634 72.233-273.192z"/></g><mask id="bb" width="168" height="256" x="126" y="0" maskUnits="userSpaceOnUse" style="mask-type:luminance"><path fill="#fff" d="M290.84.127c-84.928 86.451-158.304 172.268-164.143 253.768a55 55 0 0 0 2.793 1.524C134.06 173.41 207.816 87.086 293.252.127z"/></mask><g mask="url(#bb)"><path fill="url(#bc)" d="M137.614-41.004 63.731 238.79l218.731 57.761 73.883-279.792z"/></g><mask id="bd" width="165" height="263" x="140" y="0" maskUnits="userSpaceOnUse" style="mask-type:luminance"><path fill="#fff" d="M302.392.127c-87.34 88.99-162.112 177.346-162.239 261.004 1.016.508 1.904 1.016 2.92 1.524-1.269-84.04 73.884-172.903 161.731-262.401h-2.412z"/></mask><g mask="url(#bd)"><path fill="url(#be)" d="M150.817-40.496 75.41 245.39l218.604 57.761 75.534-286.013z"/></g><mask id="bf" width="164" height="270" x="153" y="0" maskUnits="userSpaceOnUse" style="mask-type:luminance"><path fill="#fff" d="M313.818.127c-89.625 91.53-165.667 182.17-159.574 267.732 1.016.508 2.032.889 3.047 1.397C149.801 183.312 226.097 92.037 316.23.127z"/></mask><g mask="url(#bf)"><path fill="url(#bg)" d="M159.068-41.385 81.63 251.737l223.682 59.031 77.311-293.122z"/></g><mask id="bh" width="161" height="276" x="167" y="0" maskUnits="userSpaceOnUse" style="mask-type:luminance"><path fill="#fff" d="M325.37.127C233.46 93.94 156.403 186.994 169.097 274.334c1.016.381 2.158.888 3.174 1.269C158.053 187.756 235.364 94.449 327.782 0h-2.412z"/></mask><g mask="url(#bh)"><path fill="url(#bi)" d="M167.447-42.274 88.359 257.703l228.251 60.301 79.089-299.978z"/></g><mask id="bj" width="159" height="282" x="181" y="0" maskUnits="userSpaceOnUse" style="mask-type:luminance"><path fill="#fff" d="M336.795.127c-93.941 96.1-172.014 191.31-152.21 280.427 1.142.381 2.158.889 3.301 1.27-21.201-89.498 56.999-185.09 151.321-281.57h-2.412z"/></mask><g mask="url(#bj)"><path fill="url(#bk)" d="M176.206-42.908 95.341 263.417l232.568 61.315 80.865-306.324z"/></g><mask id="bl" width="156" height="288" x="195" y="0" maskUnits="userSpaceOnUse" style="mask-type:luminance"><path fill="#fff" d="M348.347.127c-95.972 98.257-174.807 195.499-147.64 286.14l3.428 1.142C175.445 196.388 254.406 98.765 350.759 0h-2.412z"/></mask><g mask="url(#bl)"><path fill="url(#bm)" d="m185.093-43.67-82.516 312.418 236.63 62.459 82.516-312.418z"/></g><mask id="bn" width="154" height="293" x="209" y="0" maskUnits="userSpaceOnUse" style="mask-type:luminance"><path fill="#fff" d="M359.773.127c-97.75 100.289-177.219 199.435-142.436 291.726 1.143.38 2.412.761 3.555 1.142C184.331 200.577 263.927 100.923 362.185.254h-2.412z"/></mask><g mask="url(#bn)"><path fill="url(#bo)" d="M194.233-44.305 110.32 273.826l240.185 63.347 84.04-318.004z"/></g><mask id="bp" width="152" height="299" x="222" y="0" maskUnits="userSpaceOnUse" style="mask-type:luminance"><path fill="#fff" d="M371.325.127c-99.527 102.32-179.631 203.37-136.596 296.93 1.27.381 2.412.762 3.682 1.016C193.725 204.259 273.829 102.828 373.737.127z"/></mask><g mask="url(#bp)"><path fill="url(#bq)" d="M203.627-44.812 118.191 278.65l243.74 64.363L447.239 19.55z"/></g><mask id="br" width="150" height="304" x="236" y="0" maskUnits="userSpaceOnUse" style="mask-type:luminance"><path fill="#fff" d="M382.877.127C281.573 104.35 201.215 207.305 252.629 302.008c1.269.381 2.539.635 3.808 1.016C203.119 207.94 283.604 104.605 385.162 0h-2.285z"/></mask><g mask="url(#br)"><path fill="url(#bs)" d="m213.148-45.32-86.832 328.667 246.913 65.124 86.832-328.667z"/></g><mask id="bt" width="147" height="308" x="250" y="0" maskUnits="userSpaceOnUse" style="mask-type:luminance"><path fill="#fff" d="M394.302.127C291.348 106.255 210.609 210.86 271.163 306.959c1.27.381 2.666.635 3.936 1.016-62.586-96.353 18.28-201.339 121.488-307.848z"/></mask><g mask="url(#bt)"><path fill="url(#bu)" d="m222.796-45.828-88.101 333.745 249.959 66.013 88.102-333.745z"/></g><mask id="bv" width="145" height="313" x="264" y="0" maskUnits="userSpaceOnUse" style="mask-type:luminance"><path fill="#fff" d="M405.855.127C301.25 108.032 220.384 214.542 290.459 311.783c1.397.381 2.793.635 4.19 1.016C222.415 215.303 303.408 108.54 408.267.127z"/></mask><g mask="url(#bv)"><path fill="url(#bw)" d="M232.571-46.336 143.2 292.36l252.753 66.775 89.498-338.696z"/></g><mask id="bx" width="142" height="318" x="278" y="0" maskUnits="userSpaceOnUse" style="mask-type:luminance"><path fill="#fff" d="M417.407.127C311.279 109.937 230.286 218.096 310.39 316.353c1.396.254 2.793.635 4.189.889-82.262-98.511-1.396-207.051 105.113-317.115z"/></mask><g mask="url(#bx)"><path fill="url(#by)" d="M242.6-46.717 151.959 296.55l255.419 67.536L498.019 20.82z"/></g><mask id="bz" width="141" height="322" x="291" y="0" maskUnits="userSpaceOnUse" style="mask-type:luminance"><path fill="#fff" d="M428.832.127c-107.651 111.46-188.517 221.27-98.13 320.543 1.396.254 2.919.507 4.316.888-92.545-99.4-11.806-209.59 96.099-321.304h-2.285z"/></mask><g mask="url(#bz)"><path fill="url(#bA)" d="m252.756-47.097-91.783 347.582 257.83 68.044 91.783-347.455z"/></g><mask id="bB" width="138" height="326" x="305" y="0" maskUnits="userSpaceOnUse" style="mask-type:luminance"><path fill="#fff" d="M440.384.127C331.463 113.11 250.851 224.316 351.521 324.478c1.396.254 2.92.508 4.316.762C253.01 224.951 333.621 113.491 442.796.254h-2.412z"/></mask><g mask="url(#bB)"><path fill="url(#bC)" d="m263.419-47.224-92.798 351.137 259.607 68.551 92.799-351.137z"/></g><mask id="bD" width="136" height="329" x="319" y="0" maskUnits="userSpaceOnUse" style="mask-type:luminance"><path fill="#fff" d="M451.937.127C342 114.38 261.769 226.855 372.34 327.652c1.397.254 2.92.381 4.317.635-112.73-100.924-32.626-213.526 77.692-328.16z"/></mask><g mask="url(#bD)"><path fill="url(#bE)" d="m274.21-47.478-93.56 354.311 261.131 68.932 93.56-354.31z"/></g><mask id="bF" width="133" height="331" x="333" y="0" maskUnits="userSpaceOnUse" style="mask-type:luminance"><path fill="#fff" d="M463.362.127C352.537 115.522 272.94 229.014 392.906 330.191c1.396.127 2.92.254 4.316.381-121.87-101.305-42.4-214.923 68.552-330.445z"/></mask><g mask="url(#bF)"><path fill="url(#bG)" d="M285.508-47.478 191.44 308.99l261.766 69.186 94.195-356.596z"/></g><mask id="bH" width="127" height="331" x="346" y="2" maskUnits="userSpaceOnUse" style="mask-type:luminance"><path fill="#fff" d="M413.218 331.841c1.396.127 2.792.127 4.189.254-128.344-100.035-53.572-212.637 55.349-327.27v-2.54c-110.191 115.522-187.248 228.76-59.538 329.556"/></mask><g mask="url(#bH)"><path fill="url(#bI)" d="m297.695-43.924-93.56 354.565 256.434 67.663 93.56-354.438z"/></g><mask id="bJ" width="113" height="319" x="360" y="14" maskUnits="userSpaceOnUse" style="mask-type:luminance"><path fill="#fff" d="M432.894 332.857c1.397 0 2.666.127 4.063.127-130.629-96.481-66.775-204.894 35.926-315.719v-2.666c-104.097 111.587-170.237 221.016-39.989 318.258"/></mask><g mask="url(#bJ)"><path fill="url(#bK)" d="m313.691-27.42-89.625 339.584 237.645 62.712 89.625-339.585z"/></g><mask id="bL" width="99" height="306" x="374" y="27" maskUnits="userSpaceOnUse" style="mask-type:luminance"><path fill="#fff" d="M451.683 332.984c1.269 0 2.539 0 3.808-.127-131.01-92.545-78.2-196.515 17.138-303.024v-2.666C375.895 134.69 320.673 239.55 451.683 332.984"/></mask><g mask="url(#bL)"><path fill="url(#bM)" d="m330.575-10.41-85.309 323.463 217.588 57.507L548.29 47.097z"/></g><mask id="bN" width="85" height="293" x="388" y="40" maskUnits="userSpaceOnUse" style="mask-type:luminance"><path fill="#fff" d="M469.709 332.349c1.016 0 2.031-.127 3.047-.254v-.508c-128.852-88.228-86.959-186.994 0-288.425V40.37c-88.99 102.701-133.041 202.736-3.047 291.98"/></mask><g mask="url(#bN)"><path fill="url(#bO)" d="m348.347 7.49-80.738 305.817 196.515 51.921 80.738-305.817z"/></g><mask id="bP" width="71" height="268" x="402" y="54" maskUnits="userSpaceOnUse" style="mask-type:luminance"><path fill="#fff" d="M472.756 321.05v-2.919c-105.494-80.485-74.138-169.348 0-260.878v-3.047c-76.803 93.688-110.318 184.709 0 266.844"/></mask><g mask="url(#bP)"><path fill="url(#bQ)" d="m369.548 26.913-72.995 276.746 168.967 44.685 73.122-276.746z"/></g><mask id="bR" width="58" height="238" x="415" y="69" maskUnits="userSpaceOnUse" style="mask-type:luminance"><path fill="#fff" d="M472.756 306.578v-3.173c-82.77-71.98-60.554-150.306 0-231.045v-3.3c-63.474 83.023-87.467 163.762 0 237.518"/></mask><g mask="url(#bR)"><path fill="url(#bS)" d="m391.002 47.478-64.363 243.613 140.404 37.068 64.363-243.612z"/></g><mask id="bT" width="44" height="206" x="429" y="85" maskUnits="userSpaceOnUse" style="mask-type:luminance"><path fill="#fff" d="M472.756 290.583v-3.681c-60.681-62.205-46.463-128.979 0-197.912V85.31c-49.51 71.471-65.251 140.912 0 205.274"/></mask><g mask="url(#bT)"><path fill="url(#bU)" d="m411.821 69.314-54.968 207.94 111.714 29.452 54.841-207.94z"/></g><mask id="bV" width="30" height="169" x="443" y="104" maskUnits="userSpaceOnUse" style="mask-type:luminance"><path fill="#fff" d="M472.756 272.049v-4.317c-39.1-50.652-31.483-104.224 0-159.192v-4.443c-34.657 58.142-43.416 114.634 0 167.952"/></mask><g mask="url(#bV)"><path fill="url(#bW)" d="m432.133 93.306-44.305 167.825 82.135 21.708 44.305-167.824z"/></g><mask id="bX" width="16" height="122" x="457" y="127" maskUnits="userSpaceOnUse" style="mask-type:luminance"><path fill="#fff" d="M472.756 248.944v-5.966c-18.154-35.419-15.742-72.107 0-109.556v-5.967c-19.169 41.639-22.47 82.262 0 121.489"/></mask><g mask="url(#bX)"><path fill="url(#bY)" d="m451.683 121.87-31.356 119.077 51.033 13.456 31.356-119.077z"/></g><mask id="bZ" width="3" height="42" x="470" y="167" maskUnits="userSpaceOnUse" style="mask-type:luminance"><path fill="#fff" d="M472.756 208.829v-41.512c-2.412 13.964-2.539 27.928 0 41.512"/></mask><g mask="url(#bZ)"><path fill="url(#ca)" d="m470.344 166.682-10.41 39.481 12.695 3.3 10.41-39.353z"/></g><mask id="cb" width="473" height="333" x="0" y="0" maskUnits="userSpaceOnUse" style="mask-type:luminance"><path fill="#fff" d="M6.477.127c-20.438 85.055 15.361 180.012 88.356 233.33 50.017 36.561 110.317 56.237 170.364 71.852 62.839 16.376 127.328 29.198 192.325 27.548a306 306 0 0 0 15.234-.762V.127z"/></mask><g mask="url(#cb)"><mask id="cc" width="357" height="877" x="484" y="-511" maskUnits="userSpaceOnUse" style="mask-type:luminance"><path fill="#fff" d="M637.153-509.948C1319.62-259.227 8.509 114.126 690.979 364.848c-.889.381-1.65.634-2.539 1.015C4.7 114.634 1318.23-259.354 634.487-510.456c1.016.127 1.777.381 2.666.508"/></mask></g><mask id="cd" width="473" height="333" x="0" y="0" maskUnits="userSpaceOnUse" style="mask-type:luminance"><path fill="#fff" d="M6.477.127c-20.438 85.055 15.361 180.012 88.356 233.33 50.017 36.561 110.317 56.237 170.364 71.852 62.839 16.376 127.328 29.198 192.325 27.548a306 306 0 0 0 15.234-.762V.127z"/></mask><g mask="url(#cd)"><mask id="ce" width="354" height="870" x="498" y="-508" maskUnits="userSpaceOnUse" style="mask-type:luminance"><path fill="#fff" d="M649.594-506.775c676.376 248.437-623.059 618.489 53.318 867.052-.889.381-1.65.635-2.539 1.016-677.646-248.944 624.197-619.631-53.445-868.702 1.016.127 1.904.38 2.666.634"/></mask></g><mask id="cf" width="473" height="333" x="0" y="0" maskUnits="userSpaceOnUse" style="mask-type:luminance"><path fill="#fff" d="M6.477.127c-20.438 85.055 15.361 180.012 88.356 233.33 50.017 36.561 110.317 56.237 170.364 71.852 62.839 16.376 127.328 29.198 192.325 27.548a306 306 0 0 0 15.234-.762V.127z"/></mask><g mask="url(#cf)"><mask id="cg" width="350" height="862" x="512" y="-505" maskUnits="userSpaceOnUse" style="mask-type:luminance"><path fill="#fff" d="M662.162-503.728c670.408 246.279-617.473 613.03 52.81 859.309-.889.38-1.65.634-2.539 1.015-671.68-246.786 618.617-614.172-52.937-860.959.889.254 1.777.508 2.666.635"/></mask></g><mask id="ch" width="473" height="333" x="0" y="0" maskUnits="userSpaceOnUse" style="mask-type:luminance"><path fill="#fff" d="M6.477.127c-20.438 85.055 15.361 180.012 88.356 233.33 50.017 36.561 110.317 56.237 170.364 71.852 62.839 16.376 127.328 29.198 192.325 27.548a306 306 0 0 0 15.234-.762V.127z"/></mask><g mask="url(#ch)"><mask id="ci" width="347" height="855" x="526" y="-502" maskUnits="userSpaceOnUse" style="mask-type:luminance"><path fill="#fff" d="M674.603-500.554C1338.92-256.434 62.588 106.89 727.032 351.01c-.889.381-1.65.635-2.539 1.016-665.586-244.501 613.157-608.714-52.429-853.215.761.127 1.65.381 2.539.635"/></mask></g><mask id="cj" width="473" height="333" x="0" y="0" maskUnits="userSpaceOnUse" style="mask-type:luminance"><path fill="#fff" d="M6.477.127c-20.438 85.055 15.361 180.012 88.356 233.33 50.017 36.561 110.317 56.237 170.364 71.852 62.839 16.376 127.328 29.198 192.325 27.548a306 306 0 0 0 15.234-.762V.127z"/></mask><g mask="url(#cj)"><mask id="ck" width="345" height="847" x="539" y="-499" maskUnits="userSpaceOnUse" style="mask-type:luminance"><path fill="#fff" d="M687.044-497.508c658.346 241.836-606.43 601.986 51.921 843.821-.888.381-1.65.635-2.539 1.016C76.806 104.986 1344-255.799 684.378-498.142c.888.254 1.777.507 2.666.634"/></mask></g><mask id="cl" width="473" height="333" x="0" y="0" maskUnits="userSpaceOnUse" style="mask-type:luminance"><path fill="#fff" d="M6.477.127c-20.438 85.055 15.361 180.012 88.356 233.33 50.017 36.561 110.317 56.237 170.364 71.852 62.839 16.376 127.328 29.198 192.325 27.548a306 306 0 0 0 15.234-.762V.127z"/></mask><g mask="url(#cl)"><mask id="cm" width="341" height="838" x="553" y="-495" maskUnits="userSpaceOnUse" style="mask-type:luminance"><path fill="#fff" d="M699.484-494.334c652.256 239.677-600.843 596.527 51.414 836.077-.888.381-1.65.635-2.539 1.016-653.526-240.058 601.981-597.67-51.541-837.728.889.127 1.778.381 2.666.635"/></mask></g><mask id="cn" width="473" height="333" x="0" y="0" maskUnits="userSpaceOnUse" style="mask-type:luminance"><path fill="#fff" d="M6.477.127c-20.438 85.055 15.361 180.012 88.356 233.33 50.017 36.561 110.317 56.237 170.364 71.852 62.839 16.376 127.328 29.198 192.325 27.548a306 306 0 0 0 15.234-.762V.127z"/></mask><g mask="url(#cn)"><mask id="co" width="338" height="831" x="567" y="-492" maskUnits="userSpaceOnUse" style="mask-type:luminance"><path fill="#fff" d="M711.925-491.287c646.295 237.392-595.257 590.941 50.906 828.46-.889.381-1.65.635-2.539 1.016-647.56-237.9 596.528-592.084-51.033-829.984 1.016.127 1.777.381 2.666.508"/></mask></g><mask id="cp" width="473" height="333" x="0" y="0" maskUnits="userSpaceOnUse" style="mask-type:luminance"><path fill="#fff" d="M6.477.127c-20.438 85.055 15.361 180.012 88.356 233.33 50.017 36.561 110.317 56.237 170.364 71.852 62.839 16.376 127.328 29.198 192.325 27.548a306 306 0 0 0 15.234-.762V.127z"/></mask><g mask="url(#cp)"><mask id="cq" width="335" height="823" x="581" y="-489" maskUnits="userSpaceOnUse" style="mask-type:luminance"><path fill="#fff" d="M724.366-488.113c640.194 235.234-589.798 585.482 50.525 820.716-.888.381-1.65.635-2.539 1.015-641.466-235.614 590.938-586.624-50.525-822.239.889 0 1.777.254 2.539.508"/></mask></g><mask id="cr" width="473" height="333" x="0" y="0" maskUnits="userSpaceOnUse" style="mask-type:luminance"><path fill="#fff" d="M6.477.127c-20.438 85.055 15.361 180.012 88.356 233.33 50.017 36.561 110.317 56.237 170.364 71.852 62.839 16.376 127.328 29.198 192.325 27.548a306 306 0 0 0 15.234-.762V.127z"/></mask><g mask="url(#cr)"><mask id="cs" width="332" height="815" x="594" y="-486" maskUnits="userSpaceOnUse" style="mask-type:luminance"><path fill="#fff" d="M736.934-485.067C1371.16-252.118 152.721 94.83 786.951 327.906c-.888.381-1.65.635-2.539 1.015-635.499-233.456 585.358-581.166-50.144-814.622.889.253 1.777.507 2.666.634"/></mask></g><mask id="ct" width="473" height="333" x="0" y="0" maskUnits="userSpaceOnUse" style="mask-type:luminance"><path fill="#fff" d="M6.477.127c-20.438 85.055 15.361 180.012 88.356 233.33 50.017 36.561 110.317 56.237 170.364 71.852 62.839 16.376 127.328 29.198 192.325 27.548a306 306 0 0 0 15.234-.762V.127z"/></mask><g mask="url(#ct)"><mask id="cu" width="329" height="808" x="608" y="-483" maskUnits="userSpaceOnUse" style="mask-type:luminance"><path fill="#fff" d="M749.375-481.893c628.135 230.791-578.627 574.438 49.509 805.229-.888.381-1.65.635-2.539 1.015-629.406-231.298 579.775-575.58-49.636-806.879.889.127 1.777.381 2.666.635"/></mask></g><mask id="cv" width="473" height="333" x="0" y="0" maskUnits="userSpaceOnUse" style="mask-type:luminance"><path fill="#fff" d="M6.477.127c-20.438 85.055 15.361 180.012 88.356 233.33 50.017 36.561 110.317 56.237 170.364 71.852 62.839 16.376 127.328 29.198 192.325 27.548a306 306 0 0 0 15.234-.762V.127z"/></mask><g mask="url(#cv)"><mask id="cw" width="326" height="800" x="622" y="-480" maskUnits="userSpaceOnUse" style="mask-type:luminance"><path fill="#fff" d="M761.816-478.846c622.174 228.632-573.042 568.979 49.001 797.484-.888.381-1.65.635-2.538 1.016-623.44-229.013 574.311-570.121-49.129-799.135.888.254 1.777.508 2.666.635"/></mask></g><mask id="cx" width="473" height="333" x="0" y="0" maskUnits="userSpaceOnUse" style="mask-type:luminance"><path fill="#fff" d="M6.477.127c-20.438 85.055 15.361 180.012 88.356 233.33 50.017 36.561 110.317 56.237 170.364 71.852 62.839 16.376 127.328 29.198 192.325 27.548a306 306 0 0 0 15.234-.762V.127z"/></mask><g mask="url(#cx)"><mask id="cy" width="322" height="793" x="636" y="-477" maskUnits="userSpaceOnUse" style="mask-type:luminance"><path fill="#fff" d="M774.257-475.673c616.073 226.348-567.583 563.394 48.621 789.741-.889.381-1.651.635-2.539 1.016-617.347-226.855 568.721-564.536-48.621-791.391.761.127 1.65.38 2.539.634"/></mask></g><mask id="cz" width="473" height="333" x="0" y="0" maskUnits="userSpaceOnUse" style="mask-type:luminance"><path fill="#fff" d="M6.477.127c-20.438 85.055 15.361 180.012 88.356 233.33 50.017 36.561 110.317 56.237 170.364 71.852 62.839 16.376 127.328 29.198 192.325 27.548a306 306 0 0 0 15.234-.762V.127z"/></mask><g mask="url(#cz)"><mask id="cA" width="319" height="785" x="650" y="-474" maskUnits="userSpaceOnUse" style="mask-type:luminance"><path fill="#fff" d="M786.697-472.626C1396.81-248.436 224.7 85.309 834.811 309.371c-.889.381-1.651.635-2.539 1.016-611.38-224.57 563.138-559.077-48.241-783.647 1.016.253 1.778.507 2.666.634"/></mask></g><mask id="cB" width="473" height="333" x="0" y="0" maskUnits="userSpaceOnUse" style="mask-type:luminance"><path fill="#fff" d="M6.477.127c-20.438 85.055 15.361 180.012 88.356 233.33 50.017 36.561 110.317 56.237 170.364 71.852 62.839 16.376 127.328 29.198 192.325 27.548a306 306 0 0 0 15.234-.762V.127z"/></mask><g mask="url(#cB)"><mask id="cC" width="317" height="776" x="663" y="-470" maskUnits="userSpaceOnUse" style="mask-type:luminance"><path fill="#fff" d="M799.138-469.452c604.012 221.904-556.411 552.349 47.606 774.38-.889.381-1.651.635-2.539 1.016C238.918 83.532 1401.76-247.675 796.472-469.96c1.016 0 1.905.254 2.666.508"/></mask></g><mask id="cD" width="473" height="333" x="0" y="0" maskUnits="userSpaceOnUse" style="mask-type:luminance"><path fill="#fff" d="M6.477.127c-20.438 85.055 15.361 180.012 88.356 233.33 50.017 36.561 110.317 56.237 170.364 71.852 62.839 16.376 127.328 29.198 192.325 27.548a306 306 0 0 0 15.234-.762V.127z"/></mask><g mask="url(#cD)"><mask id="cE" width="313" height="770" x="677" y="-468" maskUnits="userSpaceOnUse" style="mask-type:luminance"><path fill="#fff" d="M811.706-466.405c598.054 219.746-550.952 546.89 47.098 766.636-.889.381-1.651.635-2.539 1.016C256.945 81.12 1408.36-246.786 809.04-467.04c.889.254 1.777.508 2.666.635"/></mask></g><mask id="cF" width="473" height="333" x="0" y="0" maskUnits="userSpaceOnUse" style="mask-type:luminance"><path fill="#fff" d="M6.477.127c-20.438 85.055 15.361 180.012 88.356 233.33 50.017 36.561 110.317 56.237 170.364 71.852 62.839 16.376 127.328 29.198 192.325 27.548a306 306 0 0 0 15.234-.762V.127z"/></mask><g mask="url(#cF)"><mask id="cG" width="310" height="761" x="691" y="-464" maskUnits="userSpaceOnUse" style="mask-type:luminance"><path fill="#fff" d="M824.147-463.232C1416.23-245.77 278.78 78.2 870.864 295.661c-.889.381-1.651.635-2.539 1.016-593.226-217.97 546.505-542.574-46.717-760.543.762.126 1.65.38 2.539.634"/></mask></g><defs><linearGradient id="c" x1="30.22" x2="-242.031" y1="-820.798" y2="210.266" gradientUnits="userSpaceOnUse"><stop stop-color="#2DABE3"/><stop offset=".503" stop-color="#48AE4D"/><stop offset="1" stop-color="#48AE4D"/></linearGradient><linearGradient id="f" x1="41.486" x2="-230.765" y1="-817.941" y2="213.123" gradientUnits="userSpaceOnUse"><stop stop-color="#2DABE3"/><stop offset=".503" stop-color="#48AE4D"/><stop offset="1" stop-color="#48AE4D"/></linearGradient><linearGradient id="i" x1="52.753" x2="-219.498" y1="-814.926" y2="216.138" gradientUnits="userSpaceOnUse"><stop stop-color="#2DABE3"/><stop offset=".503" stop-color="#48AE4D"/><stop offset="1" stop-color="#48AE4D"/></linearGradient><linearGradient id="l" x1="63.861" x2="-208.39" y1="-811.911" y2="219.153" gradientUnits="userSpaceOnUse"><stop stop-color="#2DABE3"/><stop offset=".503" stop-color="#48AE4D"/><stop offset="1" stop-color="#48AE4D"/></linearGradient><linearGradient id="o" x1="75.127" x2="-197.123" y1="-809.055" y2="222.009" gradientUnits="userSpaceOnUse"><stop stop-color="#2DABE3"/><stop offset=".503" stop-color="#48AE4D"/><stop offset="1" stop-color="#48AE4D"/></linearGradient><linearGradient id="r" x1="86.394" x2="-185.857" y1="-806.04" y2="225.024" gradientUnits="userSpaceOnUse"><stop stop-color="#2DABE3"/><stop offset=".503" stop-color="#48AE4D"/><stop offset="1" stop-color="#48AE4D"/></linearGradient><linearGradient id="u" x1="97.66" x2="-174.59" y1="-803.025" y2="228.039" gradientUnits="userSpaceOnUse"><stop stop-color="#2DABE3"/><stop offset=".503" stop-color="#48AE4D"/><stop offset="1" stop-color="#48AE4D"/></linearGradient><linearGradient id="x" x1="108.927" x2="-163.323" y1="-800.01" y2="231.054" gradientUnits="userSpaceOnUse"><stop stop-color="#2DABE3"/><stop offset=".503" stop-color="#48AE4D"/><stop offset="1" stop-color="#48AE4D"/></linearGradient><linearGradient id="A" x1="120.194" x2="-152.057" y1="-797.153" y2="233.911" gradientUnits="userSpaceOnUse"><stop stop-color="#2DABE3"/><stop offset=".503" stop-color="#48AE4D"/><stop offset="1" stop-color="#48AE4D"/></linearGradient><linearGradient id="D" x1="131.302" x2="-140.949" y1="-794.139" y2="236.926" gradientUnits="userSpaceOnUse"><stop stop-color="#2DABE3"/><stop offset=".503" stop-color="#48AE4D"/><stop offset="1" stop-color="#48AE4D"/></linearGradient><linearGradient id="G" x1="142.568" x2="-129.682" y1="-791.124" y2="239.941" gradientUnits="userSpaceOnUse"><stop stop-color="#2DABE3"/><stop offset=".503" stop-color="#48AE4D"/><stop offset="1" stop-color="#48AE4D"/></linearGradient><linearGradient id="J" x1="153.835" x2="-118.416" y1="-788.267" y2="242.797" gradientUnits="userSpaceOnUse"><stop stop-color="#2DABE3"/><stop offset=".503" stop-color="#48AE4D"/><stop offset="1" stop-color="#48AE4D"/></linearGradient><linearGradient id="M" x1="165.101" x2="-107.149" y1="-785.252" y2="245.812" gradientUnits="userSpaceOnUse"><stop stop-color="#2DABE3"/><stop offset=".503" stop-color="#48AE4D"/><stop offset="1" stop-color="#48AE4D"/></linearGradient><linearGradient id="P" x1="176.368" x2="-95.882" y1="-782.237" y2="248.827" gradientUnits="userSpaceOnUse"><stop stop-color="#2DABE3"/><stop offset=".503" stop-color="#48AE4D"/><stop offset="1" stop-color="#48AE4D"/></linearGradient><linearGradient id="S" x1="187.635" x2="-84.616" y1="-779.222" y2="251.842" gradientUnits="userSpaceOnUse"><stop stop-color="#2DABE3"/><stop offset=".503" stop-color="#48AE4D"/><stop offset="1" stop-color="#48AE4D"/></linearGradient><linearGradient id="V" x1="198.901" x2="-73.349" y1="-776.366" y2="254.698" gradientUnits="userSpaceOnUse"><stop stop-color="#2DABE3"/><stop offset=".503" stop-color="#48AE4D"/><stop offset="1" stop-color="#48AE4D"/></linearGradient><linearGradient id="Y" x1="210.009" x2="-62.241" y1="-773.351" y2="257.713" gradientUnits="userSpaceOnUse"><stop stop-color="#2DABE3"/><stop offset=".503" stop-color="#48AE4D"/><stop offset="1" stop-color="#48AE4D"/></linearGradient><linearGradient id="ab" x1="221.276" x2="-50.975" y1="-770.336" y2="260.728" gradientUnits="userSpaceOnUse"><stop stop-color="#2DABE3"/><stop offset=".503" stop-color="#48AE4D"/><stop offset="1" stop-color="#48AE4D"/></linearGradient><linearGradient id="ae" x1="232.542" x2="-39.708" y1="-767.48" y2="263.584" gradientUnits="userSpaceOnUse"><stop stop-color="#2DABE3"/><stop offset=".503" stop-color="#48AE4D"/><stop offset="1" stop-color="#48AE4D"/></linearGradient><linearGradient id="ag" x1="216.382" x2="-55.869" y1="-771.707" y2="259.358" gradientUnits="userSpaceOnUse"><stop stop-color="#2DABE3"/><stop offset=".503" stop-color="#48AE4D"/><stop offset="1" stop-color="#48AE4D"/></linearGradient><linearGradient id="ai" x1="222.597" x2="-49.655" y1="-770.026" y2="261.039" gradientUnits="userSpaceOnUse"><stop stop-color="#2DABE3"/><stop offset=".503" stop-color="#48AE4D"/><stop offset="1" stop-color="#48AE4D"/></linearGradient><linearGradient id="ak" x1="229.018" x2="-43.233" y1="-768.449" y2="262.615" gradientUnits="userSpaceOnUse"><stop stop-color="#2DABE3"/><stop offset=".503" stop-color="#48AE4D"/><stop offset="1" stop-color="#48AE4D"/></linearGradient><linearGradient id="am" x1="235.589" x2="-36.661" y1="-766.631" y2="264.433" gradientUnits="userSpaceOnUse"><stop stop-color="#2DABE3"/><stop offset=".503" stop-color="#48AE4D"/><stop offset="1" stop-color="#48AE4D"/></linearGradient><linearGradient id="ao" x1="242.628" x2="-29.622" y1="-764.733" y2="266.331" gradientUnits="userSpaceOnUse"><stop stop-color="#2DABE3"/><stop offset=".503" stop-color="#48AE4D"/><stop offset="1" stop-color="#48AE4D"/></linearGradient><linearGradient id="aq" x1="249.873" x2="-22.378" y1="-762.78" y2="268.285" gradientUnits="userSpaceOnUse"><stop stop-color="#2DABE3"/><stop offset=".503" stop-color="#48AE4D"/><stop offset="1" stop-color="#48AE4D"/></linearGradient><linearGradient id="as" x1="257.325" x2="-14.925" y1="-760.931" y2="270.133" gradientUnits="userSpaceOnUse"><stop stop-color="#2DABE3"/><stop offset=".503" stop-color="#48AE4D"/><stop offset="1" stop-color="#48AE4D"/></linearGradient><linearGradient id="au" x1="265.086" x2="-7.165" y1="-758.842" y2="272.223" gradientUnits="userSpaceOnUse"><stop stop-color="#2DABE3"/><stop offset=".503" stop-color="#48AE4D"/><stop offset="1" stop-color="#48AE4D"/></linearGradient><linearGradient id="aw" x1="273.053" x2=".803" y1="-756.698" y2="274.367" gradientUnits="userSpaceOnUse"><stop stop-color="#2DABE3"/><stop offset=".503" stop-color="#48AE4D"/><stop offset="1" stop-color="#48AE4D"/></linearGradient><linearGradient id="ay" x1="281.124" x2="8.873" y1="-754.685" y2="276.379" gradientUnits="userSpaceOnUse"><stop stop-color="#2DABE3"/><stop offset=".503" stop-color="#48AE4D"/><stop offset="1" stop-color="#48AE4D"/></linearGradient><linearGradient id="aA" x1="289.138" x2="16.888" y1="-752.487" y2="278.577" gradientUnits="userSpaceOnUse"><stop stop-color="#2DABE3"/><stop offset=".503" stop-color="#48AE4D"/><stop offset="1" stop-color="#48AE4D"/></linearGradient><linearGradient id="aC" x1="297.621" x2="25.371" y1="-750.206" y2="280.857" gradientUnits="userSpaceOnUse"><stop stop-color="#2DABE3"/><stop offset=".503" stop-color="#48AE4D"/><stop offset="1" stop-color="#48AE4D"/></linearGradient><linearGradient id="aE" x1="306.413" x2="34.163" y1="-747.846" y2="283.219" gradientUnits="userSpaceOnUse"><stop stop-color="#2DABE3"/><stop offset=".503" stop-color="#48AE4D"/><stop offset="1" stop-color="#48AE4D"/></linearGradient><linearGradient id="aG" x1="315.411" x2="43.161" y1="-745.588" y2="285.476" gradientUnits="userSpaceOnUse"><stop stop-color="#2DABE3"/><stop offset=".503" stop-color="#48AE4D"/><stop offset="1" stop-color="#48AE4D"/></linearGradient><linearGradient id="aI" x1="324.719" x2="52.468" y1="-743.09" y2="287.974" gradientUnits="userSpaceOnUse"><stop stop-color="#2DABE3"/><stop offset=".503" stop-color="#48AE4D"/><stop offset="1" stop-color="#48AE4D"/></linearGradient><linearGradient id="aK" x1="333.924" x2="61.673" y1="-740.62" y2="290.444" gradientUnits="userSpaceOnUse"><stop stop-color="#2DABE3"/><stop offset=".503" stop-color="#48AE4D"/><stop offset="1" stop-color="#48AE4D"/></linearGradient><linearGradient id="aM" x1="343.485" x2="71.234" y1="-738.172" y2="292.892" gradientUnits="userSpaceOnUse"><stop stop-color="#2DABE3"/><stop offset=".503" stop-color="#48AE4D"/><stop offset="1" stop-color="#48AE4D"/></linearGradient><linearGradient id="aO" x1="353.514" x2="81.264" y1="-735.483" y2="295.581" gradientUnits="userSpaceOnUse"><stop stop-color="#2DABE3"/><stop offset=".503" stop-color="#48AE4D"/><stop offset="1" stop-color="#48AE4D"/></linearGradient><linearGradient id="aQ" x1="363.75" x2="91.499" y1="-732.741" y2="298.323" gradientUnits="userSpaceOnUse"><stop stop-color="#2DABE3"/><stop offset=".503" stop-color="#48AE4D"/><stop offset="1" stop-color="#48AE4D"/></linearGradient><linearGradient id="aS" x1="374.501" x2="102.25" y1="-730.021" y2="301.043" gradientUnits="userSpaceOnUse"><stop stop-color="#2DABE3"/><stop offset=".503" stop-color="#48AE4D"/><stop offset="1" stop-color="#48AE4D"/></linearGradient><linearGradient id="aU" x1="385.561" x2="113.311" y1="-727.06" y2="304.004" gradientUnits="userSpaceOnUse"><stop stop-color="#2DABE3"/><stop offset=".503" stop-color="#48AE4D"/><stop offset="1" stop-color="#48AE4D"/></linearGradient><linearGradient id="aW" x1="396.828" x2="124.577" y1="-724.045" y2="307.019" gradientUnits="userSpaceOnUse"><stop stop-color="#2DABE3"/><stop offset=".503" stop-color="#48AE4D"/><stop offset="1" stop-color="#48AE4D"/></linearGradient><linearGradient id="aY" x1="408.142" x2="135.891" y1="-720.975" y2="310.089" gradientUnits="userSpaceOnUse"><stop stop-color="#2DABE3"/><stop offset=".503" stop-color="#48AE4D"/><stop offset="1" stop-color="#48AE4D"/></linearGradient><linearGradient id="ba" x1="420.233" x2="147.983" y1="-717.901" y2="313.163" gradientUnits="userSpaceOnUse"><stop stop-color="#2DABE3"/><stop offset=".503" stop-color="#48AE4D"/><stop offset="1" stop-color="#48AE4D"/></linearGradient><linearGradient id="bc" x1="432.531" x2="160.28" y1="-714.614" y2="316.45" gradientUnits="userSpaceOnUse"><stop stop-color="#2DABE3"/><stop offset=".503" stop-color="#48AE4D"/><stop offset="1" stop-color="#48AE4D"/></linearGradient><linearGradient id="be" x1="445.035" x2="172.784" y1="-711.272" y2="319.792" gradientUnits="userSpaceOnUse"><stop stop-color="#2DABE3"/><stop offset=".503" stop-color="#48AE4D"/><stop offset="1" stop-color="#48AE4D"/></linearGradient><linearGradient id="bg" x1="454.755" x2="182.504" y1="-708.825" y2="322.24" gradientUnits="userSpaceOnUse"><stop stop-color="#2DABE3"/><stop offset=".503" stop-color="#48AE4D"/><stop offset="1" stop-color="#48AE4D"/></linearGradient><linearGradient id="bi" x1="464.99" x2="192.74" y1="-706.082" y2="324.982" gradientUnits="userSpaceOnUse"><stop stop-color="#2DABE3"/><stop offset=".503" stop-color="#48AE4D"/><stop offset="1" stop-color="#48AE4D"/></linearGradient><linearGradient id="bk" x1="475.02" x2="202.769" y1="-703.393" y2="327.671" gradientUnits="userSpaceOnUse"><stop stop-color="#2DABE3"/><stop offset=".503" stop-color="#48AE4D"/><stop offset="1" stop-color="#48AE4D"/></linearGradient><linearGradient id="bm" x1="485.097" x2="212.846" y1="-700.65" y2="330.414" gradientUnits="userSpaceOnUse"><stop stop-color="#2DABE3"/><stop offset=".503" stop-color="#48AE4D"/><stop offset="1" stop-color="#48AE4D"/></linearGradient><linearGradient id="bo" x1="495.435" x2="223.185" y1="-698.04" y2="333.025" gradientUnits="userSpaceOnUse"><stop stop-color="#2DABE3"/><stop offset=".503" stop-color="#48AE4D"/><stop offset="1" stop-color="#48AE4D"/></linearGradient><linearGradient id="bq" x1="505.671" x2="233.42" y1="-695.296" y2="335.768" gradientUnits="userSpaceOnUse"><stop stop-color="#2DABE3"/><stop offset=".503" stop-color="#48AE4D"/><stop offset="1" stop-color="#48AE4D"/></linearGradient><linearGradient id="bs" x1="516.215" x2="243.965" y1="-692.472" y2="338.592" gradientUnits="userSpaceOnUse"><stop stop-color="#2DABE3"/><stop offset=".503" stop-color="#48AE4D"/><stop offset="1" stop-color="#48AE4D"/></linearGradient><linearGradient id="bu" x1="526.451" x2="254.2" y1="-689.888" y2="341.176" gradientUnits="userSpaceOnUse"><stop stop-color="#2DABE3"/><stop offset=".503" stop-color="#48AE4D"/><stop offset="1" stop-color="#48AE4D"/></linearGradient><linearGradient id="bw" x1="536.893" x2="264.642" y1="-687.091" y2="343.973" gradientUnits="userSpaceOnUse"><stop stop-color="#2DABE3"/><stop offset=".503" stop-color="#48AE4D"/><stop offset="1" stop-color="#48AE4D"/></linearGradient><linearGradient id="by" x1="547.588" x2="275.338" y1="-684.185" y2="346.879" gradientUnits="userSpaceOnUse"><stop stop-color="#2DABE3"/><stop offset=".503" stop-color="#48AE4D"/><stop offset="1" stop-color="#48AE4D"/></linearGradient><linearGradient id="bA" x1="558.03" x2="285.78" y1="-681.546" y2="349.518" gradientUnits="userSpaceOnUse"><stop stop-color="#2DABE3"/><stop offset=".503" stop-color="#48AE4D"/><stop offset="1" stop-color="#48AE4D"/></linearGradient><linearGradient id="bC" x1="568.781" x2="296.531" y1="-678.667" y2="352.397" gradientUnits="userSpaceOnUse"><stop stop-color="#2DABE3"/><stop offset=".503" stop-color="#48AE4D"/><stop offset="1" stop-color="#48AE4D"/></linearGradient><linearGradient id="bE" x1="579.842" x2="307.591" y1="-675.707" y2="355.357" gradientUnits="userSpaceOnUse"><stop stop-color="#2DABE3"/><stop offset=".503" stop-color="#48AE4D"/><stop offset="1" stop-color="#48AE4D"/></linearGradient><linearGradient id="bG" x1="590.799" x2="318.548" y1="-672.773" y2="358.291" gradientUnits="userSpaceOnUse"><stop stop-color="#2DABE3"/><stop offset=".503" stop-color="#48AE4D"/><stop offset="1" stop-color="#48AE4D"/></linearGradient><linearGradient id="bI" x1="600.313" x2="328.062" y1="-670.38" y2="360.684" gradientUnits="userSpaceOnUse"><stop stop-color="#2DABE3"/><stop offset=".503" stop-color="#48AE4D"/><stop offset="1" stop-color="#48AE4D"/></linearGradient><linearGradient id="bK" x1="609.826" x2="337.576" y1="-667.828" y2="363.236" gradientUnits="userSpaceOnUse"><stop stop-color="#2DABE3"/><stop offset=".503" stop-color="#48AE4D"/><stop offset="1" stop-color="#48AE4D"/></linearGradient><linearGradient id="bM" x1="620.006" x2="347.756" y1="-665.058" y2="366.006" gradientUnits="userSpaceOnUse"><stop stop-color="#2DABE3"/><stop offset=".503" stop-color="#48AE4D"/><stop offset="1" stop-color="#48AE4D"/></linearGradient><linearGradient id="bO" x1="630.242" x2="357.991" y1="-662.474" y2="368.59" gradientUnits="userSpaceOnUse"><stop stop-color="#2DABE3"/><stop offset=".503" stop-color="#48AE4D"/><stop offset="1" stop-color="#48AE4D"/></linearGradient><linearGradient id="bQ" x1="641.199" x2="368.949" y1="-659.54" y2="371.523" gradientUnits="userSpaceOnUse"><stop stop-color="#2DABE3"/><stop offset=".503" stop-color="#48AE4D"/><stop offset="1" stop-color="#48AE4D"/></linearGradient><linearGradient id="bS" x1="651.95" x2="379.7" y1="-656.662" y2="374.402" gradientUnits="userSpaceOnUse"><stop stop-color="#2DABE3"/><stop offset=".503" stop-color="#48AE4D"/><stop offset="1" stop-color="#48AE4D"/></linearGradient><linearGradient id="bU" x1="662.495" x2="390.244" y1="-653.837" y2="377.227" gradientUnits="userSpaceOnUse"><stop stop-color="#2DABE3"/><stop offset=".503" stop-color="#48AE4D"/><stop offset="1" stop-color="#48AE4D"/></linearGradient><linearGradient id="bW" x1="672.731" x2="400.48" y1="-651.254" y2="379.811" gradientUnits="userSpaceOnUse"><stop stop-color="#2DABE3"/><stop offset=".503" stop-color="#48AE4D"/><stop offset="1" stop-color="#48AE4D"/></linearGradient><linearGradient id="bY" x1="682.395" x2="410.145" y1="-648.62" y2="382.445" gradientUnits="userSpaceOnUse"><stop stop-color="#2DABE3"/><stop offset=".503" stop-color="#48AE4D"/><stop offset="1" stop-color="#48AE4D"/></linearGradient><linearGradient id="ca" x1="691.6" x2="419.352" y1="-646.148" y2="384.916" gradientUnits="userSpaceOnUse"><stop stop-color="#2DABE3"/><stop offset=".503" stop-color="#48AE4D"/><stop offset="1" stop-color="#48AE4D"/></linearGradient></defs></svg>