<svg width="1920" height="399" viewBox="0 0 1920 399" fill="none" xmlns="http://www.w3.org/2000/svg">
<path d="M1939.83 339.843C1915.15 320.712 1890.25 302.224 1864.7 284.587C1779.73 225.512 1687.94 175.588 1590.12 139.78C1492.73 103.763 1389.29 82.9386 1285.82 78.6951C1182.13 74.0174 1078.41 84.8441 977.167 103.032C875.487 121.428 776.276 147.186 676.056 168.621C626.163 179.234 575.644 188.545 525.609 194.418C475.141 200.499 424.306 202.484 374.214 198.235C324.122 193.986 274.339 183.713 227.486 165.088C180.406 147.105 136.239 121.848 96.0265 91.4857C60.2764 64.8559 27.8218 33.9719 -2.44714 0.969717L-19.7989 9.30518C12.1549 44.7032 46.7281 77.7746 84.5968 106.592C125.869 138.048 171.737 164.625 220.31 183.492C269.09 202.794 320.366 213.953 372.61 218.236C424.421 222.728 476.765 220.552 528.085 215.131C579.838 209.5 630.356 200.189 680.892 189.802C781.754 168.593 880.74 143.478 981.553 125.498C1081.93 107.727 1183.7 97.2998 1285.01 102.585C1386.11 107.437 1486.32 128.209 1581.35 163.757C1676.37 199.306 1765.8 248.761 1849.28 306.951C1890.38 335.82 1930.15 366.39 1968.18 398.871L1939.83 339.843Z" fill="white"/>
</svg>
