<svg width="12" height="24" viewBox="0 0 12 24" fill="none" xmlns="http://www.w3.org/2000/svg">
<path d="M5.99982 24C8.96102 24 11.3701 21.5909 11.3701 18.6297V3.97249C11.3701 1.78206 9.58806 0 7.39763 0C5.20715 0 3.42509 1.78206 3.42509 3.97249V15.859C3.42509 17.2702 4.57314 18.4182 5.98432 18.4182C7.39546 18.4182 8.54351 17.2702 8.54351 15.859V7.13643H7.1303V15.8591C7.1303 16.4909 6.61622 17.0051 5.98432 17.0051C5.35238 17.0051 4.8383 16.4909 4.8383 15.8591V3.97249C4.8383 2.5613 5.9864 1.41321 7.39763 1.41321C8.80881 1.41321 9.95691 2.5613 9.95691 3.97249V18.6297C9.95691 20.8116 8.18172 22.5867 5.99982 22.5867C3.81792 22.5867 2.04274 20.8116 2.04274 18.6297V7.34837H0.629524V18.6297C0.629524 21.5909 3.03863 24 5.99982 24Z" fill="white"/>
</svg>
