<svg width="56" height="52" viewBox="0 0 56 52" fill="none" xmlns="http://www.w3.org/2000/svg">
<path d="M55.3727 17.3162C55.1813 18.3137 55.0447 19.3387 54.7714 20.3226C54.1291 22.6867 52.9675 24.7775 51.3413 26.6224C51.232 26.7454 51.1364 26.8684 51.0134 27.005C52.3936 28.6859 52.7762 30.5307 51.7376 32.4712C50.7127 34.3981 48.9909 35.1223 46.8181 34.931C46.8727 36.4752 46.4627 37.8144 45.3558 38.8667C44.2353 39.9326 42.8824 40.2742 41.3245 40.1102C41.4202 41.9141 40.8462 43.4173 39.3703 44.4559C37.8945 45.4944 36.3093 45.5901 34.7651 44.9342C32.8246 46.7927 30.9387 48.6102 29.0119 50.4004C27.5087 51.7943 25.4725 52.0676 23.696 51.1793C21.8648 50.2637 20.9356 48.4599 21.1542 46.1777C19.6237 46.2734 18.2708 45.8498 17.2049 44.7292C16.1526 43.6086 15.7837 42.2557 15.9887 40.6842C14.4581 40.7935 13.1052 40.3835 12.0393 39.2493C10.9597 38.1151 10.6181 36.7485 10.7958 35.2453C10.2355 35.1906 9.68885 35.1907 9.16956 35.0677C6.47745 34.4254 4.96058 31.7196 5.80784 29.0958C5.91717 28.7815 5.87617 28.5765 5.64386 28.3442C4.19531 26.8957 2.8151 25.3788 1.85851 23.534C0.901924 21.6755 0.286975 19.7213 0.0956582 17.6305C0.0819927 17.5348 0.0409965 17.4255 0 17.3298C0 16.4689 0 15.5943 0 14.7334C0.0956586 14.1594 0.177652 13.5718 0.314307 12.9979C1.63986 6.9577 5.20656 2.80339 11.0554 0.876548C16.8222 -1.02296 22.0971 0.206938 26.7297 4.15627C27.0577 4.42958 27.3584 4.74389 27.7 5.0582C27.8913 4.88054 28.0553 4.71656 28.233 4.56624C31.8133 1.23185 36.036 -0.298687 40.9282 0.13861C47.2553 0.698896 52.7762 5.15385 54.6347 11.2213C54.99 12.3692 55.154 13.5718 55.4 14.747C55.3727 15.5943 55.3727 16.4552 55.3727 17.3162ZM30.0915 37.7871C33.2209 37.6914 35.2844 39.6866 35.2434 42.7477C35.2434 43.062 35.339 43.1986 35.6123 43.2943C36.6919 43.6769 37.6758 43.513 38.5367 42.7477C39.794 41.6408 39.794 39.8369 38.5641 38.525C34.6147 34.3434 30.6654 30.1617 26.7297 25.9801C26.0875 25.2968 26.0055 24.7775 26.4701 24.3539C26.9211 23.9303 27.454 24.0533 28.0826 24.7229C30.7201 27.5106 33.3439 30.3121 35.9813 33.0998C37.3205 34.521 38.6461 35.9423 39.999 37.3361C41.1605 38.5524 42.9097 38.6207 44.0713 37.5411C45.2602 36.4342 45.3012 34.7124 44.1533 33.4278C43.9756 33.2228 43.7843 33.0315 43.593 32.8402C39.7666 28.7952 35.9403 24.7365 32.1276 20.6915C31.9636 20.5139 31.786 20.3089 31.7177 20.0766C31.5947 19.6666 31.7313 19.2977 32.114 19.0517C32.5239 18.8057 32.9476 18.8877 33.3712 19.325C35.6943 21.7711 38.0038 24.2309 40.3133 26.677C42.0488 28.5082 43.7706 30.3531 45.5062 32.1842C46.6677 33.4005 48.4579 33.4551 49.6058 32.3209C50.7674 31.1867 50.7537 29.4648 49.5648 28.2076C46.2304 24.6682 42.8824 21.1288 39.548 17.5895C38.0038 15.9496 36.4596 14.3097 34.9017 12.6836C34.3551 12.1096 33.9041 12.0959 33.3165 12.6289C33.0705 12.8475 32.8519 13.0799 32.6059 13.2985C30.6108 15.1843 28.6292 17.0702 26.6204 18.9424C24.5023 20.9102 21.4685 21.0742 19.2547 19.3797C17.1502 17.7671 17.0136 15.1297 18.9404 13.2985C20.3479 11.9593 21.7692 10.6337 23.1904 9.2945C24.229 8.32425 25.2539 7.34034 26.3334 6.31542C22.5344 2.5984 18.0521 1.0542 12.9139 2.27043C6.99674 3.66431 3.29339 7.51799 2.11815 13.4898C1.05224 18.915 3.02008 23.411 7.02407 27.1143C7.18806 26.9777 7.31105 26.8547 7.4477 26.7317C8.92358 25.3515 10.3721 23.9439 11.8617 22.5774C14.5538 20.1176 18.7901 21.4295 19.61 24.9825C19.7467 25.5701 19.7193 26.1851 19.7603 26.8274C21.2362 26.718 22.5618 27.1553 23.614 28.2622C24.6936 29.3965 25.0489 30.763 24.8576 32.2936C27.659 32.0613 30.4468 34.1931 30.0915 37.7871ZM49.7425 25.7068C52.7352 22.3041 54.0608 18.4231 53.3775 14.0228C52.5166 8.51557 49.4145 4.63456 44.1669 2.73506C38.9194 0.849217 34.0545 1.8468 29.8865 5.56382C26.5384 8.5429 23.3407 11.6996 20.0883 14.788C19.2 15.6216 19.241 16.8105 20.1156 17.6578C21.6188 19.079 23.8463 19.0517 25.4315 17.5758C27.618 15.526 29.7772 13.4762 31.95 11.4127C33.4122 10.0324 34.97 10.0734 36.3366 11.522C40.5592 15.9906 44.7682 20.4592 48.9909 24.9279C49.2232 25.1602 49.4555 25.4061 49.7425 25.7068ZM15.7563 38.894C16.057 38.771 16.7266 38.648 17.1639 38.2517C18.9404 36.6665 20.6759 35.0403 22.3568 33.3595C23.3954 32.3209 23.2997 30.599 22.2885 29.5331C21.2772 28.4672 19.5554 28.3032 18.4758 29.2735C16.7129 30.845 14.9911 32.4712 13.3239 34.1384C12.4766 34.9857 12.3536 36.0926 12.8456 37.1995C13.3512 38.2927 14.2395 38.8257 15.7563 38.894ZM26.1011 49.8947C26.4291 49.7444 27.0987 49.6214 27.536 49.2251C29.2989 47.6536 31.0207 46.0411 32.6879 44.3739C33.7265 43.3353 33.6445 41.6271 32.6332 40.5475C31.6357 39.4953 29.9275 39.304 28.8616 40.2469C27.0851 41.8321 25.3495 43.4583 23.6687 45.1391C22.8214 45.9864 22.7121 47.0933 23.2177 48.2002C23.7233 49.2935 24.6253 49.7991 26.1011 49.8947ZM17.8608 25.7205C17.8198 24.8322 17.2869 23.9439 16.2073 23.452C15.1004 22.9464 14.0345 23.1103 13.1462 23.9166C11.5064 25.4061 9.9075 26.9367 8.30863 28.4809C7.16073 29.5878 7.11973 31.337 8.17198 32.4712C9.25155 33.6328 11.0007 33.7148 12.2033 32.6215C13.8158 31.132 15.4147 29.6151 16.9999 28.0983C17.5739 27.538 17.8745 26.8547 17.8608 25.7205ZM20.9219 44.3875C21.2362 44.2509 21.9331 44.1142 22.3841 43.7043C24.106 42.1737 25.7868 40.5885 27.413 38.976C28.4789 37.9238 28.4243 36.2019 27.3994 35.1087C26.3608 34.0017 24.6389 33.8651 23.5047 34.89C21.8102 36.4206 20.143 37.9921 18.5304 39.6046C17.6695 40.4519 17.5192 41.5451 18.0111 42.652C18.4894 43.7726 19.405 44.3055 20.9219 44.3875Z" fill="white"/>
</svg>
