<svg viewBox="0 0 65 65" fill="none" xmlns="http://www.w3.org/2000/svg">
<path d="M34.9777 27.3883C34.9402 26.1258 34.9902 24.9508 35.9152 24.0258C36.8277 23.1133 37.9777 23.0008 39.1652 23.0883C39.1777 22.2258 38.4402 21.4258 37.5652 21.2758C37.3527 21.2383 37.1152 21.2383 36.9027 21.2383C33.1527 21.2383 29.3902 21.2383 25.6402 21.2383C24.0277 21.2383 23.2277 22.0508 23.2277 23.6883C23.2277 33.6008 23.2277 43.5008 23.2277 53.4133C23.2277 55.9883 21.7402 57.9633 19.3902 58.5758C16.2902 59.3883 13.1652 57.0633 13.1027 53.8633C13.0527 51.8008 13.0777 49.7383 13.1027 47.6758C13.1027 47.3633 13.2527 47.0508 13.3402 46.6633C13.1027 46.4758 12.7902 46.2508 12.4902 46.0133C11.8402 45.4758 11.8402 44.7508 12.4902 44.2133C12.7902 43.9758 13.1027 43.7383 13.4527 43.4758C13.0902 43.2008 12.7777 42.9758 12.4902 42.7258C11.8652 42.2008 11.8652 41.4883 12.4777 40.9633C12.7902 40.7008 13.1152 40.4633 13.4402 40.2133C11.6277 38.9508 11.4152 38.3883 13.4402 36.9383C13.1277 36.7008 12.8152 36.4633 12.5277 36.2258C11.8527 35.6758 11.8527 34.9383 12.5277 34.3883C12.8152 34.1633 13.1152 33.9383 13.4527 33.6883C13.2527 33.5258 13.1027 33.3883 12.9402 33.2883C11.7652 32.5508 11.6527 31.6383 12.9652 30.8008C13.1152 30.7008 13.2527 30.5758 13.4652 30.4133C13.1402 30.1633 12.8527 29.9508 12.5777 29.7258C11.8652 29.1508 11.8277 28.3883 12.5652 27.8758C13.0277 27.5508 13.1402 27.1883 13.1277 26.6633C13.1152 22.5883 13.1152 18.5258 13.1152 14.4508C13.1152 12.4008 14.2777 11.2383 16.3277 11.2258C17.1777 11.2258 18.0277 11.2258 18.8902 11.2258C18.9152 11.0008 18.9152 10.8383 18.9402 10.6758C19.0402 10.1633 19.5027 9.78834 20.0152 9.80084C20.5402 9.81334 21.0152 10.2008 21.0402 10.7258C21.0777 11.7633 21.0777 12.8133 21.0402 13.8508C21.0277 14.3758 20.5527 14.7633 20.0277 14.7883C19.5277 14.8133 19.0402 14.4383 18.9402 13.9258C18.9027 13.7633 18.9152 13.6008 18.8902 13.3758C17.9027 13.3758 16.9277 13.3383 15.9402 13.3883C15.4402 13.4133 15.2402 13.8133 15.2402 14.3008C15.2402 15.5883 15.2402 16.8633 15.2402 18.1508C15.2402 21.2758 15.2527 24.4008 15.2277 27.5258C15.2277 27.9508 15.1152 28.3758 15.0402 28.8758C16.7652 30.4508 16.7652 30.4508 14.9152 32.0508C15.2152 32.2883 15.5277 32.5133 15.8152 32.7508C16.4902 33.3008 16.4902 34.0258 15.8152 34.5883C15.5277 34.8258 15.2277 35.0383 14.9152 35.2758C15.3777 35.8508 16.3027 36.0258 16.3152 36.9258C16.3152 37.8133 15.4527 38.0133 14.9277 38.5758C15.2277 38.8133 15.5277 39.0383 15.8152 39.2758C16.4902 39.8383 16.4902 40.5633 15.8152 41.1133C15.5277 41.3508 15.2277 41.5633 14.8902 41.8258C15.1902 42.0508 15.4527 42.2508 15.7027 42.4508C16.5277 43.1008 16.5402 43.8258 15.7152 44.4633C15.4527 44.6633 15.1902 44.8633 14.8777 45.1008C15.2152 45.3633 15.5277 45.5883 15.8277 45.8383C16.4777 46.3758 16.5152 47.1383 15.8277 47.6258C15.3152 47.9883 15.2152 48.4008 15.2277 48.9758C15.2652 50.5508 15.2277 52.1383 15.2527 53.7133C15.2777 55.1883 16.3777 56.3883 17.8152 56.5508C19.2902 56.7133 20.6277 55.8258 20.9777 54.4133C21.0777 54.0258 21.0777 53.6008 21.0777 53.2008C21.0777 43.3883 21.0902 33.5758 21.0777 23.7508C21.0777 22.2508 21.5277 20.9758 22.7152 20.0133C23.5152 19.3758 24.4402 19.0758 25.4527 19.0758C29.3402 19.0758 33.2277 19.0758 37.1027 19.0758C38.9277 19.0758 41.0527 20.2008 41.4777 23.0883C42.6902 23.0383 43.8902 23.0758 44.8277 24.0133C45.7527 24.9383 45.8527 26.1133 45.7652 27.4008C46.7402 27.4008 47.6652 27.3883 48.5902 27.4008C50.7527 27.4508 52.6902 28.8633 53.0527 30.9883C53.3152 32.5258 53.2402 34.1383 53.1152 35.6883C53.0652 36.2633 52.4402 36.7883 52.1152 37.3508C51.9277 37.6758 51.6652 38.0258 51.6527 38.3633C51.6152 41.4883 51.6152 44.6133 51.6527 47.7383C51.6527 48.0758 51.8652 48.5008 52.1152 48.7383C52.8652 49.4508 53.2777 50.2758 53.2527 51.3008C53.2402 52.4508 53.3027 53.6133 53.1527 54.7508C52.8527 57.0258 50.9152 58.7258 48.6152 58.7383C43.1277 58.7758 37.6527 58.7883 32.1652 58.7383C29.5902 58.7133 27.6652 56.6758 27.5527 54.0258C27.5152 53.0758 27.5277 52.1258 27.5527 51.1758C27.5652 50.2008 27.9652 49.4008 28.7152 48.7383C28.9527 48.5258 29.1527 48.1133 29.1652 47.7883C29.2027 44.6508 29.2027 41.5008 29.1652 38.3633C29.1652 38.0383 28.9652 37.6258 28.7277 37.4133C27.9152 36.6883 27.5402 35.8133 27.5527 34.7508C27.5652 33.7508 27.5152 32.7383 27.6027 31.7383C27.8152 29.2508 29.7902 27.4508 32.2902 27.4008C33.1277 27.3633 34.0152 27.3883 34.9777 27.3883ZM40.4027 29.5258C37.7027 29.5258 35.0152 29.5133 32.3152 29.5258C30.8152 29.5383 29.7152 30.6258 29.6777 32.1258C29.6652 33.0383 29.6402 33.9508 29.6902 34.8508C29.7027 35.1383 29.8402 35.4883 30.0527 35.6633C30.9277 36.4008 31.2902 37.3258 31.2777 38.4633C31.2527 41.5258 31.2527 44.6008 31.2777 47.6633C31.2902 48.7633 30.9152 49.6383 30.0902 50.3758C29.8652 50.5758 29.7152 50.9633 29.6902 51.2883C29.6277 52.0633 29.6652 52.8508 29.6777 53.6258C29.6777 55.5508 30.7027 56.5758 32.6402 56.5758C34.7902 56.5758 36.9527 56.5758 39.1027 56.5758C42.1277 56.5758 45.1652 56.5883 48.1902 56.5758C50.0027 56.5633 51.0527 55.5008 51.0652 53.6883C51.0652 52.9133 51.1152 52.1258 51.0402 51.3508C51.0152 51.0008 50.8402 50.5758 50.5902 50.3508C49.8152 49.6383 49.4402 48.7883 49.4402 47.7383C49.4527 44.6133 49.4527 41.4883 49.4402 38.3758C49.4402 37.3258 49.8027 36.4758 50.5902 35.7633C50.8402 35.5258 51.0277 35.1133 51.0527 34.7633C51.1152 33.9383 51.0902 33.0883 51.0652 32.2508C51.0277 30.5883 49.9277 29.5258 48.2527 29.5258C45.6402 29.5258 43.0152 29.5258 40.4027 29.5258ZM37.1652 27.3258C39.3277 27.3258 41.4402 27.3258 43.5777 27.3258C43.5777 26.9008 43.6152 26.5383 43.5652 26.1633C43.5027 25.6383 43.2027 25.2633 42.6777 25.2508C41.1402 25.2133 39.6027 25.2258 38.0652 25.2508C37.5652 25.2633 37.2402 25.5883 37.1777 26.0883C37.1277 26.5008 37.1652 26.9008 37.1652 27.3258Z" fill="white"/>
<path d="M33.8026 14.8884C34.4026 14.8884 34.8651 15.3384 34.8651 15.9384C34.8776 16.5259 34.4026 17.0134 33.8276 17.0259C33.2401 17.0384 32.7151 16.5259 32.7276 15.9384C32.7401 15.3509 33.2151 14.8884 33.8026 14.8884Z" fill="white"/>
<path d="M39.3777 12.3009C39.3902 11.7009 39.8652 11.2384 40.4402 11.2384C41.0152 11.2509 41.5027 11.7384 41.5152 12.3009C41.5152 12.9009 41.0152 13.3884 40.4027 13.3759C39.8027 13.3759 39.3652 12.9134 39.3777 12.3009Z" fill="white"/>
<path d="M38.9777 8.1009C38.9652 8.6884 38.5027 9.1509 37.9027 9.1384C37.3152 9.1259 36.8402 8.6634 36.8402 8.0759C36.8402 7.4759 37.3527 6.9759 37.9527 7.0009C38.5402 7.0259 38.9902 7.5134 38.9777 8.1009Z" fill="white"/>
<path d="M34.8776 8.72592C34.8651 9.31342 34.3901 9.77592 33.8026 9.77592C33.2276 9.76342 32.7401 9.27592 32.7401 8.70092C32.7401 8.10092 33.2401 7.62592 33.8526 7.63842C34.4401 7.65092 34.8901 8.12592 34.8776 8.72592Z" fill="white"/>
<path d="M29.6901 10.3884C29.1026 10.3884 28.6401 9.91337 28.6401 9.31337C28.6401 8.72587 29.1151 8.25087 29.6901 8.23837C30.2776 8.22587 30.7901 8.76337 30.7776 9.35087C30.7651 9.92587 30.2776 10.4009 29.6901 10.3884Z" fill="white"/>
<path d="M24.5526 9.96344C24.5401 9.36344 24.9901 8.90094 25.5776 8.88844C26.1776 8.87594 26.6526 9.31345 26.6776 9.91345C26.7026 10.5259 26.2151 11.0259 25.6151 11.0259C25.0151 11.0134 24.5526 10.5509 24.5526 9.96344Z" fill="white"/>
<path d="M38.9776 16.5509C38.9776 17.1509 38.5276 17.6134 37.9401 17.6259C37.3526 17.6384 36.8651 17.1884 36.8401 16.6009C36.8151 16.0009 37.3151 15.4759 37.9151 15.4884C38.5026 15.5009 38.9651 15.9634 38.9776 16.5509Z" fill="white"/>
<path d="M37.2652 12.3509C37.2527 12.9259 36.7527 13.4009 36.1777 13.3884C35.5527 13.3759 35.1027 12.8884 35.1277 12.2634C35.1527 11.6759 35.6527 11.2134 36.2277 11.2384C36.8027 11.2759 37.2902 11.7884 37.2652 12.3509Z" fill="white"/>
<path d="M26.6777 14.7009C26.6902 15.2759 26.2027 15.7759 25.6277 15.7884C25.0527 15.8009 24.5527 15.3259 24.5402 14.7509C24.5277 14.1259 24.9777 13.6509 25.6027 13.6509C26.2027 13.6509 26.6777 14.1134 26.6777 14.7009Z" fill="white"/>
<path d="M29.7276 16.3884C29.1276 16.3884 28.6526 15.9509 28.6401 15.3509C28.6276 14.7384 29.1151 14.2384 29.7151 14.2384C30.2776 14.2384 30.7776 14.7509 30.7776 15.3134C30.7901 15.9009 30.3151 16.3884 29.7276 16.3884Z" fill="white"/>
<path d="M31.9277 11.2508C32.4902 11.2383 33.0027 11.7383 33.0152 12.3008C33.0277 12.8633 32.5527 13.3758 31.9777 13.4008C31.3652 13.4258 30.8652 12.9508 30.8777 12.3383C30.8777 11.7383 31.3527 11.2508 31.9277 11.2508Z" fill="white"/>
<path d="M44.6902 11.2634C45.2777 11.2634 45.7527 11.7384 45.7527 12.3259C45.7527 12.9259 45.2527 13.4134 44.6527 13.4009C44.0652 13.3884 43.6277 12.9134 43.6277 12.3134C43.6277 11.7134 44.0902 11.2509 44.6902 11.2634Z" fill="white"/>
<path d="M43.9777 48.7634C44.0777 48.9009 44.1652 49.0009 44.2402 49.1009C44.6152 49.6259 44.5652 50.2259 44.1277 50.6009C43.6777 50.9884 43.0152 50.9384 42.5902 50.4509C42.1902 50.0134 41.8527 49.5134 41.4652 49.0634C41.3152 48.8884 41.0902 48.7634 40.8527 48.5759C40.6527 48.9884 40.5277 49.3134 40.3527 49.6134C40.0652 50.1259 39.4777 50.3134 38.9652 50.0759C38.4777 49.8509 38.1402 49.2509 38.4277 48.7759C39.0402 47.8009 38.6152 47.2384 37.8402 46.7134C37.7777 46.6759 37.7277 46.6134 37.6777 46.5759C36.6277 47.0384 36.2152 47.0259 35.8277 46.5134C35.4402 45.9884 35.5527 45.5509 36.3027 44.7259C36.2152 44.5384 36.1152 44.3384 36.0152 44.1384C35.6027 43.2884 35.6027 43.2884 34.6277 43.3634C33.9027 43.4259 33.4527 43.1384 33.3277 42.5259C33.1902 41.8634 33.6402 41.3259 34.4277 41.2259C35.4652 41.0884 35.4902 41.0259 34.8527 40.1634C34.5652 39.7759 34.2902 39.3759 34.0402 38.9634C33.6652 38.3384 33.7777 37.7384 34.3027 37.4009C34.8402 37.0509 35.4027 37.2009 35.8402 37.7884C35.9027 37.8759 35.9777 37.9509 36.0402 38.0384C36.6402 37.6509 36.9152 37.1759 36.7527 36.4634C36.6527 35.9634 36.7402 35.4509 37.2277 35.1259C37.8777 34.7009 38.7152 35.0634 38.8527 35.8384C38.9152 36.2259 38.9152 36.6134 38.9402 37.0384C39.2152 37.1384 39.4777 37.2384 39.7902 37.3509C39.8777 37.1759 39.9652 37.0134 40.0527 36.8634C40.3527 36.3759 40.9152 36.2134 41.4152 36.4384C41.9027 36.6634 42.2527 37.2634 41.9652 37.7259C41.4402 38.5884 41.7777 39.1509 42.4277 39.6884C42.5277 39.7759 42.6027 39.8759 42.6902 39.9634C43.6902 39.5009 44.2027 39.5384 44.5652 40.1009C44.9027 40.6259 44.7527 41.1259 44.0527 41.7634C44.2902 42.1884 44.5277 42.6259 44.7902 43.0384C44.8527 43.1384 45.0277 43.1884 45.1527 43.2009C45.3777 43.2009 45.5902 43.1509 45.8152 43.1259C46.4652 43.0634 46.9902 43.4509 47.0652 44.0384C47.1402 44.6134 46.7777 45.1009 46.1527 45.2384C46.0277 45.2634 45.9027 45.3009 45.7777 45.3259C45.6527 46.2259 45.6527 46.2259 46.4777 46.5134C47.2277 46.7759 47.5652 47.3259 47.3527 47.9384C47.1402 48.5634 46.5527 48.8009 45.7902 48.5634C44.8277 48.2759 44.8277 48.2759 43.9777 48.7634ZM42.5027 46.7884C43.5152 46.8134 43.8152 46.4509 43.5402 45.5134C43.4277 45.1259 43.2652 44.7509 43.0777 44.3884C42.1152 42.5134 40.8777 40.8509 39.2152 39.5634C38.2652 38.8259 37.8152 39.0509 37.4902 40.1884C36.7902 42.6884 39.6902 46.5134 42.0527 46.7384C42.2152 46.7384 42.3902 46.7634 42.5027 46.7884Z" fill="white"/>
</svg>
