<svg width="56" height="57" viewBox="0 0 56 57" fill="none" xmlns="http://www.w3.org/2000/svg">
<path d="M40.3122 32.6702C40.655 32.204 40.9292 31.5321 41.4229 31.2989C41.944 31.0521 42.657 31.2441 43.3564 31.2441C43.3564 30.9287 43.3564 30.7093 43.3564 30.4899C43.3564 25.8962 43.3564 21.3025 43.3564 16.7088C43.3564 15.6255 43.6032 15.3787 44.6728 15.3787C46.3046 15.3787 47.9363 15.3787 49.5681 15.3787C50.5143 15.3787 50.8023 15.6803 50.8023 16.6265C50.8023 22.0841 50.8023 27.5417 50.8023 32.9856C50.8023 33.3421 50.8846 33.5889 51.1725 33.8495C51.9267 34.5214 52.6123 35.2619 53.3391 35.9749C53.6956 36.3177 53.7916 36.7428 53.5311 37.1542C52.9551 38.0592 53.0648 38.882 53.4899 39.8556C53.8465 40.6509 54.2578 41.1171 55.0806 41.3503C55.9033 41.5971 55.9993 41.8028 55.9993 42.6667C55.9993 43.5443 55.9856 44.4356 55.9993 45.3132C56.013 45.8754 55.8074 46.2868 55.2451 46.4102C54.2716 46.6433 53.7779 47.2192 53.3939 48.1654C53.0374 49.0567 52.9826 49.7561 53.4762 50.5514C53.7916 51.0588 53.6819 51.5387 53.2294 51.9638C52.5575 52.5946 51.913 53.2528 51.2822 53.911C50.8846 54.3223 50.4457 54.4458 49.9658 54.1578C49.1156 53.623 48.3614 53.7053 47.429 54.1029C46.5788 54.4732 46.0577 54.8983 45.8109 55.7896C45.6052 56.5301 45.3447 56.6535 44.5768 56.6535C43.658 56.6535 42.7393 56.6535 41.8205 56.6535C41.2995 56.6535 40.9155 56.4478 40.8058 55.9404C40.5727 54.912 39.9556 54.4183 38.9683 54.0207C38.1319 53.6916 37.5011 53.6504 36.7332 54.0755C35.979 54.4869 35.7733 54.4046 35.1562 53.7876C34.5392 53.1705 33.9221 52.526 33.2776 51.9226C32.8662 51.525 32.7977 51.0999 33.0445 50.6062C33.1816 50.332 33.2913 50.0852 33.0308 49.7972C32.9211 49.6875 32.9211 49.4544 32.9074 49.2624C32.8937 48.9059 32.9074 48.5494 32.8937 48.1928C32.8937 47.1095 32.8114 46.9998 31.7967 46.6159C31.5635 46.5336 31.2893 46.4925 31.1247 46.3416C30.8916 46.1085 30.6037 45.8068 30.59 45.5052C30.5214 44.463 30.5625 43.4071 30.5625 42.3513C30.5625 41.9262 30.7682 41.6382 31.1385 41.4737C31.3579 41.3777 31.591 41.2954 31.8241 41.2131C32.7977 40.8429 32.8937 40.7058 32.8937 39.6636C32.8937 35.7418 32.8937 31.8337 32.8937 27.9119C32.8937 25.9099 32.8937 23.8942 32.8937 21.8921C32.8937 20.9871 33.1679 20.7266 34.0729 20.7266C35.7733 20.7266 37.4874 20.7266 39.1877 20.7266C40.0379 20.7266 40.3396 21.0282 40.3396 21.8784C40.3396 25.3066 40.3396 28.7347 40.3396 32.1628C40.3122 32.3685 40.3122 32.5605 40.3122 32.6702ZM42.1908 54.8434C42.5336 54.8434 42.7804 54.8434 43.0273 54.8434C44.234 54.8434 44.234 54.8434 44.659 53.7327C44.8236 53.3076 45.0704 53.0196 45.5229 52.8551C46.3594 52.5534 47.1684 52.1558 48.0049 51.8541C48.3066 51.7444 48.6905 51.7444 49.0196 51.7992C49.3076 51.8404 49.5819 52.0049 49.8424 52.1558C50.1578 52.334 50.3909 52.3203 50.6103 52.0186C50.7063 51.8815 50.8434 51.7718 50.9668 51.6621C51.6662 50.9628 51.6936 50.9491 51.2411 50.0303C50.9668 49.4544 50.9668 48.9607 51.2959 48.3985C51.6387 47.8089 51.913 47.1507 52.0913 46.4925C52.2695 45.8343 52.5986 45.464 53.2294 45.2583C54.1619 44.9429 54.1481 44.9155 54.1481 43.8871C54.1481 42.9272 54.1619 42.8998 53.2705 42.6118C52.6123 42.3924 52.2558 42.0359 52.0913 41.3503C51.9404 40.7469 51.6936 40.1298 51.3645 39.595C50.9668 38.9506 50.8708 38.3472 51.2959 37.7164C51.6936 37.1268 51.6113 36.6606 51.0217 36.2766C51.008 36.2629 50.9943 36.2492 50.9805 36.2355C50.2812 35.5361 50.2538 35.495 49.3625 35.9338C48.7591 36.2355 48.2517 36.2218 47.6758 35.8515C47.2919 35.6047 46.8531 35.3716 46.4005 35.2756C45.2761 35.0562 44.5493 34.4803 44.3162 33.3284C44.2888 33.205 44.0694 33.0404 43.9323 33.0404C43.3701 33.013 42.8079 33.0267 42.2456 33.0267C42.1085 33.3695 41.9577 33.6712 41.8754 34.0003C41.6971 34.6037 41.3269 34.9328 40.7098 35.0699C40.2025 35.1933 39.6677 35.3442 39.2563 35.6321C38.3376 36.2766 37.4737 36.2766 36.5549 35.687C36.3081 35.5361 36.1161 35.5498 35.9241 35.7967C35.8007 35.9612 35.6362 36.0846 35.4853 36.2355C34.7997 36.9211 34.7723 36.9348 35.2111 37.8124C35.4991 38.4158 35.4991 38.9094 35.1562 39.4991C34.8134 40.0887 34.5392 40.7469 34.3609 41.4051C34.1826 42.0359 33.8673 42.4061 33.2502 42.6118C32.2903 42.9409 32.304 42.9683 32.304 43.9556C32.304 44.9292 32.304 44.9429 33.2091 45.272C33.7301 45.464 34.1141 45.6971 34.3061 46.2731C34.5666 47.0821 34.978 47.85 35.2659 48.6591C35.3894 49.0019 35.4305 49.4407 35.3208 49.7698C34.8683 51.0039 34.8546 50.9765 35.7322 51.9089C36.075 52.2655 36.3629 52.3752 36.788 52.1009C37.5559 51.5935 38.3238 51.5935 39.0643 52.1695C39.2426 52.3066 39.462 52.4026 39.6677 52.4574C41.0115 52.7454 42.1222 53.2528 42.1908 54.8434ZM45.1801 17.2024C45.1664 17.3258 45.139 17.3944 45.139 17.463C45.139 21.947 45.139 26.4173 45.139 30.9013C45.139 31.0247 45.1664 31.1618 45.2213 31.2715C45.5092 31.8063 45.7835 32.3411 46.0989 32.8485C46.2497 33.0816 46.4554 33.301 46.6885 33.4244C47.1684 33.6712 47.6895 33.8358 48.1832 34.0552C48.8551 34.3568 48.9648 34.302 48.9648 33.5752C48.9648 28.3096 48.9648 23.044 48.9648 17.7784C48.9648 17.6001 48.9511 17.4081 48.9374 17.2024C47.6895 17.2024 46.4691 17.2024 45.1801 17.2024ZM34.7037 22.5503C34.7037 26.527 34.7037 30.4213 34.7037 34.3706C34.7997 34.3294 34.8546 34.3157 34.882 34.2883C35.5128 33.4107 36.2807 33.4107 37.1309 33.9455C37.2268 34.0003 37.3365 34.0415 37.4325 34.0826C38.1456 34.398 38.5021 34.1649 38.5021 33.4107C38.5021 29.9825 38.5021 26.5544 38.5021 23.1263C38.5021 22.948 38.5021 22.7697 38.5021 22.564C37.1994 22.5503 35.9653 22.5503 34.7037 22.5503Z" fill="white"/>
<path d="M22.3762 38.1277C22.3762 34.5487 22.3762 30.9697 22.3762 27.3907C22.3762 26.28 22.6093 26.0469 23.7338 26.0332C25.3656 26.0332 26.9974 26.0332 28.6292 26.0332C29.5205 26.0332 29.8359 26.3349 29.8359 27.1988C29.8359 34.4939 29.8359 41.7752 29.8359 49.0703C29.8359 49.9479 29.5342 50.2359 28.6429 50.2496C26.9425 50.2496 25.2284 50.2496 23.5281 50.2496C22.6779 50.2496 22.3899 49.9616 22.3899 49.0977C22.3762 45.4502 22.3762 41.7889 22.3762 38.1277ZM24.2137 27.8707C24.2137 34.7407 24.2137 41.5695 24.2137 48.4121C25.489 48.4121 26.7368 48.4121 27.9984 48.4121C27.9984 41.5421 27.9984 34.7133 27.9984 27.8707C26.7231 27.8707 25.5027 27.8707 24.2137 27.8707Z" fill="white"/>
<path d="M36.8567 11.9505C36.171 11.9779 35.65 12.0054 35.1289 12.0328C34.4433 12.0602 34.0456 11.7585 34.0182 11.21C33.9907 10.6615 34.3061 10.2913 34.9506 10.2501C36.4042 10.1542 37.8714 10.0719 39.3249 10.0033C39.9831 9.97589 40.3808 10.4558 40.2848 11.1003C40.0791 12.5264 39.8734 13.9525 39.654 15.3786C39.558 15.982 39.1604 16.3248 38.6256 16.2425C38.1045 16.174 37.7891 15.7215 37.8714 15.1181C37.94 14.5422 38.0359 13.98 38.1456 13.2395C37.5697 13.7331 37.1172 14.1308 36.651 14.5285C27.8749 21.9607 18.0979 27.6925 7.45693 31.9846C5.75657 32.6702 4.02879 33.2872 2.31472 33.9317C1.58795 34.206 1.10801 34.0414 0.902324 33.4929C0.696636 32.9581 0.970887 32.4919 1.69765 32.2451C7.56663 30.1745 13.2573 27.6788 18.7149 24.6758C25.0227 21.2065 30.9191 17.1476 36.363 12.4167C36.4727 12.307 36.5961 12.1836 36.8567 11.9505Z" fill="white"/>
<path d="M19.3456 41.1444C19.3456 43.7498 19.3456 46.3552 19.3456 48.9606C19.3456 50.0027 19.0988 50.2495 18.0429 50.2495C16.37 50.2495 14.7108 50.2495 13.0378 50.2495C12.1877 50.2495 11.886 49.9479 11.886 49.0977C11.886 43.7772 11.886 38.443 11.886 33.1226C11.886 32.2724 12.1877 31.9844 13.0516 31.9707C14.7793 31.9707 16.5071 31.9707 18.2212 31.9707C19.0302 31.9707 19.3319 32.2724 19.3319 33.0951C19.3456 35.7828 19.3456 38.4705 19.3456 41.1444ZM13.7098 48.4121C15.0124 48.4121 16.2466 48.4121 17.5081 48.4121C17.5081 43.5167 17.5081 38.6761 17.5081 33.8219C16.2329 33.8219 14.985 33.8219 13.7098 33.8219C13.7098 38.7036 13.7098 43.5304 13.7098 48.4121Z" fill="white"/>
<path d="M50.0346 12.7183C49.9111 12.6635 49.6369 12.5812 49.4038 12.4303C48.7319 12.019 48.0737 11.5939 47.4292 11.1414C47.1549 10.9494 46.9492 10.9631 46.6887 11.1551C46.0442 11.6076 45.3723 12.019 44.7141 12.4441C44.2341 12.7732 43.7405 12.8417 43.2606 12.4715C42.808 12.1287 42.7258 11.6624 42.8903 11.1139C43.1097 10.3597 43.2743 9.59184 43.5074 8.83765C43.6034 8.52226 43.5622 8.33028 43.288 8.12459C42.6435 7.63094 42.0401 7.10986 41.3956 6.61621C40.9706 6.28711 40.7649 5.86202 40.9157 5.34094C41.0803 4.79244 41.4916 4.5319 42.0538 4.50448C42.8766 4.46334 43.6994 4.40849 44.5221 4.38106C44.8375 4.36735 44.9883 4.25765 45.0843 3.96969C45.3449 3.2155 45.6602 2.4613 45.9345 1.70711C46.1265 1.18604 46.483 0.856934 47.0589 0.856934C47.6349 0.856934 47.9914 1.19975 48.1834 1.72083C48.4576 2.43388 48.7456 3.14693 48.9787 3.8737C49.1021 4.25765 49.3215 4.39478 49.7055 4.39478C50.4322 4.40849 51.159 4.44963 51.8995 4.49076C52.6674 4.54561 53.0239 4.79244 53.1884 5.35466C53.3667 5.95801 53.065 6.35567 52.6262 6.7122C52.0503 7.16471 51.5018 7.64465 50.9122 8.06974C50.5968 8.30286 50.5008 8.52226 50.6242 8.91992C50.871 9.70154 51.0767 10.4969 51.2687 11.3059C51.4469 12.0464 50.9122 12.7046 50.0346 12.7183ZM45.0295 10.0718C45.5094 9.75639 45.8934 9.52327 46.2636 9.26274C46.8121 8.87878 47.3332 8.8925 47.868 9.27645C48.2245 9.52327 48.5947 9.75639 49.061 10.0581C48.9238 9.50956 48.8416 9.09818 48.7044 8.71423C48.4713 8.01489 48.6633 7.4801 49.2667 7.05501C49.5958 6.8219 49.8974 6.54765 50.3088 6.20483C49.7055 6.1637 49.2529 6.12256 48.8141 6.12256C48.1971 6.10885 47.7994 5.82088 47.5937 5.24495C47.4429 4.80615 47.2646 4.39478 47.0452 3.84627C46.8258 4.39478 46.6613 4.81986 46.4967 5.25867C46.291 5.83459 45.8797 6.12256 45.2626 6.13627C44.8238 6.14998 44.385 6.19112 43.7816 6.21855C44.2479 6.6025 44.6044 6.89046 44.9609 7.17843C45.4134 7.54866 45.578 8.00118 45.3997 8.57711C45.29 9.02962 45.194 9.48214 45.0295 10.0718Z" fill="white"/>
<path d="M8.85559 44.0241C8.85559 45.7107 8.85559 47.3974 8.85559 49.084C8.85559 49.9891 8.58134 50.2496 7.67631 50.2633C5.97595 50.2633 4.26188 50.2633 2.56152 50.2633C1.71134 50.2633 1.40967 49.9616 1.40967 49.1115C1.40967 45.6833 1.40967 42.2552 1.40967 38.827C1.40967 37.9494 1.72506 37.6477 2.60266 37.634C4.28931 37.634 5.97595 37.634 7.6626 37.634C8.56763 37.634 8.85559 37.922 8.85559 38.8545C8.85559 40.5822 8.85559 42.2963 8.85559 44.0241ZM7.01811 39.4715C5.74284 39.4715 4.50871 39.4715 3.23344 39.4715C3.23344 42.4609 3.23344 45.4365 3.23344 48.4258C4.50871 48.4258 5.74284 48.4258 7.01811 48.4258C7.01811 45.4228 7.01811 42.4609 7.01811 39.4715Z" fill="white"/>
<path d="M36.7744 43.9967C36.6921 40.4863 39.5718 37.5244 43.1782 37.4421C46.6886 37.3599 49.6642 40.2669 49.7328 43.8459C49.8014 47.37 46.908 50.3319 43.329 50.4005C39.7912 50.4691 36.8567 47.6031 36.7744 43.9967ZM43.1782 48.5905C45.7424 48.6453 47.8816 46.561 47.9227 43.9693C47.9639 41.4188 45.8521 39.2659 43.2742 39.2385C40.7374 39.2111 38.6393 41.2542 38.5571 43.8459C38.4885 46.3827 40.5865 48.5356 43.1782 48.5905Z" fill="white"/>
</svg>
