<svg width="42" height="42" viewBox="0 0 42 42" fill="none" xmlns="http://www.w3.org/2000/svg">
<path d="M40.9231 34.0743L8.00765 1.15868C6.57211 -0.276853 4.24471 -0.276853 2.81135 1.15868L1.07665 2.89074C-0.358884 4.32674 -0.358884 6.65415 1.07665 8.08739L33.9921 41.003C35.4281 42.4385 37.7555 42.4385 39.1888 41.003L40.9208 39.2709C42.3591 37.8377 42.3591 35.5098 40.9231 34.0743Z" fill="#F44336"/>
<path d="M33.9921 1.15932L1.07665 34.0749C-0.358884 35.5104 -0.358884 37.8383 1.07665 39.2715L2.80871 41.0036C4.24471 42.4391 6.57211 42.4391 8.00535 41.0036L40.9231 8.09031C42.3591 6.65478 42.3591 4.32737 40.9231 2.89413L39.1911 1.16207C37.7555 -0.27622 35.4281 -0.27622 33.9921 1.15932Z" fill="#F44336"/>
</svg>
