<svg width="54" height="54" viewBox="0 0 54 54" fill="none" xmlns="http://www.w3.org/2000/svg">
<path d="M0.581527 23.4203C0.984632 22.475 1.70744 22.0858 2.73605 22.1553C3.51446 22.2109 4.29288 22.1553 5.08519 22.1692C5.41879 22.1831 5.58559 22.0997 5.66899 21.7522C6.1694 19.6672 7.00341 17.7073 8.11542 15.8586C8.26833 15.6084 8.25443 15.4416 8.04592 15.233C7.37871 14.5936 6.73931 13.9403 6.086 13.287C5.27979 12.4669 5.27979 11.5356 6.0999 10.7155C7.64282 9.15867 9.18574 7.61575 10.7426 6.07283C11.5627 5.26662 12.494 5.25272 13.3141 6.05893C13.9674 6.69834 14.6207 7.35165 15.2601 8.01886C15.4686 8.24126 15.6215 8.25516 15.8856 8.10226C17.7204 6.99024 19.6804 6.17013 21.7793 5.65583C22.1268 5.57242 22.2102 5.40562 22.1963 5.07202C22.1685 4.16851 22.1824 3.26499 22.1963 2.36148C22.2102 1.26337 22.8913 0.58226 23.9894 0.568359C26.1996 0.568359 28.3958 0.568359 30.6059 0.568359C31.704 0.568359 32.399 1.26337 32.399 2.34758C32.4129 3.26499 32.399 4.18241 32.399 5.11372C32.399 5.35002 32.399 5.53072 32.7187 5.60022C34.9289 6.14233 36.9861 7.03194 38.946 8.18566C38.9738 8.19956 39.0155 8.19956 39.0989 8.22736C39.78 7.53235 40.4889 6.82344 41.2118 6.11453C42.1153 5.21102 43.0188 5.21102 43.9362 6.12843C45.4374 7.62965 46.9386 9.11697 48.4398 10.6182C49.3434 11.5356 49.3434 12.4391 48.4537 13.3426C47.8282 13.9681 47.2166 14.6075 46.5633 15.2191C46.3409 15.4277 46.327 15.5806 46.4799 15.8447C47.5919 17.6795 48.412 19.6394 48.9264 21.7383C49.0098 22.0858 49.1766 22.1692 49.5102 22.1553C50.4137 22.1275 51.3172 22.1414 52.2207 22.1553C53.3188 22.1692 53.9999 22.8503 53.9999 23.9485C53.9999 26.1586 53.9999 28.3548 53.9999 30.565C53.9999 31.677 53.3188 32.3581 52.2207 32.3581C51.3172 32.3581 50.4137 32.372 49.5102 32.3581C49.1766 32.3442 49.0098 32.4276 48.9264 32.7751C48.412 34.8601 47.5919 36.82 46.4799 38.6688C46.327 38.919 46.3409 39.0858 46.5633 39.2943C47.2305 39.9337 47.8699 40.587 48.5232 41.2403C49.3295 42.0604 49.3156 42.9917 48.5093 43.8118C48.1757 44.1454 47.856 44.479 47.5085 44.7987C47.1193 45.1601 46.6745 45.174 46.3548 44.8404C46.0351 44.5207 46.049 44.062 46.4243 43.6867C46.7996 43.3114 47.2166 42.9639 47.6614 42.5608C46.8691 41.7685 46.1602 41.0735 45.4652 40.3785C44.6173 39.5306 44.5339 38.9051 45.1455 37.8625C46.1741 36.125 46.9525 34.2763 47.439 32.3025C47.717 31.2044 48.2591 30.7873 49.4129 30.7873C50.3998 30.7873 51.3867 30.7873 52.4014 30.7873C52.4014 28.4104 52.4014 26.0891 52.4014 23.6844C51.623 23.6844 50.8446 23.6566 50.0662 23.6844C48.1618 23.7678 47.6753 23.3369 47.2583 21.5993C46.8413 19.8618 46.0768 18.2355 45.1733 16.6787C44.5061 15.5528 44.5756 14.9689 45.5069 14.0515C46.188 13.3843 46.8691 12.7032 47.5085 12.0777C45.8127 10.3958 44.1586 8.75556 42.4628 7.05974C41.879 7.64355 41.2257 8.31076 40.5723 8.96407C39.5576 9.97878 39.0294 10.0483 37.7784 9.31157C36.0965 8.32466 34.3034 7.58795 32.399 7.11534C31.3009 6.83734 30.87 6.29523 30.87 5.15542C30.87 4.19631 30.87 3.25109 30.8561 2.29198C30.8561 2.26418 30.8283 2.22248 30.8144 2.16688C28.507 2.16688 26.1857 2.16688 23.7948 2.16688C23.7809 2.31978 23.767 2.48658 23.767 2.65339C23.767 3.5569 23.767 4.46041 23.767 5.36392C23.7531 6.23963 23.3361 6.83734 22.5021 7.04584C20.3476 7.60185 18.3321 8.43586 16.4277 9.57568C15.7049 10.0066 14.996 9.88148 14.3844 9.28377C13.6199 8.53316 12.8832 7.75475 12.1604 7.00414C10.4507 8.71386 8.81043 10.3541 7.08681 12.0777C7.58722 12.5642 8.11542 13.0924 8.67143 13.6206C10.0753 14.9411 10.2422 15.4555 9.18574 17.2069C8.25443 18.7359 7.64282 20.4317 7.19801 22.1692C6.90611 23.3091 6.3779 23.7122 5.19639 23.7122C4.22337 23.7122 3.25036 23.7122 2.23565 23.7122C2.23565 26.0752 2.23565 28.4104 2.23565 30.8152C3.19476 30.8152 4.13997 30.8152 5.08519 30.8152C6.4196 30.8152 6.87831 31.1766 7.21191 32.4693C7.69842 34.3458 8.43513 36.1111 9.42204 37.793C10.1171 38.9746 10.0336 39.5306 9.06064 40.5036C8.42123 41.143 7.78182 41.7824 7.14241 42.4218C7.11461 42.4496 7.11461 42.4774 7.12851 42.4635C8.79653 44.1315 10.4507 45.7856 12.1465 47.4815C12.7859 46.8421 13.4809 46.1332 14.1759 45.4381C15.0238 44.5902 15.6493 44.5068 16.6918 45.1184C18.4572 46.1609 20.3198 46.9394 22.2936 47.4259C23.3361 47.69 23.7531 48.2599 23.767 49.3302C23.767 50.331 23.767 51.3318 23.767 52.3743C26.144 52.3743 28.4514 52.3743 30.8422 52.3743C30.8561 52.2075 30.8561 52.0407 30.87 51.8739C30.87 50.9565 30.8561 50.0252 30.87 49.1078C30.8839 48.3016 31.3148 47.69 32.0932 47.4954C34.2617 46.9394 36.305 46.1054 38.2232 44.9516C38.9182 44.5346 39.6271 44.6458 40.2248 45.2157C40.8782 45.8412 41.5176 46.4807 42.1431 47.134C42.2682 47.273 42.3377 47.4676 42.4906 47.7317C43.0049 47.1757 43.3524 46.7865 43.7138 46.4112C44.0891 46.0359 44.5478 46.008 44.8675 46.3139C45.2289 46.6475 45.215 47.0923 44.8119 47.5093C44.4644 47.8707 44.1169 48.2321 43.7416 48.5796C43.0188 49.2607 42.0875 49.2468 41.3647 48.5518C40.6696 47.8846 40.0024 47.2174 39.3352 46.5224C39.1267 46.3 38.9738 46.3 38.7097 46.4529C36.8749 47.551 34.915 48.385 32.816 48.8993C32.4685 48.9827 32.3851 49.1495 32.399 49.4831C32.4268 50.2615 32.3712 51.0538 32.4129 51.8322C32.4824 52.8608 32.0932 53.5697 31.148 53.9868C28.5765 53.9868 26.005 53.9868 23.4334 53.9868C22.4882 53.5697 22.099 52.8608 22.1685 51.8322C22.2241 51.0538 22.1685 50.2754 22.1824 49.4831C22.1963 49.1495 22.1129 48.9827 21.7654 48.8993C19.6804 48.385 17.7204 47.5649 15.8717 46.4529C15.6215 46.3 15.4547 46.3139 15.2462 46.5363C14.6068 47.2035 13.9535 47.8429 13.3002 48.4962C12.4801 49.3024 11.5488 49.2885 10.7287 48.4823C9.17184 46.9394 7.62892 45.3964 6.086 43.8396C5.26589 43.0056 5.27979 42.0743 6.1138 41.2403C6.75321 40.6009 7.37872 39.9476 8.03202 39.3221C8.25443 39.1136 8.25443 38.9607 8.10152 38.6966C6.98951 36.8617 6.1694 34.9018 5.65509 32.8029C5.57169 32.4554 5.40489 32.372 5.07129 32.3859C4.29288 32.4137 3.50057 32.3581 2.72215 32.3998C1.69354 32.4693 0.984632 32.0801 0.567627 31.1349C0.581527 28.5633 0.581527 25.9918 0.581527 23.4203Z" fill="#202F59"/>
<path d="M10.5063 27.3677C10.5758 26.4781 10.6315 25.7275 10.701 24.9908C10.7566 24.4209 11.0902 24.1012 11.5628 24.1429C12.0632 24.1846 12.3273 24.5877 12.2439 25.2271C11.9937 27.1453 12.091 29.0357 12.5497 30.9123C14.0231 36.931 19.1523 41.5181 25.31 42.2965C33.4972 43.3251 40.9338 37.779 42.2683 29.6195C43.5749 21.5574 38.0148 13.7316 29.9666 12.3416C22.8497 11.1184 16.0942 14.802 13.2586 21.4462C13.1613 21.6686 13.0501 21.891 12.8694 22.0439C12.5914 22.2942 12.2578 22.2803 11.9659 22.0578C11.6323 21.8076 11.535 21.4601 11.7296 21.0848C12.3968 19.8477 12.9389 18.5272 13.7729 17.4152C17.5398 12.4111 22.6273 10.0898 28.8685 10.618C36.4997 11.2574 42.7409 17.2623 43.839 24.8101C45.1595 33.9425 38.8766 42.4077 29.7442 43.7977C20.7925 45.1599 12.2995 39.0022 10.7983 30.0505C10.6315 29.133 10.5897 28.1739 10.5063 27.3677Z" fill="#202F59"/>
<path d="M24.9208 27.1873C26.8668 25.0745 28.785 23.0034 30.7033 20.9183C30.9257 20.682 31.1481 20.4318 31.3844 20.1955C32.7049 18.875 34.7482 18.8333 36.0826 20.0704C37.4309 21.3353 37.556 23.3787 36.305 24.7548C33.9142 27.3958 31.4817 29.9952 29.063 32.6084C28.5487 33.1644 28.0344 33.7343 27.5062 34.2903C26.144 35.6803 24.1146 35.7359 22.6967 34.4015C21.2511 33.0254 19.8055 31.6354 18.3877 30.2315C17.0394 28.897 17.0255 26.8398 18.3182 25.5054C19.6109 24.171 21.6681 24.1293 23.0581 25.4081C23.6837 25.9919 24.2953 26.5757 24.9208 27.1873ZM35.61 22.7671C35.5683 21.9053 35.3181 21.377 34.7621 21.0156C33.9698 20.5013 33.0663 20.6542 32.3296 21.4466C30.1194 23.8235 27.9232 26.2143 25.727 28.6051C25.1571 29.2307 24.7957 29.2446 24.198 28.6746C23.4613 27.9657 22.7384 27.2429 21.9878 26.5479C21.2233 25.839 20.153 25.8668 19.458 26.5896C18.7491 27.3124 18.7491 28.4105 19.4997 29.1611C20.9036 30.5512 22.3353 31.9273 23.7671 33.2895C24.5733 34.054 25.6436 34.0401 26.4081 33.2061C29.3132 30.0786 32.2184 26.9371 35.0957 23.7818C35.3737 23.4621 35.4988 23.0034 35.61 22.7671Z" fill="#202F59"/>
</svg>
