<svg width="43" height="58" viewBox="0 0 43 58" fill="none" xmlns="http://www.w3.org/2000/svg">
<path d="M15.5187 42.7766C15.1699 41.4649 14.835 40.1812 14.4582 38.7858C14.1094 39.023 13.9001 39.1486 13.7047 39.2742C11.3604 40.837 8.98823 42.344 6.30906 43.2511C5.40205 43.558 4.43922 43.7953 3.49034 43.865C1.22979 44.0325 -0.165612 42.5254 0.0157901 40.2509C0.15533 38.5765 0.67163 37.0136 1.46701 35.5624C2.56938 33.5391 3.79733 31.5855 4.99738 29.618C5.19274 29.297 5.22064 29.0738 5.02529 28.7389C2.24844 23.8689 1.66237 18.7478 3.33685 13.3894C3.46244 12.9987 3.40662 12.7057 3.19731 12.3708C1.98331 10.3893 0.866986 8.33807 0.294871 6.06356C0.15533 5.5054 0.057652 4.91933 0.029744 4.34721C-0.0958423 2.17038 1.35538 0.774982 3.57407 0.900568C5.47182 1.0122 7.17421 1.77967 8.84869 2.58901C9.42081 2.86809 9.97897 3.41229 10.5371 3.41229C11.0674 3.41229 11.5837 2.82622 12.1279 2.53319C18.8956 -1.06695 25.5377 -0.829732 32.0263 3.24485C32.3473 3.4402 32.5705 3.46811 32.9054 3.28671C34.6776 2.28202 36.5056 1.36105 38.5289 1.02615C39.1987 0.914522 39.9383 0.886614 40.6081 1.0122C42.2407 1.30524 43.1477 2.7425 42.9803 4.54257C42.8407 6.17519 42.2965 7.68223 41.5709 9.11949C41.0267 10.2219 40.3988 11.2963 39.7708 12.3708C39.5894 12.6778 39.5336 12.9289 39.6452 13.2917C41.3058 18.6501 40.7476 23.7712 37.9708 28.6412C37.7475 29.0319 37.7894 29.2831 38.0266 29.618C39.7011 32.0181 41.25 34.5019 42.2826 37.2648C42.7291 38.4927 43.0919 39.7346 42.9244 41.0742C42.7151 42.7766 41.543 43.8092 39.8127 43.8092C38.3057 43.8092 36.8684 43.4325 35.5567 42.7487C33.4776 41.6743 31.4682 40.4742 29.4309 39.316C29.1937 39.1904 28.9844 39.023 28.7192 38.8416C28.0913 40.0277 27.7843 41.2835 27.6727 42.5813C27.6587 42.6929 27.8122 42.8045 27.8959 42.9162C28.0913 43.2232 28.4402 43.5301 28.4402 43.8511C28.482 47.0047 28.496 50.1723 28.4541 53.3398C28.4122 55.7539 26.3889 57.7074 23.9888 57.7493C22.3422 57.7772 20.6957 57.7772 19.0491 57.7493C16.5932 57.7074 14.5559 55.726 14.514 53.2701C14.4582 50.1444 14.5001 47.0326 14.4861 43.9069C14.4722 43.265 14.821 42.958 15.5187 42.7766ZM18.9375 42.8185C18.9235 42.665 18.9235 42.5534 18.9095 42.4417C18.4351 40.0137 17.9467 37.5718 17.4583 35.1438C17.1374 33.553 16.8304 31.9483 16.5095 30.3575C16.356 29.5901 16.5653 29.1296 17.1095 28.99C17.6956 28.8365 18.0584 29.1435 18.3095 29.6598C18.3793 29.5901 18.4491 29.5482 18.5049 29.4924C19.3282 28.6691 19.8724 28.7389 20.4445 29.7715C20.7794 30.3715 21.1143 30.9715 21.505 31.6692C21.9655 30.8878 22.3562 30.1761 22.7748 29.4924C23.1934 28.7947 23.8493 28.7389 24.4074 29.3249C24.4772 29.4087 24.547 29.4784 24.6307 29.5621C25.1191 28.9203 25.4959 28.7668 25.9703 28.9761C26.4726 29.1854 26.6261 29.604 26.4866 30.3575C25.9563 33.0228 25.44 35.674 24.9237 38.3392C24.6307 39.8184 24.3516 41.2975 24.0586 42.8045C24.6726 42.8045 25.2447 42.8045 25.8028 42.8045C26.0819 39.4416 27.4076 36.6368 29.9053 34.4182C30.5891 33.8181 31.3565 33.3158 32.0822 32.7576C33.3938 31.7529 34.5381 30.5808 35.4869 29.2273C31.3426 23.6596 26.668 18.6641 21.5608 14.0732C18.1839 16.6826 9.19754 26.4783 7.60678 29.2552C8.76497 30.8041 10.1464 32.1018 11.7651 33.1762C14.2489 34.8228 15.9653 37.0555 16.8164 39.916C17.0955 40.851 17.2211 41.8278 17.4165 42.8045C17.8909 42.8185 18.4072 42.8185 18.9375 42.8185ZM36.4777 27.5528C36.5754 27.4272 36.6033 27.3853 36.6312 27.3295C40.5523 20.5199 38.7661 11.0033 32.6682 6.04961C32.3752 5.81239 32.1938 5.8403 31.9147 6.03565C29.9472 7.44501 27.9518 8.8125 25.9982 10.2498C24.9377 11.0312 23.933 11.9243 22.8725 12.8034C27.8959 17.3245 32.4031 22.1944 36.4777 27.5528ZM6.42069 27.4272C8.62543 24.8736 10.7325 22.32 12.9651 19.8781C15.1978 17.4221 17.556 15.0639 19.8584 12.6638C19.8724 12.6638 19.7328 12.5243 19.5933 12.3987C17.0258 10.18 14.3326 8.12876 11.4721 6.30078C10.6348 5.77053 10.6348 5.75657 9.89524 6.45427C5.2346 10.9196 3.47639 16.3337 4.63457 22.6689C4.94156 24.3573 5.5695 25.962 6.42069 27.4272ZM21.491 11.408C24.4772 9.1474 27.5192 6.84499 30.5193 4.55652C25.0912 0.87266 17.263 1.1936 12.4767 4.57048C15.4769 6.84499 18.5049 9.13345 21.491 11.408ZM6.47651 30.8738C4.74621 33.4832 3.05777 35.981 2.16471 38.9114C1.99726 39.4416 1.89959 40.0137 1.87168 40.5579C1.81586 41.5905 2.27634 42.0789 3.28103 42.0231C3.99269 41.9812 4.70435 41.8417 5.37414 41.6184C8.24867 40.6556 10.7883 39.0509 13.2442 37.3206C13.2721 37.3066 13.2721 37.2508 13.3419 37.0834C12.7698 36.5531 12.2116 35.9252 11.5418 35.4368C9.71384 34.1251 7.92773 32.7716 6.47651 30.8738ZM29.5983 37.2927C32.0403 38.9811 34.3706 40.4603 36.98 41.437C37.7475 41.7301 38.5708 41.9394 39.3941 42.0371C40.7895 42.1906 41.2918 41.6184 41.0965 40.223C41.0127 39.6091 40.8872 38.9951 40.6778 38.423C39.715 35.7159 38.2359 33.3018 36.6033 30.9296C36.5056 31.0134 36.4358 31.0552 36.394 31.125C35.1381 32.6879 33.6311 33.9856 31.9984 35.1577C31.1612 35.7577 30.4356 36.5252 29.5983 37.2927ZM23.7795 31.4739C23.7516 31.5018 23.7097 31.5157 23.6958 31.5436C23.2632 32.2971 22.8585 33.0646 22.412 33.8181C21.8957 34.7251 21.0445 34.7112 20.5282 33.8181C20.0956 33.0507 19.6631 32.2692 19.2305 31.4878C18.8258 31.7529 18.6863 32.032 18.784 32.5204C19.4258 35.6042 20.0398 38.702 20.6538 41.7859C20.8771 42.9301 20.8771 42.9301 22.0492 42.8185C22.0771 42.7348 22.1329 42.651 22.1469 42.5673C22.8167 39.1904 23.4725 35.8136 24.1563 32.4367C24.2679 31.9762 24.1423 31.6971 23.7795 31.4739ZM38.6685 10.6823C39.729 8.71483 40.8313 6.77522 41.0965 4.51466C41.25 3.24485 40.7616 2.71459 39.4917 2.79832C37.5103 2.93786 35.8079 3.85882 34.1194 4.73793C34.9846 5.70076 35.8497 6.57986 36.6033 7.55664C37.3428 8.53342 37.9568 9.59393 38.6685 10.6823ZM8.8766 4.73793C8.44403 4.51466 8.03936 4.2914 7.62074 4.09604C6.33697 3.49602 5.0532 2.90995 3.61593 2.79832C2.22053 2.70064 1.74609 3.17508 1.91354 4.55652C2.17866 6.78917 3.28103 8.71483 4.31363 10.6684C5.02529 9.59393 5.63927 8.51947 6.39278 7.55664C7.13235 6.57986 8.01145 5.70076 8.8766 4.73793ZM26.5843 53.1305C23.1934 53.1305 19.7887 53.1305 16.3978 53.1305C16.3978 54.6236 17.5002 55.8376 18.9375 55.8795C20.6259 55.9213 22.3004 55.9213 23.9888 55.8795C25.5098 55.8376 26.5982 54.6515 26.5843 53.1305ZM26.5843 44.7581C23.1516 44.7581 19.7747 44.7581 16.4118 44.7581C16.4118 45.5395 16.4118 46.2791 16.4118 47.0186C19.8305 47.0186 23.1934 47.0186 26.5843 47.0186C26.5843 46.2512 26.5843 45.5256 26.5843 44.7581ZM16.3978 51.1909C19.8305 51.1909 23.2074 51.1909 26.5703 51.1909C26.5703 50.4095 26.5703 49.6699 26.5703 48.9304C23.1516 48.9304 19.7887 48.9304 16.3978 48.9304C16.3978 49.6978 16.3978 50.4234 16.3978 51.1909Z" fill="white"/>
<path d="M24.9935 23.3107C24.9935 25.348 23.347 27.0085 21.3097 27.0225C19.2584 27.0365 17.556 25.362 17.5421 23.3107C17.5281 21.2595 19.2166 19.571 21.2678 19.571C23.333 19.585 24.9935 21.2455 24.9935 23.3107ZM23.1237 23.3107C23.1237 22.2921 22.3144 21.4548 21.2957 21.4409C20.2631 21.4269 19.398 22.2921 19.4119 23.3247C19.4259 24.3294 20.2771 25.1666 21.2818 25.1666C22.2864 25.1666 23.1237 24.3294 23.1237 23.3107Z" fill="white"/>
</svg>
