<svg width="54" height="62" viewBox="0 0 54 62" fill="none" xmlns="http://www.w3.org/2000/svg">
<path d="M27.3938 56.2843C27.0282 56.214 26.747 56.1718 26.4798 56.0874C25.172 55.7077 24.2298 54.5265 24.1313 53.1483C24.1032 52.7405 24.1032 52.3327 24.1173 51.939C24.1454 51.3062 24.1032 50.7858 23.4985 50.3218C23.161 50.0546 22.9923 49.4077 22.9782 48.9155C22.922 46.9749 22.9501 45.0343 22.9501 43.0937C22.036 43.4171 21.1501 43.7124 20.2641 44.0499C20.1516 44.0921 20.0532 44.3312 20.0391 44.4858C19.9688 45.1468 19.9407 45.8218 19.8985 46.4827C19.8001 47.903 18.9563 48.7046 17.5501 48.7187C17.2688 48.7187 16.9876 48.7327 16.7063 48.7187C15.4829 48.6624 14.6673 47.8749 14.5829 46.6655C14.5266 45.9765 14.4704 45.2874 14.4563 44.6124C14.4423 44.2608 14.3298 44.1062 13.9641 43.9796C13.036 43.6562 12.122 43.2483 11.236 42.8405C10.9548 42.714 10.786 42.6858 10.547 42.9109C10.0407 43.3749 9.52039 43.839 9.00008 44.2749C7.94539 45.1608 6.83445 45.1187 5.86414 44.1483C5.6532 43.9374 5.4282 43.7265 5.21726 43.5015C4.44383 42.6718 4.38758 41.589 5.10476 40.689C5.56883 40.1124 6.06102 39.5358 6.58133 38.9874C6.80633 38.7343 6.82039 38.5655 6.67976 38.2562C6.25789 37.3562 5.8782 36.4421 5.5407 35.528C5.4282 35.2046 5.28758 35.078 4.95008 35.064C4.24695 35.0358 3.54383 34.9796 2.82664 34.9233C1.63133 34.8249 0.85789 34.0093 0.815702 32.828C0.731327 30.353 1.27976 29.678 3.76883 29.6218C4.95008 29.5937 5.68133 29.3546 5.89226 28.0608C5.9907 27.4421 6.38445 26.8796 6.69383 26.303C6.84851 26.0218 6.82039 25.839 6.60945 25.614C6.13133 25.0937 5.66726 24.5593 5.21726 24.0108C4.38758 23.0124 4.47195 21.9437 5.32976 20.9593C6.86258 19.2296 8.10008 19.314 9.57664 20.8046C9.97039 21.1983 10.4204 21.5499 10.772 21.8452C11.9532 21.3952 13.0641 20.9874 14.161 20.5233C14.3438 20.439 14.4845 20.1296 14.5407 19.9046C15.511 16.4733 17.297 13.5483 19.8704 11.0874C27.7032 3.56397 40.3876 4.02803 47.6438 12.128C55.6032 21.0015 53.9157 34.6421 44.0298 41.2937C43.6641 41.5327 43.5235 41.7858 43.5376 42.2218C43.5657 44.4296 43.5376 46.6374 43.5516 48.8312C43.5516 49.6187 43.3126 50.2515 42.6516 50.7015C42.5251 50.7859 42.4266 51.0249 42.4126 51.1937C42.3845 51.6999 42.3985 52.2062 42.3985 52.7124C42.3845 54.6108 41.386 55.8343 39.5298 56.1999C39.4173 56.228 39.2907 56.2562 39.122 56.2983C39.122 56.9312 39.136 57.5499 39.122 58.1687C39.0798 60.0671 37.7157 61.4733 35.8313 61.5015C34.1157 61.5296 32.386 61.5296 30.6704 61.5015C28.8563 61.4733 27.5063 60.1515 27.4079 58.3233C27.3657 57.6624 27.3938 56.9874 27.3938 56.2843ZM38.8407 49.5765C39.6985 49.5765 40.486 49.5765 41.2735 49.5765C42.0891 49.5765 42.1876 49.478 42.1876 48.6765C42.1735 46.1874 42.1595 43.6983 42.1454 41.2093C42.1454 37.9468 42.1454 34.6983 42.1735 31.4358C42.1735 30.9296 42.0891 30.6343 41.5407 30.3952C40.0501 29.7624 39.3891 28.0327 39.9516 26.528C40.5001 25.0515 42.1173 24.2077 43.636 24.6015C45.197 25.0093 46.1813 26.528 45.9141 28.1171C45.6891 29.453 44.8313 30.2405 43.5938 30.6483C43.5938 33.714 43.5938 36.7515 43.5938 39.8874C43.7626 39.7749 43.8891 39.7046 43.9876 39.6202C49.5845 35.1765 52.1016 29.3968 51.047 22.3233C49.6266 12.6905 40.6407 6.01085 31.0079 7.23428C21.2485 8.47178 14.2173 17.3171 15.3282 27.1187C15.9751 32.7718 18.7735 37.1874 23.5266 40.3233C24.2157 40.7733 24.3563 41.2937 24.3423 42.0249C24.3001 44.3312 24.3001 46.6374 24.3423 48.9437C24.3423 49.1546 24.6516 49.5343 24.8485 49.5483C25.7626 49.6046 26.6907 49.5765 27.6751 49.5765C27.6751 47.889 27.661 46.2437 27.6891 44.6124C27.6891 44.2327 27.5766 44.064 27.211 43.9233C25.8329 43.3749 25.0454 41.9546 25.2985 40.5624C25.5657 39.0718 26.8173 37.989 28.2938 37.9468C29.7704 37.9046 31.0923 38.9593 31.4157 40.4218C31.7391 41.8562 30.9657 43.3608 29.5454 43.9093C29.1095 44.078 29.0391 44.303 29.0391 44.7108C29.0673 45.7796 29.0532 46.8624 29.0532 47.9312C29.0532 48.4655 29.0532 49.014 29.0532 49.5483C30.2626 49.5483 31.3876 49.5483 32.5688 49.5483C32.5688 49.2952 32.5688 49.0702 32.5688 48.8593C32.5688 46.6937 32.5688 44.528 32.5688 42.3624C32.5688 42.1796 32.5548 41.9968 32.5829 41.814C32.6532 41.4343 32.8923 41.1249 33.272 41.2233C33.5251 41.2937 33.7501 41.5608 33.9188 41.7999C34.0032 41.9265 33.947 42.1515 33.947 42.3343C33.947 44.514 33.947 46.7077 33.947 48.8874C33.947 49.0984 33.961 49.3233 33.9751 49.5343C35.1563 49.5343 36.2813 49.5343 37.4345 49.5343C37.4345 47.1296 37.4485 44.7671 37.4204 42.3905C37.4204 42.1937 37.2376 41.9546 37.0688 41.7999C35.8595 40.6046 34.636 39.4374 33.4407 38.214C32.4985 37.2437 31.5985 36.2312 30.6704 35.2468C30.3048 35.4999 30.0938 35.5983 29.897 35.6687C28.772 36.0483 27.7313 35.8655 26.8313 35.0921C25.9454 34.3187 25.5657 33.3202 25.8048 32.153C26.1704 30.339 27.9563 29.2562 29.7141 29.7765C31.486 30.2968 32.4001 32.1952 31.711 33.939C31.6407 34.1077 31.5563 34.403 31.6266 34.4874C32.2454 35.1343 32.8923 35.753 33.5813 36.428C33.6095 36.2452 33.6376 36.189 33.6376 36.1327C33.6376 32.6593 33.6376 29.1718 33.6516 25.6983C33.6516 25.3187 33.4407 25.2483 33.1735 25.1358C31.7532 24.5452 30.9938 23.0827 31.3173 21.578C31.6126 20.1999 32.9204 19.1593 34.3548 19.1593C35.7891 19.1593 37.097 20.1999 37.3782 21.5921C37.6876 23.1108 36.9563 24.5593 35.5079 25.1358C35.1423 25.2905 35.0438 25.4593 35.0438 25.839C35.0579 29.678 35.0438 33.5312 35.072 37.3702C35.072 37.6515 35.2266 38.003 35.4235 38.1999C36.3376 39.1421 37.2798 40.0702 38.236 40.9702C38.672 41.378 38.8548 41.7999 38.8548 42.4046C38.8266 44.753 38.8407 47.1155 38.8407 49.5765ZM22.8235 41.6452C21.797 40.8155 20.9251 40.1546 20.1095 39.4233C19.7579 39.0999 19.4766 39.0155 18.9985 39.1421C15.7079 39.9999 12.3048 38.4108 10.8282 35.3593C9.3657 32.3358 10.1954 28.6655 12.9376 26.6687C13.6688 26.1343 13.8798 25.628 13.8516 24.7983C13.8235 23.8843 13.9501 22.9702 14.0063 21.9015C13.0782 22.3655 12.2345 22.7452 11.447 23.2233C10.9266 23.5327 10.5329 23.5187 10.097 23.0968C9.61883 22.6327 9.09851 22.2108 8.59226 21.7749C7.43914 20.7765 7.41101 20.7765 6.35633 21.8733C5.8782 22.3655 5.86414 22.6749 6.30008 23.1812C6.8907 23.8702 7.49539 24.5593 8.10008 25.2343C8.43758 25.5999 8.47976 25.9796 8.21258 26.3874C7.4532 27.5265 6.94695 28.778 6.6657 30.114C6.58133 30.5499 6.3282 30.7749 5.8782 30.803C4.93602 30.8593 3.97976 30.9296 3.03758 31.014C2.3907 31.0702 2.17976 31.2952 2.1657 31.928C2.1657 32.153 2.1657 32.378 2.1657 32.589C2.17976 33.2921 2.40476 33.5312 3.09383 33.5733C3.97976 33.6296 4.8657 33.714 5.75164 33.7562C6.30008 33.7843 6.51101 34.0655 6.69383 34.5858C7.1157 35.7812 7.60789 36.9483 8.15633 38.0874C8.40945 38.6077 8.43758 38.9733 8.04383 39.3952C7.48133 39.9999 6.94695 40.6327 6.39851 41.2655C5.80789 41.9546 5.82195 42.1796 6.46883 42.8405C6.49695 42.8687 6.52508 42.8968 6.5532 42.9249C7.35476 43.7265 7.50945 43.7405 8.3532 42.9952C8.95789 42.4608 9.57664 41.9405 10.1813 41.3921C10.5329 41.0827 10.8704 41.0124 11.2782 41.2796C12.4313 42.053 13.697 42.5733 15.061 42.8405C15.497 42.9249 15.722 43.1921 15.7501 43.6421C15.7923 44.3733 15.8485 45.0905 15.8907 45.8218C15.961 47.2702 16.0454 47.3546 17.4798 47.3405C18.2532 47.3265 18.4501 47.1718 18.5063 46.3843C18.5766 45.5405 18.647 44.6968 18.661 43.839C18.6751 43.2343 18.9423 42.953 19.5188 42.7843C20.6298 42.4468 21.6704 42.039 22.8235 41.6452ZM25.4954 50.9827C25.4954 51.6718 25.4813 52.3187 25.4954 52.9515C25.5235 53.9921 26.297 54.7655 27.3376 54.8218C27.6751 54.8358 28.0266 54.8218 28.3641 54.8218C31.936 54.8218 35.522 54.8358 39.0938 54.8218C40.0782 54.8218 40.8657 54.1327 40.9641 53.1765C41.0485 52.4593 40.9782 51.728 40.9782 50.9827C35.8313 50.9827 30.7126 50.9827 25.4954 50.9827ZM37.7438 56.2843C34.7204 56.2843 31.7673 56.2843 28.772 56.2843C28.772 56.9452 28.7579 57.564 28.772 58.1968C28.8001 59.2655 29.5735 60.1093 30.6282 60.1233C32.3579 60.1655 34.1016 60.1515 35.8313 60.1233C36.9001 60.1093 37.6876 59.2937 37.7298 58.2249C37.772 57.6062 37.7438 56.9733 37.7438 56.2843ZM13.9641 27.639C11.7423 28.9749 10.8845 32.1812 12.0235 34.6562C13.1626 37.1171 16.1016 38.5655 18.4782 37.778C16.0032 34.839 14.5126 31.4499 13.9641 27.639ZM30.586 32.7858C30.6001 31.8437 29.7845 31.028 28.8563 31.028C27.9282 31.028 27.1688 31.8015 27.1548 32.7296C27.1407 33.6858 27.9282 34.4874 28.8704 34.4733C29.7845 34.4874 30.572 33.6999 30.586 32.7858ZM28.336 39.339C27.3798 39.353 26.6063 40.1546 26.6485 41.0968C26.6766 42.0249 27.4501 42.7702 28.3782 42.7702C29.3204 42.7702 30.1079 41.9687 30.1079 41.0265C30.0798 40.0983 29.2923 39.3249 28.336 39.339ZM42.8626 29.3124C43.861 29.3124 44.5923 28.5812 44.5782 27.5968C44.5641 26.6546 43.8188 25.9093 42.8766 25.9093C41.9204 25.9093 41.147 26.6827 41.161 27.653C41.161 28.5952 41.8923 29.3124 42.8626 29.3124ZM34.3266 23.9687C35.311 23.9827 36.0704 23.2374 36.0704 22.2671C36.0704 21.3249 35.3251 20.5655 34.3829 20.5655C33.4126 20.5515 32.6391 21.3108 32.6391 22.2812C32.6532 23.2233 33.3845 23.9546 34.3266 23.9687Z" fill="#202F59"/>
<path d="M13.3032 9.02021C13.4157 8.86552 13.5282 8.59833 13.697 8.52802C13.9079 8.44364 14.2735 8.42958 14.4142 8.55614C15.1173 9.18896 15.8063 9.84989 16.4251 10.5671C16.5657 10.7218 16.5095 11.214 16.3548 11.4108C16.2282 11.5655 15.7079 11.6499 15.5673 11.5233C14.822 10.8765 14.147 10.1452 13.4579 9.44208C13.3735 9.35771 13.3735 9.21708 13.3032 9.02021Z" fill="#202F59"/>
<path d="M32.5548 2.39689C32.5548 1.98908 32.5408 1.58127 32.5548 1.18752C32.5689 0.765641 32.7939 0.498454 33.2298 0.484391C33.6658 0.470329 33.9189 0.751579 33.9189 1.15939C33.947 2.03127 33.947 2.90314 33.9189 3.76095C33.9048 4.18283 33.6658 4.45002 33.2158 4.43595C32.7798 4.42189 32.5689 4.14064 32.5408 3.73283C32.5408 3.29689 32.5548 2.84689 32.5548 2.39689Z" fill="#202F59"/>
<path d="M52.4392 8.40137C53.058 8.41543 53.4095 9.03418 53.058 9.44199C52.4252 10.1732 51.7361 10.8482 51.0048 11.4811C50.8502 11.6217 50.3298 11.5654 50.1752 11.4107C50.0205 11.2561 49.9502 10.7357 50.0908 10.5811C50.7236 9.8498 51.4267 9.18887 52.1298 8.52793C52.2142 8.44355 52.3689 8.42949 52.4392 8.40137Z" fill="#202F59"/>
<path d="M27.6469 4.68888C27.4781 4.85763 27.2953 5.20919 27.0844 5.22325C26.8312 5.25138 26.3812 5.06856 26.3109 4.87169C26.0015 3.97169 25.7484 3.05763 25.5797 2.1295C25.5375 1.93263 25.8609 1.52481 26.0859 1.44044C26.2687 1.37013 26.7328 1.59513 26.8031 1.77794C27.1265 2.692 27.3515 3.63419 27.6469 4.68888Z" fill="#202F59"/>
<path d="M41.0344 1.97511C40.7391 3.04386 40.5 4.00011 40.1766 4.92824C40.1203 5.11105 39.6563 5.2798 39.4453 5.22355C39.2344 5.1673 38.9391 4.77355 38.9672 4.59074C39.1641 3.63449 39.4172 2.67824 39.7266 1.75011C39.7828 1.58136 40.2328 1.41261 40.4578 1.4548C40.6828 1.48292 40.8516 1.7923 41.0344 1.97511Z" fill="#202F59"/>
<path d="M21.797 7.03761C21.572 7.3048 21.4313 7.60011 21.2485 7.65636C21.0235 7.71261 20.6016 7.65636 20.5032 7.50167C19.9688 6.70011 19.4907 5.85636 19.0548 4.98449C18.9704 4.81574 19.1251 4.42199 19.2938 4.2673C19.4345 4.14074 19.9126 4.11261 19.9969 4.21105C20.6016 5.11105 21.1782 6.05324 21.797 7.03761Z" fill="#202F59"/>
<path d="M47.5875 4.70292C47.475 4.97011 47.4328 5.13885 47.3344 5.29354C46.9688 5.94042 46.5891 6.58729 46.2234 7.23417C45.9844 7.65604 45.6469 7.89511 45.1828 7.62792C44.7469 7.37479 44.775 6.98104 45.0141 6.57323C45.4219 5.87011 45.7875 5.15292 46.2516 4.49198C46.3922 4.28104 46.7859 4.15448 47.0531 4.16854C47.25 4.19667 47.4187 4.52011 47.5875 4.70292Z" fill="#202F59"/>
</svg>
