<svg width="49" height="55" viewBox="0 0 49 55" fill="none" xmlns="http://www.w3.org/2000/svg">
<path d="M2.35316 27.1324C2.35316 14.5045 12.6272 4.23049 25.255 4.23049V5.92692C25.255 6.39344 25.6367 6.77514 26.1033 6.77514C26.1245 6.77514 26.1351 6.77514 26.1563 6.77514C26.1775 6.77514 26.1987 6.77514 26.2093 6.77514C26.3577 6.77514 26.5168 6.73273 26.644 6.65851L30.8851 4.11386C31.288 3.86999 31.4152 3.35046 31.1714 2.94756C31.0441 2.7355 30.8321 2.59767 30.5988 2.55526L26.5274 0.11663L26.5168 0.106027C26.5062 0.0954245 26.4956 0.0954245 26.4743 0.0848218C26.4637 0.074219 26.4531 0.074219 26.4319 0.0636163C26.4213 0.0636163 26.4107 0.0530136 26.4001 0.0530136C26.3895 0.0424109 26.3683 0.0424109 26.3577 0.0318082C26.3471 0.0318082 26.3365 0.0212054 26.3259 0.0212054C26.3047 0.0212054 26.2941 0.0106027 26.2729 0.0106027C26.2623 0.0106027 26.2623 0.0106027 26.2517 0.0106027C26.2305 0.0106027 26.2093 0 26.1881 0C26.1775 0 26.1775 0 26.1669 0C26.1457 0 26.1245 0 26.1033 0C26.1033 0 26.1033 0 26.0926 0H26.082C26.0608 0 26.0396 0 26.0184 0C26.0078 0 26.0078 0 25.9972 0C25.976 0 25.9548 0.0106027 25.9336 0.0106027C25.923 0.0106027 25.9124 0.0106027 25.9124 0.0106027C25.8912 0.0106027 25.87 0.0212054 25.8594 0.0212054C25.8488 0.0212054 25.8382 0.0212054 25.8382 0.0318082C25.817 0.0424109 25.8064 0.0424109 25.7852 0.0530136C25.7746 0.0530136 25.7746 0.0636163 25.764 0.0636163C25.7428 0.074219 25.7216 0.0848218 25.7109 0.0954245C25.7109 0.0954245 25.7003 0.0954245 25.7003 0.106027C25.6791 0.11663 25.6579 0.127233 25.6367 0.137835C25.6367 0.137835 25.6261 0.137835 25.6261 0.148438C25.6049 0.159041 25.5837 0.180246 25.5625 0.190849C25.5625 0.190849 25.5625 0.190849 25.5519 0.190849C25.5307 0.201452 25.5201 0.222657 25.4989 0.243863C25.4989 0.243863 25.4989 0.243863 25.4883 0.254465C25.4671 0.275671 25.4565 0.286273 25.4459 0.307479L25.4353 0.318082C25.4247 0.339287 25.4141 0.34989 25.3929 0.371095C25.3929 0.381698 25.3823 0.381698 25.3823 0.392301C25.3717 0.402903 25.3717 0.413506 25.3611 0.424109C25.3611 0.434712 25.3505 0.434712 25.3505 0.445314C25.3505 0.455917 25.3399 0.455917 25.3399 0.46652C25.3293 0.487725 25.3187 0.498328 25.3187 0.519533C25.3187 0.530136 25.308 0.530136 25.308 0.540739C25.2974 0.561944 25.2974 0.58315 25.2868 0.593752C25.2868 0.604355 25.2868 0.604355 25.2762 0.614958C25.2656 0.636163 25.2656 0.657369 25.255 0.678574V0.689177C25.255 0.710382 25.2444 0.731588 25.2444 0.752793V0.763396C25.2444 0.784601 25.2444 0.805807 25.2444 0.837615C25.2444 0.837615 25.2444 0.837615 25.2444 0.848218V2.54465C11.6836 2.54465 0.646118 13.5821 0.646118 27.143C0.646118 30.9493 1.53675 34.7239 3.25439 38.138C3.40283 38.4243 3.6891 38.6045 4.01778 38.6045C4.14502 38.6045 4.28285 38.5727 4.39948 38.5197C4.82359 38.3076 4.98263 37.7987 4.78118 37.3852C3.16957 34.1726 2.35316 30.7267 2.35316 27.1324ZM26.9515 2.3326L28.7539 3.41408L26.9515 4.49555V2.3326Z" fill="#202F59"/>
<path d="M25.255 11.8643C16.8364 11.8643 9.98706 18.7136 9.98706 27.1322C9.98706 35.5507 16.8364 42.4001 25.255 42.4001C27.3119 42.4001 29.1886 41.6685 30.5669 40.481C31.0335 40.6188 31.5318 40.7037 32.0407 40.7037C34.8504 40.7037 37.13 38.4241 37.13 35.6143C37.13 33.0485 33.154 28.0122 32.6981 27.4503C32.4754 27.164 32.0937 27.058 31.7544 27.1852C31.4152 27.3018 31.1819 27.6199 31.1819 27.9804C31.1819 29.8359 30.2489 30.6735 29.1674 31.6383C28.1283 32.5714 26.9408 33.6316 26.9408 35.6143C26.9408 37.2366 27.7042 38.6891 28.9023 39.6222C28.1071 40.1523 27.1423 40.5234 26.0926 40.6506V28.2137C26.3683 28.2561 26.6545 28.2879 26.9408 28.2879C28.2874 28.2879 29.5915 27.7577 30.5351 26.7929C31.9347 25.3933 31.8499 23.8029 31.765 22.414C31.6802 20.9614 31.6166 19.7103 32.9313 18.3955C33.1116 18.2153 33.207 17.9608 33.1752 17.7064C33.1222 17.2398 32.7087 16.9005 32.2422 16.9536C31.5212 17.0384 25.1489 17.7806 23.3359 19.5936C22.371 20.5585 21.8409 21.8308 21.8409 23.188C21.8409 24.5451 22.371 25.828 23.3359 26.7823C23.654 27.1004 24.0039 27.376 24.3856 27.5881V34.7661C23.2829 34.7661 22.2544 34.4056 21.4168 33.8119C22.6997 32.8895 23.5373 31.3839 23.5373 29.6768C23.5373 27.6941 22.3498 26.6338 21.3108 25.7008C20.2293 24.736 19.2962 23.8983 19.2962 22.0429C19.2962 21.7884 19.1796 21.5445 18.9782 21.3749C18.6071 21.078 18.0769 21.1416 17.7907 21.5127C17.3347 22.0747 13.3587 27.111 13.3587 29.6768C13.3587 32.4865 15.6383 34.7661 18.448 34.7661C18.8933 34.7661 19.3175 34.7131 19.731 34.6071C20.9503 35.7628 22.5831 36.4626 24.3856 36.4626V40.6718C17.2923 40.2371 11.6623 34.3208 11.6623 27.1322C11.6623 19.6467 17.7483 13.5607 25.2338 13.5607C35.2852 13.5607 43.4704 21.746 43.4704 31.7974C43.4704 41.5731 35.7411 49.5675 26.082 50.0128V48.3376C26.082 48.3376 26.082 48.3376 26.082 48.327C26.082 48.3058 26.082 48.2846 26.082 48.2634C26.082 48.2528 26.082 48.2528 26.082 48.2422C26.082 48.221 26.0714 48.1998 26.0714 48.1786C26.0714 48.168 26.0714 48.168 26.0714 48.1574C26.0714 48.1362 26.0608 48.1256 26.0608 48.1044C26.0608 48.0938 26.0502 48.0831 26.0502 48.0725C26.0502 48.0619 26.0396 48.0407 26.029 48.0301C26.029 48.0195 26.0184 48.0089 26.0184 47.9983C26.0078 47.9877 26.0078 47.9771 25.9972 47.9559C25.9866 47.9453 25.9866 47.9347 25.976 47.9135L25.9654 47.9029C25.9654 47.8923 25.9548 47.8923 25.9548 47.8817C25.9442 47.8711 25.9442 47.8605 25.9336 47.8499C25.9229 47.8393 25.9123 47.8287 25.9123 47.8181C25.9017 47.8075 25.8911 47.7969 25.8911 47.7863C25.8805 47.7757 25.8699 47.7651 25.8593 47.7545C25.8487 47.7439 25.8381 47.7333 25.8381 47.7333C25.8275 47.7227 25.8169 47.7121 25.8063 47.7015C25.7957 47.6908 25.7851 47.6908 25.7745 47.6802C25.7639 47.6696 25.7533 47.659 25.7427 47.659C25.7321 47.6484 25.7215 47.6484 25.7109 47.6378C25.7003 47.6272 25.6897 47.6272 25.6791 47.6166C25.6685 47.606 25.6473 47.606 25.6367 47.5954C25.6261 47.5954 25.6155 47.5848 25.6155 47.5848C25.5943 47.5742 25.5837 47.5742 25.5625 47.5636C25.5519 47.5636 25.5519 47.553 25.5413 47.553C25.52 47.5424 25.4988 47.5424 25.4882 47.5318C25.4776 47.5318 25.4776 47.5318 25.467 47.5212C25.4458 47.5212 25.4246 47.5106 25.414 47.5106C25.4034 47.5106 25.3928 47.5106 25.3928 47.5106C25.3716 47.5106 25.361 47.5106 25.3398 47.5C25.3292 47.5 25.3186 47.5 25.308 47.5C25.2974 47.5 25.2868 47.5 25.2762 47.5C25.2656 47.5 25.2656 47.5 25.255 47.5C25.2444 47.5 25.2338 47.5 25.2232 47.5C25.202 47.5 25.1914 47.5 25.1702 47.5C25.1596 47.5 25.1489 47.5 25.1383 47.5C25.1171 47.5 25.0959 47.5106 25.0853 47.5106C25.0747 47.5106 25.0747 47.5106 25.0641 47.5106C25.0429 47.5212 25.0217 47.5212 25.0005 47.5318H24.9899C24.9687 47.5424 24.9475 47.553 24.9263 47.5636H24.9157C24.8945 47.5742 24.8733 47.5848 24.8521 47.5954L20.6004 50.1401C20.558 50.1613 20.5262 50.1825 20.4838 50.2143C20.4838 50.2143 20.4838 50.2143 20.4732 50.2249C20.4519 50.2461 20.4307 50.2673 20.4095 50.2885C20.3989 50.2991 20.3989 50.2991 20.3883 50.3097C20.3671 50.3309 20.3565 50.3415 20.3459 50.3627C20.3247 50.3945 20.3035 50.4157 20.2823 50.4476C20.2823 50.4476 20.2823 50.4476 20.2823 50.4582C20.2717 50.4794 20.2611 50.5006 20.2399 50.5324V50.543C20.1869 50.6596 20.1551 50.7762 20.1551 50.9035C20.1551 51.2322 20.3459 51.5078 20.6216 51.6563L24.8097 54.1691H24.8203C24.8521 54.1903 24.8839 54.2009 24.9157 54.2115C24.9475 54.2221 24.9793 54.2327 25.0111 54.2433C25.0217 54.2433 25.0323 54.2433 25.0323 54.2539C25.0535 54.2645 25.0853 54.2645 25.1065 54.2751C25.1171 54.2751 25.1277 54.2751 25.1383 54.2751C25.1702 54.2751 25.202 54.2857 25.2338 54.2857C25.6897 54.2857 26.0608 53.9252 26.082 53.4799C26.082 53.4693 26.082 53.4587 26.082 53.4481V51.7305C36.6847 51.2852 45.1669 42.5273 45.1669 31.8186C45.1881 20.8024 36.25 11.8643 25.255 11.8643ZM30.3125 32.9107C31.1077 32.2003 32.0407 31.3627 32.539 30.0479C33.9386 32.0094 35.4336 34.4693 35.4336 35.625C35.4336 37.491 33.9068 39.0178 32.0407 39.0178C31.9771 39.0178 31.9241 39.0178 31.8605 39.0178C32.5072 38.0212 32.8889 36.8655 32.8889 35.625C32.8889 35.1584 32.5072 34.7767 32.0407 34.7767C31.5742 34.7767 31.1925 35.1584 31.1925 35.625C31.1925 36.6746 30.8214 37.6501 30.1852 38.4665C29.2628 37.8621 28.6478 36.8125 28.6478 35.625C28.6478 34.4481 29.2522 33.8543 30.3125 32.9107ZM15.0764 29.6768C15.0764 28.5211 16.5714 26.0613 17.9709 24.0998C18.4692 25.4145 19.4023 26.2521 20.1975 26.9625C21.2578 27.9062 21.8621 28.4999 21.8621 29.6662C21.8621 30.8961 21.2047 31.967 20.2293 32.5714C19.6567 31.7444 19.3175 30.7477 19.3175 29.6662C19.3175 29.1997 18.9358 28.818 18.4692 28.818C18.0027 28.818 17.621 29.1997 17.621 29.6662C17.621 30.8961 17.9497 32.0624 18.5329 33.0591C18.5116 33.0591 18.4904 33.0591 18.4692 33.0591C16.6032 33.0697 15.0764 31.5429 15.0764 29.6768ZM24.5552 20.8024C25.3716 19.9859 28.1707 19.3074 30.5457 18.9151C29.9626 20.198 30.0368 21.4491 30.0898 22.52C30.1746 23.9408 30.1746 24.789 29.3476 25.6054C28.51 26.443 27.2695 26.7293 26.1456 26.4748C26.3259 25.4675 26.8136 24.5345 27.5452 23.8029C27.8738 23.4742 27.8738 22.9335 27.5452 22.6048C27.2165 22.2761 26.6757 22.2761 26.3471 22.6048C25.4988 23.453 24.8945 24.5027 24.5976 25.6478C24.5764 25.6372 24.5658 25.616 24.5446 25.6054C23.9084 24.9692 23.5479 24.1104 23.5479 23.2092C23.5479 22.3079 23.9084 21.4385 24.5552 20.8024ZM24.4068 51.9319L22.6679 50.8823L24.4068 49.8326V51.9319Z" fill="#202F59"/>
<path d="M44.87 12.6064C43.004 12.6064 41.4772 14.1332 41.4772 15.9993C41.4772 17.8654 43.004 19.3922 44.87 19.3922C46.7361 19.3922 48.2629 17.8654 48.2629 15.9993C48.2629 14.1332 46.7361 12.6064 44.87 12.6064ZM44.87 17.6958C43.937 17.6958 43.1736 16.9324 43.1736 15.9993C43.1736 15.0663 43.937 14.3029 44.87 14.3029C45.8031 14.3029 46.5665 15.0663 46.5665 15.9993C46.5665 16.9324 45.8031 17.6958 44.87 17.6958Z" fill="#202F59"/>
<path d="M10.1991 44.2026C8.33307 44.2026 6.80627 45.7294 6.80627 47.5955C6.80627 49.4616 8.33307 50.9884 10.1991 50.9884C12.0652 50.9884 13.592 49.4616 13.592 47.5955C13.592 45.7294 12.0652 44.2026 10.1991 44.2026ZM10.1991 49.2919C9.26611 49.2919 8.50271 48.5285 8.50271 47.5955C8.50271 46.6625 9.26611 45.8991 10.1991 45.8991C11.1322 45.8991 11.8956 46.6625 11.8956 47.5955C11.8956 48.5285 11.1322 49.2919 10.1991 49.2919Z" fill="#202F59"/>
<path d="M7.4425 39.0075C7.4425 40.4071 8.5876 41.5522 9.98716 41.5522C11.3867 41.5522 12.5318 40.4071 12.5318 39.0075C12.5318 37.608 11.3867 36.4629 9.98716 36.4629C8.5876 36.4629 7.4425 37.608 7.4425 39.0075ZM9.98716 38.1593C10.4537 38.1593 10.8354 38.541 10.8354 39.0075C10.8354 39.4741 10.4537 39.8558 9.98716 39.8558C9.52064 39.8558 9.13894 39.4741 9.13894 39.0075C9.13894 38.541 9.52064 38.1593 9.98716 38.1593Z" fill="#202F59"/>
<path d="M21.8621 44.945C21.8621 43.5455 20.717 42.4004 19.3175 42.4004C17.9179 42.4004 16.7728 43.5455 16.7728 44.945C16.7728 46.3446 17.9179 47.4897 19.3175 47.4897C20.717 47.4897 21.8621 46.3446 21.8621 44.945ZM19.3175 45.7933C18.851 45.7933 18.4693 45.4116 18.4693 44.945C18.4693 44.4785 18.851 44.0968 19.3175 44.0968C19.784 44.0968 20.1657 44.4785 20.1657 44.945C20.1657 45.4116 19.784 45.7933 19.3175 45.7933Z" fill="#202F59"/>
<path d="M45.6123 7.72944C47.0118 7.72944 48.1569 6.58435 48.1569 5.18479C48.1569 3.78523 47.0118 2.64014 45.6123 2.64014C44.2127 2.64014 43.0676 3.78523 43.0676 5.18479C43.0676 6.58435 44.2127 7.72944 45.6123 7.72944ZM45.6123 4.33657C46.0788 4.33657 46.4605 4.71827 46.4605 5.18479C46.4605 5.65131 46.0788 6.03301 45.6123 6.03301C45.1458 6.03301 44.7641 5.65131 44.7641 5.18479C44.7641 4.71827 45.1458 4.33657 45.6123 4.33657Z" fill="#202F59"/>
<path d="M36.1759 11.8642C37.5754 11.8642 38.7205 10.7191 38.7205 9.31956C38.7205 7.92 37.5754 6.7749 36.1759 6.7749C34.7763 6.7749 33.6312 7.92 33.6312 9.31956C33.6312 10.7191 34.7763 11.8642 36.1759 11.8642ZM36.1759 8.47134C36.6424 8.47134 37.0241 8.85304 37.0241 9.31956C37.0241 9.78608 36.6424 10.1678 36.1759 10.1678C35.7094 10.1678 35.3277 9.78608 35.3277 9.31956C35.3277 8.85304 35.7094 8.47134 36.1759 8.47134Z" fill="#202F59"/>
<path d="M39.6747 31.3736C40.1412 31.3736 40.5229 30.9919 40.5229 30.5254C40.5229 27.2492 37.8616 24.5879 34.5854 24.5879C34.1189 24.5879 33.7372 24.9696 33.7372 25.4361C33.7372 25.9026 34.1189 26.2843 34.5854 26.2843C36.9286 26.2843 38.8265 28.1822 38.8265 30.5254C38.8265 30.9919 39.2082 31.3736 39.6747 31.3736Z" fill="#202F59"/>
</svg>
