<svg width="63" height="52" viewBox="0 0 63 52" fill="none" xmlns="http://www.w3.org/2000/svg">
<path d="M0 24.4782C0.166328 23.7297 0.221771 22.9258 0.498984 22.2327C1.01183 20.9437 1.6217 19.6685 2.27315 18.4349C2.66125 17.7141 3.22954 17.5755 3.72852 17.9221C4.21365 18.2686 4.22751 18.7814 3.7701 19.4745C0.263353 24.7692 1.67714 31.6441 6.97192 34.9984C8.71837 36.1073 10.6311 36.6755 12.6964 36.7033C14.6369 36.7171 16.5635 36.7033 18.504 36.7033C18.601 36.7033 18.6981 36.6894 18.8228 36.6756C18.8228 34.8598 18.8228 33.0718 18.8228 31.2006C18.6149 31.2006 18.3931 31.2006 18.1852 31.2006C16.3279 31.2006 14.4705 31.2283 12.6271 31.1867C9.95197 31.1174 7.77584 29.0799 7.38774 26.3493C7.02736 23.8821 8.62134 21.3179 11.0608 20.514C11.7123 20.3061 12.4192 20.2091 13.0983 20.1952C16.6605 20.1675 20.2366 20.1813 23.7988 20.1813C24.0899 20.1813 24.3255 20.1952 24.4918 19.8625C25.4621 17.9359 26.8481 16.3558 28.6362 15.1222C28.6916 15.0806 28.747 15.0113 28.8856 14.8588C28.2481 14.7895 27.7075 14.6925 27.1808 14.6787C22.288 14.6648 17.3951 14.6509 12.5023 14.6787C10.4648 14.6925 8.57976 15.3301 6.86103 16.4528C6.70857 16.5498 6.5561 16.6607 6.40363 16.7578C5.87693 17.0766 5.35022 16.9795 5.05915 16.536C4.78193 16.1063 4.85124 15.5657 5.36408 15.2608C6.41749 14.6509 7.48477 14.0411 8.59362 13.5698C9.91038 13.0154 11.338 12.8213 12.7795 12.8213C17.4506 12.8213 22.1216 12.7659 26.7788 12.849C28.1649 12.8768 29.5371 13.2926 30.9093 13.5144C31.1727 13.5559 31.4776 13.5975 31.7271 13.5144C33.127 13.0431 34.5685 12.8213 36.0516 12.8213C40.5702 12.8213 45.1026 12.8213 49.6212 12.8213C56.0942 12.8352 61.3196 17.2152 62.4701 23.5911C63.6759 30.2442 58.9633 37.0359 52.2825 38.2418C51.4092 38.3943 50.5083 38.4774 49.6074 38.4913C45.0888 38.519 40.5563 38.5052 36.0378 38.5052C34.5547 38.5052 33.127 38.2695 31.7132 37.8121C31.4637 37.729 31.1449 37.729 30.9093 37.8121C29.5371 38.2695 28.151 38.5052 26.7095 38.5052C22.1078 38.5052 17.4922 38.519 12.8904 38.5052C6.34819 38.4774 1.01183 33.7787 0.124746 27.2919C0.110885 27.1533 0.0554428 27.0147 0.0138607 26.8899C5.26677e-08 26.0999 0 25.2959 0 24.4782ZM33.7369 36.5369C34.5131 36.6062 35.1784 36.6894 35.8437 36.7033C40.5148 36.7171 45.1719 36.7171 49.843 36.7033C50.4944 36.7033 51.1459 36.6478 51.7835 36.5231C57.7159 35.3588 61.486 30.0363 60.6682 24.0208C60.0306 19.3636 55.9833 15.3162 51.3261 14.845C49.3301 14.6509 47.2926 14.7341 45.2828 14.7064C44.7977 14.6925 44.3126 14.7064 43.8275 14.7064C43.8275 16.5776 43.8275 18.3656 43.8275 20.2091C44.077 20.2091 44.271 20.2091 44.4789 20.2091C46.3085 20.2091 48.152 20.1813 49.9816 20.2229C52.8923 20.2922 55.2625 22.7178 55.3041 25.6147C55.3457 28.6641 52.9339 31.1729 49.8707 31.2006C46.2254 31.2283 42.58 31.2144 38.9346 31.2006C38.5188 31.2006 38.3248 31.3531 38.0891 31.6857C37.3268 32.7807 36.5506 33.8757 35.6774 34.9014C35.1368 35.4835 34.4576 35.9271 33.7369 36.5369ZM41.9147 14.7202C41.6791 14.7064 41.4989 14.6925 41.3187 14.6925C39.5306 14.6925 37.7288 14.6787 35.9407 14.6925C32.7389 14.7202 29.9945 15.8707 27.8461 18.227C25.0601 21.2902 24.2978 24.8663 25.365 28.8443C25.4205 29.0383 25.6561 29.3155 25.8224 29.3294C26.3214 29.3848 26.8481 29.371 27.3471 29.2878C29.2044 28.9552 30.2579 27.6245 30.4242 25.4484C30.6598 22.3297 32.9468 20.2091 36.0655 20.1952C37.7981 20.1813 39.5306 20.1952 41.2632 20.1952C41.4711 20.1952 41.6929 20.1952 41.9147 20.1952C41.9147 18.324 41.9147 16.5637 41.9147 14.7202ZM20.7217 36.6756C20.9296 36.6894 21.1098 36.7033 21.29 36.7033C23.1057 36.7033 24.9215 36.7171 26.7372 36.7033C29.3569 36.6894 31.6855 35.8439 33.723 34.1945C37.1189 31.4224 38.5604 26.7513 37.2714 22.5654C37.2159 22.3575 36.9803 22.0803 36.814 22.0664C36.315 22.011 35.7883 22.011 35.2893 22.108C33.4319 22.4268 32.3785 23.7713 32.2122 25.9474C31.9766 29.066 29.7034 31.2006 26.5848 31.2144C24.8522 31.2283 23.1196 31.2144 21.387 31.2144C21.1791 31.2144 20.9573 31.2144 20.7356 31.2144C20.7217 33.0718 20.7217 34.8598 20.7217 36.6756ZM23.577 22.0387C19.8346 22.0387 16.1615 22.011 12.5023 22.0525C11.4628 22.0664 10.5896 22.5931 9.95197 23.4386C9.05102 24.6306 8.88469 25.9335 9.55001 27.2919C10.2015 28.6364 11.3242 29.3433 12.8211 29.3571C16.2863 29.3848 19.7376 29.371 23.2028 29.371C23.3137 29.371 23.4245 29.3433 23.5631 29.3294C22.8978 26.8899 22.9117 24.492 23.577 22.0387ZM39.0455 29.3433C39.2119 29.3571 39.3089 29.371 39.4059 29.371C42.8711 29.371 46.3362 29.371 49.8014 29.3571C50.1756 29.3571 50.5776 29.2739 50.938 29.1631C52.6151 28.6086 53.6685 26.8899 53.4052 25.1989C53.128 23.3832 51.6449 22.0525 49.8291 22.0387C46.3224 22.011 42.8156 22.0248 39.3089 22.0387C39.2396 22.0387 39.1564 22.0664 39.0455 22.0803C39.7247 24.492 39.7247 26.876 39.0455 29.3433Z" fill="white"/>
<path d="M34.0419 4.65732C34.0419 5.32263 34.0835 6.00181 34.0281 6.66712C33.9172 8.12249 32.7252 9.18976 31.2975 9.1759C29.8837 9.1759 28.6779 8.12249 28.5947 6.69484C28.5254 5.29491 28.5254 3.88112 28.5947 2.48119C28.664 1.06741 29.8837 0.0139941 31.2837 0.000133459C32.7252 -0.0137272 33.9033 1.05354 34.0142 2.50892C34.0835 3.22967 34.0419 3.95043 34.0419 4.65732ZM32.2262 4.60188C32.2262 4.00587 32.2401 3.42372 32.2262 2.82771C32.1985 2.21784 31.8242 1.82974 31.2975 1.8436C30.7847 1.85746 30.4243 2.21784 30.4104 2.81385C30.3827 3.99201 30.3827 5.17017 30.4104 6.34832C30.4243 6.95819 30.8124 7.34629 31.3391 7.33243C31.8381 7.31857 32.1985 6.94433 32.2262 6.36218C32.2401 5.78004 32.2262 5.19789 32.2262 4.60188Z" fill="white"/>
<path d="M34.0419 46.8076C34.0419 47.5006 34.0835 48.1936 34.0281 48.8867C33.9172 50.342 32.7252 51.3954 31.2837 51.3816C29.8837 51.3677 28.6779 50.3143 28.5947 48.8867C28.5254 47.4867 28.5254 46.0729 28.5947 44.673C28.6779 43.2592 29.8837 42.2058 31.2975 42.2058C32.7113 42.2058 33.8895 43.2454 34.0142 44.6591C34.0835 45.3799 34.0419 46.0868 34.0419 46.8076ZM32.2262 46.8214C32.2262 46.2115 32.2401 45.6017 32.2123 44.9918C32.1846 44.4097 31.8104 44.0493 31.2975 44.0493C30.7847 44.0493 30.4105 44.4235 30.3966 45.0057C30.3689 46.1977 30.3689 47.4036 30.3966 48.6094C30.4105 49.1916 30.7985 49.552 31.3114 49.552C31.8104 49.552 32.1846 49.1777 32.2123 48.5956C32.2401 47.9996 32.2262 47.4036 32.2262 46.8214Z" fill="white"/>
<path d="M22.579 49.552C20.4722 49.5658 19.1138 47.7085 19.7653 45.9066C20.2227 44.6453 20.7632 43.4117 21.3315 42.2058C21.9414 40.9029 23.4938 40.3485 24.8106 40.889C26.155 41.4296 26.8897 42.9404 26.3768 44.3126C25.9056 45.5878 25.365 46.8491 24.7828 48.0689C24.3116 49.0391 23.4522 49.4965 22.579 49.552ZM24.7135 43.4671C24.6581 42.982 24.4502 42.6493 23.9928 42.5523C23.5077 42.4553 23.1473 42.6355 22.9532 43.079C22.482 44.1602 22.0107 45.2413 21.5672 46.3363C21.3315 46.9046 21.5117 47.4036 21.9968 47.6253C22.4958 47.861 22.9948 47.6392 23.2582 47.0293C23.7156 45.9898 24.1591 44.9364 24.5888 43.8829C24.6442 43.7443 24.6719 43.5919 24.7135 43.4671Z" fill="white"/>
<path d="M40.085 49.552C39.1979 49.5104 38.3108 49.053 37.8395 48.0412C37.2713 46.8353 36.7307 45.5879 36.2594 44.3404C35.7466 42.9682 36.4396 41.4574 37.7841 40.9029C39.1147 40.3347 40.681 40.9029 41.3047 42.2336C41.8591 43.4256 42.3859 44.6453 42.8433 45.8789C43.5086 47.667 42.1918 49.552 40.085 49.552ZM41.3047 46.9323C41.2631 46.8908 41.2354 46.8492 41.1938 46.8214C41.1938 46.7799 41.1938 46.7383 41.18 46.6967C40.6394 45.4215 40.1266 44.1463 39.5444 42.885C39.3504 42.4692 38.8791 42.4276 38.4633 42.6078C38.0475 42.788 37.7841 43.1761 37.9504 43.5919C38.4356 44.8394 38.9484 46.0868 39.5444 47.2789C39.6553 47.5145 40.2236 47.6947 40.5147 47.6254C40.8196 47.5838 41.0414 47.1818 41.3047 46.9323Z" fill="white"/>
<path d="M23.6047 10.7005C22.6344 10.6451 21.7889 10.1599 21.3315 9.16198C20.7771 7.96996 20.2504 6.75022 19.7791 5.51662C19.2524 4.14442 19.9316 2.64746 21.2622 2.06531C22.6067 1.48317 24.1591 2.02373 24.7967 3.35436C25.365 4.56024 25.9056 5.79384 26.363 7.05516C27.0283 8.88477 25.6145 10.7837 23.6047 10.7005ZM24.8522 8.0254C24.1868 6.58389 23.6186 5.23941 22.9394 3.95037C22.8424 3.77018 22.177 3.70087 21.9275 3.83948C21.6781 3.97809 21.4147 4.53251 21.4979 4.76815C21.9414 6.01561 22.4681 7.22148 23.0225 8.42736C23.2166 8.84318 23.6601 8.99565 24.0621 8.8016C24.367 8.64914 24.5611 8.31648 24.8522 8.0254Z" fill="white"/>
<path d="M40.0296 1.84358C42.1642 1.82972 43.5225 3.68705 42.8572 5.47508C42.3998 6.7364 41.8592 7.97 41.291 9.17588C40.6534 10.5065 39.0871 11.0471 37.7565 10.4788C36.3981 9.89664 35.7328 8.37196 36.2873 6.97203C36.7585 5.78001 37.2575 4.60186 37.7842 3.43756C38.2555 2.39801 39.1287 1.89903 40.0296 1.84358ZM39.0455 8.87095C39.1703 8.76006 39.5307 8.59373 39.6554 8.33038C40.1821 7.20766 40.6534 6.05723 41.1108 4.90679C41.3048 4.42167 41.0692 3.92268 40.6118 3.75636C40.1267 3.56231 39.6831 3.70091 39.4752 4.17218C38.9485 5.33647 38.4357 6.51463 37.9783 7.70665C37.7565 8.2888 38.2277 8.87095 39.0455 8.87095Z" fill="white"/>
</svg>
