<svg  viewBox="0 0 65 65" fill="none" xmlns="http://www.w3.org/2000/svg">
<path d="M53.9783 49.7953C53.8373 50.2725 53.7397 50.7714 53.5553 51.2378C52.6009 53.6997 50.1173 55.2289 47.5144 54.9903C44.8899 54.7408 42.7425 52.8103 42.2544 50.2075C42.1785 49.8279 42.0158 49.7086 41.6688 49.6326C38.8381 48.9928 36.6473 46.6285 36.2786 43.8412C35.8773 40.837 37.2655 38.0497 39.8684 36.6181C39.966 36.5639 40.0636 36.4988 40.1829 36.4338C40.0094 35.718 39.8467 35.0239 39.6841 34.3189C38.4585 34.3406 37.7102 33.7333 37.2547 32.6704C36.8642 31.7594 36.4413 30.8484 35.9966 29.9591C35.4652 28.8854 35.5086 27.8225 35.8448 26.7163C35.9098 26.5211 35.899 26.2608 35.8122 26.0764C34.8578 23.9832 33.8818 21.9118 32.9057 19.8294C32.6779 19.3523 32.1356 19.1353 31.6693 19.3739C30.8776 19.7861 30.0425 20.0572 29.1749 19.7644C28.6977 19.6017 28.1771 19.3631 27.8517 18.9944C27.0275 18.0833 26.4852 17.0096 26.7021 15.719C26.8648 14.743 27.4287 14.038 28.3072 13.5825C28.4699 13.4957 28.6326 13.4198 28.8386 13.3114C28.0578 12.5739 27.1359 12.2702 26.149 12.1292C24.3486 11.8689 22.6242 12.1617 20.9974 12.9209C20.5094 13.1487 20.0539 13.4849 19.6634 13.8645C19.132 14.3634 19.0452 15.0141 19.3055 15.7082C19.5767 16.424 20.043 17.0096 20.6504 17.4868C22.1145 18.6473 23.7305 19.58 25.3573 20.5019C27.9059 21.9443 30.1726 23.7013 31.8428 26.1523C33.0033 27.8551 33.8167 29.6771 33.9685 31.7594C34.1312 33.896 33.5239 35.8373 32.32 37.5725C31.55 38.6896 30.6281 39.6982 29.7388 40.7177C29.4785 41.0105 29.3484 41.2491 29.4134 41.6613C29.5978 43.0061 29.728 44.3618 29.8906 45.7066C29.9015 45.8368 29.9449 45.956 29.9774 46.1296C30.5305 46.1296 31.0836 46.1296 31.6259 46.1296C32.6888 46.1404 33.2636 46.7152 33.2636 47.7672C33.2636 49.6326 33.2636 51.4981 33.2636 53.3635C33.2636 54.4155 32.6779 55.0011 31.6259 55.012C30.8342 55.012 30.0316 54.9903 29.2399 55.0228C28.535 55.0445 27.9168 54.9035 27.5155 54.2311C26.3334 54.9252 25.0753 55.0445 23.763 55.0228C22.0711 54.9903 20.3792 55.0011 18.6873 55.0228C17.5052 55.0337 16.3881 54.8384 15.3144 54.2311C14.9023 54.9469 14.2407 55.0553 13.4815 55.0228C12.6898 54.9903 11.8873 55.0228 11.0955 55.012C10.1845 55.0011 9.56634 54.3938 9.5555 53.4828C9.54465 51.5414 9.54465 49.6001 9.5555 47.6696C9.5555 46.7586 10.152 46.1513 11.0739 46.1296C11.5619 46.1187 12.0608 46.1187 12.5488 46.1296C12.8091 46.1404 12.9067 46.0428 12.9284 45.7934C13.1562 43.7219 13.4273 41.6613 13.6225 39.5898C13.7961 37.8762 14.2082 36.2602 15.3253 34.8937C15.4337 34.7636 15.4554 34.5467 15.4554 34.3731C15.4662 32.8873 15.4446 31.3907 15.4662 29.9048C15.4879 27.6381 16.9521 25.7619 19.1537 25.4908C20.6287 25.3064 22.1687 25.3064 23.6545 25.4908C25.8345 25.7619 27.2986 27.6381 27.3311 29.8831C27.3528 31.3907 27.3311 32.8982 27.342 34.3948C27.342 34.5684 27.3962 34.7744 27.4938 34.9046C28.4265 36.0867 28.9579 37.4207 29.0989 38.9174C29.1098 38.9824 29.1315 39.0475 29.1423 39.1126C29.1965 39.1017 29.2291 39.1126 29.2508 39.0909C30.8017 37.4532 32.114 35.6637 32.4393 33.3537C32.7105 31.4123 32.1899 29.6229 31.2355 27.9527C29.8798 25.5775 27.9168 23.8097 25.6284 22.389C24.0233 21.3912 22.3639 20.4585 20.7913 19.4173C19.9996 18.8859 19.2513 18.2243 18.6331 17.4977C17.8739 16.6084 17.4943 15.5238 17.7872 14.2983C18.0041 13.409 18.5463 12.7474 19.273 12.2268C20.5853 11.2833 22.0928 10.8603 23.6762 10.6434C23.8064 10.6217 23.9257 10.5892 24.045 10.5566C24.6523 10.5566 25.2597 10.5566 25.867 10.5566C25.8995 10.5783 25.9429 10.6108 25.9755 10.6108C27.3745 10.7627 28.6651 11.1857 29.7497 12.1075C30.845 11.5869 31.9079 11.0664 32.9816 10.5458C33.2419 10.5458 33.5022 10.5458 33.7625 10.5458C34.077 10.8278 34.5108 11.0447 34.6843 11.3917C35.4652 12.9535 36.181 14.5477 36.9185 16.1312C37.1028 16.5216 37.0703 16.9012 36.9293 17.3133C36.8642 17.4868 36.8642 17.7363 36.9402 17.899C37.9054 20.003 38.8706 22.0961 39.8684 24.1893C39.9552 24.3737 40.1613 24.5364 40.3456 24.6123C41.4085 25.0678 42.2544 25.7294 42.7316 26.8247C43.122 27.7358 43.5559 28.6468 44.0005 29.5361C44.4777 30.4796 44.5211 31.3907 43.8378 32.28C44.9332 33.7116 46.0395 35.1215 47.1132 36.5531C47.2975 36.7917 47.4277 36.8242 47.7205 36.7374C50.2692 35.8915 53.0673 37.3665 53.8048 39.9477C53.8807 40.1971 53.9349 40.4466 54 40.696C54 41.0973 54 41.5094 54 41.9107C53.7614 43.0929 53.2842 44.1449 52.4057 44.8932C52.807 45.5873 53.23 46.2163 53.5553 46.8996C53.7722 47.3768 53.859 47.9082 54 48.418C53.9783 48.8735 53.9783 49.329 53.9783 49.7953ZM21.3445 53.5045V53.5153C22.4615 53.5153 23.5678 53.537 24.6848 53.5153C27.2227 53.4502 29.0339 51.3571 28.7302 48.8626C28.3398 45.5873 27.9602 42.312 27.5914 39.0367C27.2444 35.9457 24.8258 33.6573 21.7241 33.5164C18.3294 33.3645 15.5205 35.718 15.1626 38.9608C14.8155 42.1493 14.4902 45.3487 14.0347 48.5264C13.59 51.6716 15.8458 53.3635 17.8197 53.4936C18.991 53.5695 20.1623 53.5045 21.3445 53.5045ZM40.5191 37.9304C40.3348 38.0389 40.2046 38.1148 40.0745 38.2124C38.1657 39.5356 37.2764 41.889 37.8403 44.1232C38.4043 46.3573 40.3022 48.0275 42.5906 48.2987C43.4583 48.4071 43.5667 48.5156 43.6209 49.4157C43.7836 51.9536 46.1805 53.884 48.6424 53.4936C51.2886 53.0706 52.9914 50.5979 52.3732 48.0601C52.1237 47.0406 51.5815 46.2055 50.7572 45.5548C50.3126 45.2077 50.2149 44.8173 50.4861 44.4702C50.6162 44.3075 50.8114 44.1882 50.985 44.0689C52.0695 43.2989 52.6118 42.2578 52.4599 40.9346C52.3081 39.5247 51.5056 38.5703 50.1607 38.1148C49.5642 37.9088 48.9569 37.8871 48.3062 38.0823C48.4146 38.2233 48.4905 38.3317 48.5664 38.4293C49.0762 39.0909 49.5859 39.7633 50.0956 40.4249C50.3234 40.7286 50.3342 41.0431 50.1173 41.3467C49.9004 41.6396 49.5859 41.7155 49.2606 41.5745C49.0762 41.4986 48.9135 41.3142 48.7834 41.1515C47.4602 39.4488 46.1479 37.7352 44.8356 36.0325C44.0764 35.0456 43.3173 34.0695 42.5472 33.0717C42.146 33.2561 41.7881 33.4404 41.4193 33.5814C41.1265 33.6899 41.0723 33.8417 41.1373 34.1345C41.6471 36.2386 42.1351 38.3534 42.634 40.4574C42.9268 41.6938 43.2197 42.9302 43.5125 44.1666C43.5233 44.2099 43.5342 44.2533 43.545 44.2967C43.6535 44.8498 43.4583 45.2186 43.0136 45.327C42.5906 45.4246 42.2219 45.1535 42.0917 44.6221C41.7881 43.3531 41.4952 42.0842 41.2024 40.8262C40.9855 39.8935 40.7577 38.9391 40.5191 37.9304ZM25.8019 33.3428C25.8019 32.0197 25.8887 30.7508 25.7802 29.4927C25.6501 27.9093 24.4137 26.8681 22.8194 26.8573C21.8108 26.8464 20.7913 26.8356 19.7827 26.8681C18.3403 26.9007 17.1473 27.9635 16.9846 29.3951C16.9087 30.0567 16.9412 30.7182 16.9304 31.3907C16.9195 32.0305 16.9304 32.6813 16.9304 33.3862C19.902 31.5967 22.8194 31.5859 25.8019 33.3428ZM39.3262 25.9029C37.3306 25.9137 36.7124 27.8659 37.2221 29.048C37.6993 30.1651 38.2308 31.2605 38.7513 32.3559C38.9574 32.7897 39.3262 32.9416 39.76 32.7463C40.6601 32.3451 41.5495 31.9329 42.4279 31.4991C42.8401 31.293 42.9702 30.9352 42.7858 30.5122C42.2761 29.3843 41.7772 28.2346 41.2024 27.1393C40.7686 26.3475 40.0203 25.968 39.3262 25.9029ZM30.6607 13.2788C31.3982 14.8731 32.1248 16.4131 32.8623 17.9749C33.795 17.5411 34.6626 17.1289 35.5411 16.7168C34.7928 15.1225 34.077 13.5825 33.3503 12.0208C32.4393 12.4546 31.5825 12.8558 30.6607 13.2788ZM14.078 53.5153C13.5141 52.5501 12.7549 51.7692 12.6464 50.7172C12.5488 49.6977 12.5705 48.6674 12.538 47.6371C12.0716 47.6371 11.5511 47.6371 11.0196 47.6371C11.0196 49.611 11.0196 51.5523 11.0196 53.5153C12.0066 53.5153 12.9501 53.5153 14.078 53.5153ZM28.7627 53.5045C29.793 53.5045 30.7583 53.5045 31.7235 53.5045C31.7235 51.5306 31.7235 49.5893 31.7235 47.6371C31.1704 47.6371 30.6498 47.6371 30.0967 47.6371C30.1076 47.8106 30.1184 47.9516 30.1401 48.0926C30.4763 49.9363 30.1835 51.6282 28.9037 53.0815C28.817 53.1682 28.8061 53.3418 28.7627 53.5045ZM34.1529 19.016C35.1073 21.055 36.0508 23.0722 36.9835 25.0786C37.4607 24.8617 37.8837 24.6665 38.3284 24.4604C37.3848 22.4432 36.4413 20.4259 35.4977 18.387C35.0097 18.6148 34.5976 18.81 34.1529 19.016ZM29.6412 14.602C28.8386 14.8839 28.112 15.231 28.1228 16.1529C28.1337 16.988 28.4591 17.7797 29.2399 18.2243C29.934 18.6148 30.5631 18.3002 31.1813 17.9098C30.6715 16.7927 30.1618 15.7082 29.6412 14.602Z" fill="white"/>
<path d="M21.377 35.0022C23.8281 35.0022 25.8236 37.0086 25.8236 39.4488C25.8236 41.889 23.8064 43.8846 21.3662 43.8846C18.926 43.8846 16.9196 41.8673 16.9196 39.438C16.9304 36.9869 18.926 35.0022 21.377 35.0022ZM20.6287 36.6182C19.1429 36.9652 18.2318 38.3751 18.4488 39.9369C18.6548 41.4118 20.0647 42.5181 21.5831 42.4096C23.1231 42.2903 24.3161 41.0106 24.327 39.4705C24.3378 38.1257 23.275 36.7592 22.1037 36.6615C22.1037 37.3014 22.1037 37.9305 22.1037 38.5703C22.1037 39.1126 21.8108 39.4597 21.3662 39.4597C20.9215 39.4597 20.6287 39.1126 20.6287 38.5703C20.6287 37.9196 20.6287 37.2906 20.6287 36.6182Z" fill="white"/>
<path d="M18.0909 52.0403C16.7135 52.0078 15.5747 50.9449 15.4663 49.6326C15.4554 49.5025 15.4663 49.3723 15.4771 49.2422C15.5314 48.7975 15.8133 48.5481 16.2255 48.5589C16.6267 48.5698 16.9087 48.8409 16.9521 49.2747C17.0389 50.1532 17.3425 50.4786 18.1993 50.5653C18.6765 50.6196 18.9802 50.9232 18.9585 51.3354C18.9368 51.7692 18.5789 52.0512 18.0909 52.0403Z" fill="white"/>
</svg>
