<svg viewBox="0 0 65 65" fill="none" xmlns="http://www.w3.org/2000/svg">
<path d="M53.9984 49.3178C53.9665 48.463 53.4862 47.8935 52.7001 47.5586C51.4785 47.0392 50.1341 46.878 48.8242 47.0941C48.3426 47.1695 48.1078 47.0563 47.8717 46.6401C47.1848 45.4339 44.567 41.0985 43.8518 39.9135C43.8039 39.8304 43.749 39.7515 43.6877 39.6777C43.2298 38.9043 42.7707 38.1308 42.2927 37.3703C41.4535 36.0344 40.0337 35.4237 38.484 35.7196C37.5575 35.8941 36.6322 36.0733 35.7069 36.2525V30.8052L36.1176 30.85C37.4406 31.0104 38.6185 30.3902 39.1674 29.2453C39.7162 28.1005 39.4801 26.8577 38.5277 25.9145C38.2409 25.6303 37.9257 25.3721 37.6531 25.0738C37.1267 24.4984 36.5212 24.1376 35.6856 24.2944V12.2337C36.1329 11.8989 36.5897 11.709 36.7655 11.373C36.8836 11.1372 36.6204 10.7057 36.5401 10.4062C36.6239 10.089 36.8316 9.72939 36.7762 9.4134C36.6841 8.86632 36.1624 8.82387 35.6585 8.8392C35.6585 8.23316 35.6349 7.67192 35.6655 7.11422C35.6927 6.62962 35.5475 6.25822 35.1332 6H34.6057C34.1796 6.24996 34.0403 6.62137 34.0675 7.10832C34.0993 7.68017 34.0746 8.25438 34.0746 8.84038C33.5446 8.82505 33.0997 8.884 32.9356 9.40161C32.8763 9.5612 32.8726 9.73609 32.9251 9.89804C32.9776 10.06 33.0831 10.1995 33.2248 10.2942C33.1138 10.6998 32.9049 11.0594 32.9498 11.3848C33.0289 11.9531 33.5836 11.9449 34.0214 12.0003C34.0425 12.037 34.0577 12.0768 34.0663 12.1182C34.0663 16.2323 34.0663 20.3457 34.0663 24.4583C34.0601 24.5285 34.0388 24.5964 34.0037 24.6575C33.9687 24.7186 33.9208 24.7713 33.8633 24.812C33.3357 25.1021 33.0973 25.5501 33.0088 26.1267C32.9864 26.2764 32.8318 26.4934 32.7007 26.524C31.9678 26.6927 31.2242 26.8141 30.4583 26.9556C30.077 25.8555 29.7064 24.7849 29.3288 23.6966C29.3288 23.7037 29.3288 23.6825 29.3406 23.6742C29.3817 23.6423 29.426 23.6147 29.4727 23.5917C30.5716 23.0847 31.1511 22.2039 31.3612 21.0331C31.5524 19.9319 31.4143 18.853 31.1039 17.8048C30.9433 17.2625 30.9858 16.9158 31.4509 16.5503C31.9572 16.1506 32.0268 15.7061 31.6869 15.1484C31.36 14.6155 30.9929 14.0778 30.5338 13.6628C29.2473 12.499 27.6823 12.4059 26.0004 12.4188C22.9141 12.4436 21.6111 14.4551 20.4627 15.205C20.2568 15.3254 20.1048 15.5198 20.0378 15.7485C19.9647 15.9224 19.9282 16.1094 19.9304 16.298C19.9139 17.7235 20.5984 20.354 21.1107 21.6757C21.27 22.0919 21.5981 22.2935 22.0419 22.3466C22.2011 22.3586 22.3496 22.4317 22.4561 22.5506C22.6363 22.8657 22.7983 23.1909 22.9412 23.5245C21.5898 23.9006 20.949 24.884 20.4509 26.0418C19.8147 27.5251 19.0936 28.973 18.4539 30.4551C18.244 30.9532 18.1073 31.479 18.0479 32.0161C17.7221 34.8459 17.3881 37.6757 17.145 40.5054C17.0187 41.9875 16.4734 43.4779 17.1167 44.9953C16.8263 45.0449 16.5679 45.0861 16.3106 45.1321C15.0902 45.3502 13.9146 45.6969 12.8725 46.3949C11.9495 47.0115 11.2461 47.7944 11.0195 48.9181C10.9286 49.3709 11.1635 49.7611 11.56 49.8696C11.6614 49.9029 11.7687 49.9142 11.8747 49.903C11.9808 49.8918 12.0833 49.8582 12.1755 49.8045C12.2676 49.7508 12.3473 49.6782 12.4092 49.5914C12.4712 49.5047 12.514 49.4058 12.5349 49.3013C12.6173 48.9199 12.7916 48.5644 13.0427 48.2656C13.2939 47.9669 13.6142 47.7339 13.976 47.5869C14.9391 47.1849 15.9647 46.9325 16.968 46.6272C17.5038 46.4656 17.7941 46.6272 17.996 47.2096C18.4279 48.4559 19.5952 48.9098 20.8156 48.3887C21.4789 48.1069 22.1658 47.864 22.7831 47.5032C23.149 47.2886 23.3968 46.8759 23.7001 46.56C23.8182 46.4338 23.9267 46.2416 24.0707 46.2062C25.8151 45.7759 27.2515 44.9093 28.1721 43.3835C28.7127 43.795 29.2343 44.1924 29.7631 44.5968C30.0216 44.7973 30.3095 44.9788 30.5173 45.2264C31.6114 46.534 32.696 47.8499 33.7559 49.1857C33.9421 49.427 34.0497 49.7197 34.0639 50.0241C34.0923 51.7467 34.0746 53.4693 34.0805 55.1919C34.0805 55.7673 34.3909 56.1092 34.8736 56.1057C35.3563 56.1022 35.6549 55.759 35.6596 55.1801C35.6667 54.1437 35.6596 53.1061 35.6596 52.0697C35.6596 51.9235 35.6797 51.7773 35.6986 51.5356C36.6109 52.6451 37.4631 53.6709 38.2951 54.712C38.3789 54.817 38.3612 55.0292 38.3412 55.1837C38.2349 55.9654 38.0556 56.7412 38.0107 57.5253C37.9446 58.7044 38.6315 59.4531 39.8189 59.5498C41.7816 59.7113 43.7479 59.8469 45.7119 59.9919C46.538 60.0532 47.2049 59.7691 47.625 59.038C48.0452 58.307 47.9355 57.5913 47.4669 56.9157C46.6407 55.7201 45.5266 54.9113 44.2141 54.3218C43.9205 54.1878 43.6715 53.9726 43.4965 53.7016C41.594 50.5417 39.7138 47.3676 37.8313 44.1971C37.7357 44.0356 37.6472 43.8693 37.5256 43.6524C37.8572 43.5615 38.1838 43.4533 38.504 43.3281C38.8676 43.1631 39.0576 43.2798 39.2677 43.597C40.7194 45.7759 42.1923 47.9406 43.6547 50.1125C43.7408 50.241 43.8636 50.3872 43.8624 50.5252C43.8624 51.5863 44.4018 52.4376 44.901 53.2972C45.5159 54.3583 46.4802 54.6177 47.5519 54.0435C49.3329 53.0885 51.1021 52.1122 52.8807 51.1524C53.6125 50.7492 54.0291 50.1479 53.9984 49.3178ZM34.2634 28.5285C34.3637 27.8022 34.4829 27.0794 34.6021 26.3071C35.1344 26.4038 35.5558 26.425 35.878 25.9958C35.9323 25.9239 36.212 25.918 36.2958 25.9899C36.7222 26.3548 37.1295 26.7412 37.5162 27.1478C37.7035 27.3266 37.8267 27.562 37.8668 27.8177C37.9069 28.0734 37.8617 28.3352 37.7381 28.5627C37.6359 28.7993 37.4612 28.9974 37.2391 29.1285C37.0171 29.2597 36.7591 29.3171 36.5023 29.2925C35.9122 29.2571 35.3162 29.1746 34.7237 29.1062C34.3814 29.0649 34.2174 28.8621 34.2634 28.5285ZM34.0557 31.1224V36.5697C33.6556 36.6346 33.5895 36.3893 33.5836 36.1075C33.5588 35.0464 32.9403 34.2104 32.5036 33.3072C32.2546 32.7908 31.9926 32.2803 31.7011 31.699L34.0557 31.1224ZM32.604 28.1665C32.6925 28.7006 32.7727 29.1911 32.8672 29.77L31.393 30.1367C31.2266 29.566 31.0803 29.0661 30.9138 28.5002L32.604 28.1665ZM29.1505 22.0094L26.7688 19.2763C27.7708 19.0193 28.8142 19.1207 29.6297 18.2706C29.8504 19.6312 30.1833 20.8692 29.1505 22.0106V22.0094ZM22.4679 20.6346L22.2697 20.5485C22.1422 19.5888 21.6335 17.4299 21.5214 16.4076C22.9377 15.5151 24.7553 13.5048 27.6717 14.0283C28.7127 14.2146 29.5837 14.6544 30.1502 15.6224C29.6156 16.1223 29.1364 16.6163 28.6064 17.0479C28.3319 17.2546 28.0184 17.4038 27.6847 17.4865C27.2577 17.5897 26.8238 17.6622 26.3864 17.7034C25.7679 17.7717 25.1963 18.0656 24.7812 18.5288C24.282 19.0723 23.7934 19.6289 23.2658 20.1441C23.0463 20.3516 22.7382 20.4719 22.4679 20.6346ZM22.0619 46.1131C21.4069 46.4008 20.7637 46.7156 20.0886 46.9561C19.9363 47.0104 19.5704 46.8606 19.5102 46.7203C19.0965 45.7716 18.7329 44.8019 18.4209 43.8151C18.3123 43.4555 18.4468 43.0169 18.4893 42.6172C18.8638 39.0886 19.2427 35.5604 19.6259 32.0327C19.6522 31.7545 19.7215 31.482 19.8313 31.225C20.5949 29.5271 21.3727 27.8375 22.1516 26.1479C22.6131 25.1493 23.3885 24.8061 24.4378 25.121C24.9713 25.2825 25.3631 25.1375 25.5366 24.7142C25.7101 24.2909 25.5165 23.9101 25.035 23.6471C24.8304 23.5324 24.6595 23.3661 24.5393 23.1649C24.2867 22.7239 24.0849 22.2558 23.8677 21.8113L25.428 20.1689L27.5773 22.619C27.379 22.7215 27.1583 22.7652 27.0674 22.8984C26.901 23.1342 26.6826 23.4573 26.7275 23.6978C26.7723 23.9383 27.1158 24.3074 27.3176 24.305C27.9408 24.2956 28.0258 24.7283 28.1579 25.1304C28.7331 26.9383 29.2953 28.7462 29.8445 30.5541C30.0593 31.2615 30.2246 31.9784 30.4347 32.6835C30.5397 33.029 27.1075 34.7822 26.7263 34.9001C26.5416 34.9603 26.362 35.0352 26.1893 35.1242C26.1586 35.1336 26.1291 35.143 26.0984 35.1548L25.7868 35.2727C25.3147 34.2705 24.8367 33.2825 24.3918 32.2803C24.341 32.1624 24.4508 31.9513 24.5346 31.8086C25.1754 30.738 25.8328 29.6769 26.4749 28.6098C26.8125 28.0509 26.744 27.5793 26.3002 27.3282C25.8753 27.0924 25.4587 27.2445 25.1271 27.7857C24.1073 29.4481 23.0333 31.0811 22.1068 32.7932C21.7185 33.51 21.6217 34.3932 21.4411 35.2114C20.9336 37.599 20.4261 39.9831 19.9151 42.3684C19.7675 43.0605 19.8549 43.2491 20.4828 43.6029C20.9419 43.8611 21.3986 44.1252 21.866 44.3693C22.128 44.506 22.2012 44.6121 22.0572 44.934C21.9132 45.2559 21.9581 45.6415 21.9191 45.9952L22.0619 46.1131ZM26.9694 42.2788C26.3179 43.5757 25.2168 44.2773 23.7568 44.6369C23.7285 43.1277 22.3735 43.0051 21.5332 42.333L23.3295 34.0147C23.7308 34.9037 24.4909 35.63 24.4602 36.6935C24.4574 36.903 24.4975 37.1109 24.5782 37.3043C24.7985 37.8764 25.0523 38.4351 25.3383 38.9774C25.497 39.2655 25.7344 39.5027 26.0229 39.6612C26.9022 40.0963 27.4097 41.4074 26.973 42.2788H26.9694ZM26.6708 38.1143L26.1267 36.9093C26.2872 36.8279 26.4324 36.7536 26.5752 36.6841H26.587C27.0426 36.506 30.882 34.7575 31.3777 34.5429C31.5606 34.9485 31.7318 35.3246 31.9241 35.7585L26.6708 38.1143ZM34.0344 46.9998L32.539 45.1757L34.0344 44.776V46.9998ZM43.4765 55.7496C44.5505 56.1623 45.4616 56.8013 46.1202 57.754C46.2087 57.8826 46.2984 58.1372 46.2383 58.2103C46.1741 58.2733 46.0975 58.3223 46.0134 58.3542C45.9293 58.386 45.8395 58.4001 45.7496 58.3954C43.8376 58.2681 41.9256 58.1195 40.0148 57.9792C39.7575 57.9604 39.5545 57.8979 39.584 57.5831C39.6336 57.0631 39.689 56.5443 39.7504 55.9465C40.946 56.3545 42 56.2342 43.035 55.7661C43.1754 55.7078 43.3321 55.702 43.4765 55.7496ZM42.0755 54.4196C40.959 54.8146 40.2933 54.6319 39.6229 53.8148C38.4002 52.3213 37.1759 50.8278 35.95 49.3343C35.4366 48.707 35.5357 48.1399 36.2132 47.7308C36.4373 47.5935 36.6536 47.4439 36.8611 47.2827C37.0689 47.1259 37.2636 46.9514 37.5126 46.7451L42.0755 54.4196ZM35.675 44.381C35.675 44.3174 35.767 44.2006 35.8107 44.203C35.8586 44.2046 35.9057 44.2158 35.9491 44.2361C35.9925 44.2563 36.0314 44.2852 36.0633 44.3209C36.2627 44.6275 36.441 44.9482 36.677 45.3491L35.8166 46.1803L35.6679 46.1225C35.6679 45.5448 35.6632 44.9623 35.675 44.381ZM37.0571 41.9805C36.9522 42.1161 36.8059 42.2138 36.6404 42.2587C35.4413 42.6525 34.2398 43.0428 33.0324 43.4142C31.4119 43.9129 29.9035 43.2586 29.1529 41.7376C28.7587 40.937 28.3857 40.1258 27.9785 39.2615L32.3726 37.2889C32.7267 38.5116 33.5824 38.3312 34.4971 38.1143C35.4118 37.8973 36.317 37.7523 37.2789 37.566C37.8207 39.0894 37.8856 40.5573 37.0571 41.9805ZM44.8255 49.0277C43.3136 46.7415 41.7568 44.4824 40.239 42.2021C39.9451 41.7612 39.6489 41.3768 39.0269 41.4251C39.4223 40.0008 39.2748 38.6354 38.8723 37.2382C39.8 37.1675 40.4822 37.467 40.9448 38.2051C41.4488 39.008 41.9268 39.8287 42.4213 40.6375C42.4626 40.7036 42.5075 40.7674 42.5559 40.8285C43.362 42.1833 45.8122 46.2664 46.505 47.4124C46.9617 48.1706 46.9429 48.3144 46.2548 48.8863C46.0738 49.0238 45.882 49.1465 45.6812 49.2529C45.3236 49.4628 45.084 49.418 44.8255 49.0277ZM52.0923 49.76C50.342 50.7244 48.5822 51.6724 46.8296 52.6333C46.5829 52.7689 46.4023 52.7642 46.2654 52.5001C46.0175 52.0214 45.7685 51.5427 45.4817 50.9909C46.7458 50.6584 47.6215 49.9781 48.247 48.9605C48.3232 48.8465 48.4395 48.7653 48.5728 48.733C49.753 48.4972 50.9132 48.5255 52.0309 49.0101C52.1139 49.0457 52.1887 49.0979 52.2508 49.1633C52.3129 49.2288 52.361 49.3062 52.3921 49.3909C52.4145 49.4888 52.228 49.6857 52.0923 49.76Z" fill="white"/>
</svg>
