<svg viewBox="0 0 65 65" fill="none" xmlns="http://www.w3.org/2000/svg">
<path d="M16.9068 50.7888C15.6583 50.7155 14.4489 50.7888 13.3052 50.5451C11.2222 50.1058 9.77671 48.803 9.21241 46.715C8.62287 44.5373 9.15939 42.5856 10.7399 40.9722C12.6424 39.0294 15.7467 38.5206 18.1882 39.7035C19.491 40.3347 20.362 41.3207 20.6739 42.7623C20.7849 43.2673 20.6978 43.7066 20.1424 43.8379C19.5869 43.9692 19.3016 43.6056 19.2057 43.0994C19.137 42.7255 18.9896 42.3705 18.7733 42.058C18.5569 41.7454 18.2766 41.4825 17.9508 41.2866C15.0586 39.4207 10.9823 41.2866 10.519 44.6875C10.4421 45.221 10.4755 45.7646 10.6173 46.2845C10.7591 46.8045 11.0062 47.2899 11.3433 47.7104C11.6804 48.131 12.1003 48.4778 12.577 48.7293C13.0537 48.9809 13.5769 49.1319 14.1144 49.1729C15.1243 49.2663 16.1797 49.1186 17.2035 48.9936C18.0064 48.8951 18.2702 49.1072 18.3939 49.9152C18.553 50.9541 18.6906 52.0335 19.0883 52.9904C19.9593 55.086 22.1029 56.2512 24.4018 56.0669C26.7562 55.8775 28.694 54.4838 29.1901 52.4211C29.4022 51.5449 29.3062 50.5842 29.2671 49.6665C29.2583 49.4607 28.9338 49.1943 28.6952 49.0845C26.3572 48.0077 25.11 45.7707 25.4698 43.2774C25.543 42.7724 25.6945 42.3634 26.2916 42.4089C26.8887 42.4543 26.9872 42.8734 26.9733 43.3872C26.9594 43.901 26.9329 44.4363 27.0301 44.94C27.4593 47.1555 29.6193 48.4407 32.0709 47.9698C34.4556 47.5166 35.6562 45.4033 34.8482 43.054C34.3685 41.6653 33.4015 40.7172 32.0608 40.1416C31.9207 40.0822 31.778 40.0343 31.6354 39.9812C31.1683 39.807 30.9852 39.4599 31.1456 39.0041C31.3059 38.5484 31.7048 38.4272 32.1555 38.5838C34.2322 39.3046 35.6903 40.6655 36.3215 42.7939C37.3314 46.1544 35.381 49.087 31.903 49.496C31.5811 49.5339 31.2567 49.5503 30.835 49.5857C31.1355 52.0537 30.6356 54.2743 28.617 55.9331C27.3021 57.0223 25.6406 57.6045 23.9334 57.5742C20.1714 57.5629 17.7312 55.187 16.9068 50.7888Z" fill="white"/>
<path d="M28.747 25.8764C28.5248 29.3 28.1158 32.6934 27.2599 36.0123C27.0831 36.7066 26.7461 36.9894 26.2588 36.8265C25.6541 36.6233 25.6869 36.1436 25.8094 35.6487C26.7095 32.0205 27.1412 28.3267 27.2359 24.5988C27.2523 23.9588 27.5477 23.5889 28.0173 23.6091C28.4869 23.6293 28.7495 24.0029 28.747 24.6442C28.7457 25.052 28.747 25.4635 28.747 25.8764Z" fill="white"/>
<path d="M24.5091 29.7898C24.0353 32.2725 23.5614 34.7553 23.0876 37.238C22.9917 37.743 22.6912 38.0195 22.166 37.9046C21.6156 37.7783 21.5475 37.3592 21.6409 36.8883C21.9148 35.5085 22.2254 34.1363 22.4665 32.7502C22.6483 31.7061 22.7505 30.6482 22.878 29.5941C22.9374 29.1043 23.1305 28.7571 23.6835 28.771C24.1543 28.7862 24.3879 29.1384 24.5091 29.7898Z" fill="white"/>
<path d="M53.9195 53.4941C52.8161 50.862 46.3551 33.9015 45.0826 30.392C45.0479 30.2531 45.0057 30.1161 44.9563 29.9817C44.3441 28.2938 43.7583 26.5959 43.1612 24.9017C42.6373 23.4146 42.1134 21.9275 41.5718 20.3924C42.3482 20.1033 43.0715 19.8268 43.8 19.5643C44.7745 19.2133 45.4575 18.5796 45.8198 17.5911C45.9061 17.3527 46.0595 17.1445 46.2617 16.9915C50.0388 14.3189 48.3913 9.08498 45.3956 7.6029C43.6674 6.74825 41.9177 6.88081 40.1617 7.51075C33.9658 9.72502 27.7736 11.9443 21.5853 14.1687C20.3229 14.6232 19.0428 15.0638 17.8776 15.7051C16.1809 16.6367 15.2366 18.1037 15.3969 20.1387C15.4028 20.345 15.3363 20.5469 15.2088 20.7093C14.4008 21.7048 14.0063 22.9728 14.1068 24.251C14.2074 25.5292 14.7954 26.7199 15.7492 27.5768C17.0595 28.7672 18.7474 28.9957 20.2497 28.107C20.4845 27.9681 20.6827 27.4973 20.6423 27.2233C20.5791 26.7979 20.1802 26.6237 19.7308 26.7537C19.5023 26.8193 19.2776 26.9027 19.0567 26.9898C18.2689 27.2953 17.5632 27.1236 16.9308 26.611C16.2306 26.0463 15.7709 25.2369 15.6444 24.3463C15.3767 22.6887 16.0029 21.6536 17.5809 21.0956C19.0487 20.5755 20.516 20.0524 21.9829 19.5264C28.117 17.3348 34.246 15.1319 40.3902 12.9732C40.9994 12.7693 41.6481 12.7114 42.2838 12.804C43.6182 12.9997 44.5019 14.1473 44.6193 15.6281C44.7341 17.0546 44.2115 17.8209 42.7698 18.346L33.0732 21.8808C31.7427 22.3656 31.2251 23.1432 31.114 24.5546C30.9587 26.5404 30.7668 28.5249 30.4992 30.498C30.3161 31.8463 29.9778 33.1731 29.7064 34.5087C29.6054 35.0036 29.6445 35.4631 30.2113 35.6007C30.7782 35.7383 31.0433 35.3937 31.1556 34.8773C31.268 34.361 31.4397 33.8674 31.5078 33.3624C31.8866 30.5536 32.2312 27.7409 32.596 24.9295C32.6554 24.4788 32.7602 24.0332 32.8485 23.585L33.101 23.6204C33.1843 23.8401 33.2702 24.0572 33.3535 24.2781C34.2212 26.7491 35.0902 29.2217 35.9604 31.696C35.9794 31.7751 36.0026 31.853 36.0298 31.9296C36.0588 32.0116 36.0854 32.0937 36.1144 32.1821C37.2632 35.4252 44.3668 53.7453 45.5168 56.9872C46.148 58.7761 47.4862 59.7014 49.4303 59.6585C49.5869 59.6459 49.8027 59.637 50.0186 59.6105C52.7782 59.2545 55.1995 56.5454 53.9195 53.4941ZM39.9382 11.5214C35.8 12.9846 31.6707 14.4692 27.5363 15.9399L17.5797 19.4923C17.3802 19.563 17.1757 19.6185 16.9131 19.7031C16.8386 18.9053 17.0924 18.2463 17.6251 17.8095C18.2803 17.2679 18.9999 16.7175 19.7876 16.431C26.8378 13.8607 33.8976 11.3283 40.9671 8.83376C44.0512 7.74429 46.5659 9.33872 46.9307 12.52C46.9904 12.9795 46.9482 13.4466 46.807 13.888C46.6659 14.3294 46.4292 14.7342 46.114 15.0739C46.0534 14.9148 46.0079 14.8214 45.9814 14.7179C45.224 11.8875 42.7017 10.5443 39.9382 11.5214ZM41.0832 41.072C40.8855 40.5552 40.6911 40.0469 40.5 39.547C40.7992 39.6391 41.0668 39.7174 41.2575 39.7793C43.5298 39.6101 45.0965 38.8577 46.0546 37.1282L46.7881 39.0496C46.5356 39.0938 46.3361 39.3021 46.2112 39.6051C45.5118 41.2866 42.9504 42.1299 41.462 41.2146C41.3466 41.1422 41.2178 41.0937 41.0832 41.072ZM44.5864 33.2577C44.8692 34.005 45.1798 34.823 45.5105 35.6903C45.1924 35.7029 44.9879 35.9617 44.8124 36.2937C43.8959 38.0296 41.9215 38.6923 40.1099 37.8579C40.0152 37.8132 39.9162 37.7781 39.8145 37.7531C39.5052 36.9414 39.2123 36.1713 38.9435 35.4618C41.01 36.0741 43.4629 35.0919 44.5864 33.2577ZM40.1541 20.886C40.9759 23.2051 41.7713 25.4446 42.5641 27.6841C42.7383 28.1752 42.9087 28.6663 43.0804 29.1573C43.1082 29.2646 43.1448 29.3719 43.1788 29.4679C43.2773 29.7494 43.4225 30.1483 43.6055 30.6394C43.7574 31.1575 43.7064 31.7141 43.4629 32.196C42.7585 33.7109 40.6237 34.5945 39.1013 33.9027C38.6518 33.697 38.1544 33.264 37.9891 32.8196C36.7809 29.579 35.6511 26.3081 34.4682 22.9652L40.1541 20.886ZM49.7207 58.136C48.2891 58.3317 47.3688 57.7346 46.8626 56.3005C46.2503 54.5697 43.959 48.5997 41.775 42.881C42.097 42.9833 42.3861 43.0691 42.5981 43.1335C44.8276 42.9757 46.4056 42.2586 47.3789 40.5746C49.5906 46.3527 51.9375 52.4754 52.5485 54.2086C52.6747 54.571 52.8085 54.9661 52.801 55.3448C52.7505 56.7082 51.3845 57.9189 49.7207 58.1411V58.136Z" fill="white"/>
<path d="M23.7062 27.1135C23.5105 26.832 23.1949 26.5694 23.1495 26.2652C23.0851 25.8372 23.402 25.538 23.8653 25.5393C24.3286 25.5406 24.6467 25.8385 24.5811 26.2665C24.5343 26.5707 24.2124 26.832 24.0142 27.1135H23.7062Z" fill="white"/>
</svg>
