<svg viewBox="0 0 65 65" fill="none" xmlns="http://www.w3.org/2000/svg">
<path d="M25.4664 52.0676C19.3645 52.0676 13.2625 52.0676 7.16052 52.0676C7.09838 52.0676 7.03624 52.0676 6.9741 52.0676C6.56399 52.0676 6.10417 52.0303 6.01718 51.5705C5.95504 51.2598 6.06689 50.8248 6.26573 50.5638C7.60791 48.8364 8.98738 47.1338 10.342 45.4312C15.4249 39.0683 20.5202 32.7177 25.5907 26.3548C25.9635 25.8825 26.3612 25.6713 26.9578 25.6837C34.3895 25.7334 41.8337 25.7458 49.2654 25.7831C50.185 25.7831 50.4833 26.1559 50.2845 27.088C48.5197 35.1411 46.755 43.1818 44.9903 51.2225C44.8163 52.0054 44.6174 52.1546 43.7724 52.1546C37.6704 52.1546 31.5684 52.1546 25.4664 52.1546C25.4664 52.1173 25.4664 52.0924 25.4664 52.0676ZM43.4865 50.5017C44.2198 47.1587 44.9406 43.8653 45.6614 40.5596C45.5371 40.5471 45.4501 40.5223 45.3755 40.5223C42.7284 40.5223 40.0814 40.5347 37.4467 40.5099C37.0242 40.5099 36.9247 40.746 36.8005 41.0318C35.5701 44.0145 34.3398 46.9847 33.1219 49.9673C33.0597 50.1289 33.01 50.3029 32.9479 50.4893C36.4773 50.5017 39.9571 50.5017 43.4865 50.5017ZM20.6569 50.5017C24.1243 50.5017 27.4549 50.5141 30.7855 50.4768C30.9719 50.4768 31.2329 50.2159 31.3074 50.0294C32.5626 47.0344 33.793 44.0393 35.0357 41.0443C35.0979 40.8951 35.1351 40.7336 35.1973 40.572C35.0979 40.5471 35.0357 40.5223 34.986 40.5223C32.3389 40.5223 29.6918 40.5099 27.0448 40.5347C26.8335 40.5347 26.5352 40.7708 26.4109 40.9821C24.5965 43.9399 22.7945 46.9225 20.9925 49.8927C20.8931 50.0543 20.8185 50.2159 20.6569 50.5017ZM24.7456 40.5596C24.5716 40.5347 24.4847 40.5223 24.4101 40.5223C21.85 40.5223 19.2899 40.5099 16.7298 40.5347C16.4937 40.5347 16.1954 40.7336 16.0339 40.9324C13.6229 43.915 11.2368 46.9101 8.85068 49.8927C8.73883 50.0294 8.63941 50.1786 8.49028 50.3898C8.66426 50.4147 8.75126 50.4396 8.85068 50.452C12.0197 50.4644 15.1764 50.4893 18.3454 50.4768C18.5442 50.4768 18.8052 50.3029 18.9171 50.1413C19.3645 49.4702 19.7746 48.7618 20.1971 48.0659C21.7009 45.5803 23.1922 43.1197 24.7456 40.5596ZM47.3391 32.9041C47.2024 32.8544 47.1527 32.8172 47.0905 32.8172C44.9033 32.8172 42.716 32.8047 40.5287 32.8296C40.3548 32.8296 40.1062 33.0657 40.0316 33.2521C39.5718 34.296 39.1493 35.3524 38.7143 36.4212C38.3788 37.229 38.0556 38.0243 37.7077 38.8818C40.5288 38.8818 43.2628 38.8818 46.0342 38.8818C46.4692 36.8686 46.9041 34.8801 47.3391 32.9041ZM38.4409 32.8047C36.0921 32.8047 33.8675 32.7923 31.643 32.8172C31.4566 32.8172 31.2204 33.0408 31.1086 33.2273C30.1517 34.7683 29.2196 36.3093 28.2875 37.8628C28.1011 38.1735 27.9147 38.4842 27.6786 38.8818C30.4126 38.8818 33.0225 38.8818 35.6447 38.8694C35.769 38.8694 35.9802 38.7576 36.0175 38.6457C36.8129 36.7443 37.5958 34.8304 38.4409 32.8047ZM17.7364 38.7949C17.8234 38.8446 17.8607 38.8818 17.898 38.8818C20.4084 38.8818 22.9312 38.8943 25.4416 38.8694C25.628 38.8694 25.8766 38.6706 25.9884 38.4842C26.8211 37.142 27.6413 35.7874 28.4491 34.4327C28.7598 33.9232 29.0705 33.4137 29.3936 32.8793C29.2693 32.8296 29.2072 32.8047 29.1575 32.8047C27.0572 32.8047 24.9569 32.7923 22.8566 32.8172C22.6329 32.8172 22.372 33.016 22.2104 33.2024C21.1416 34.5073 20.0977 35.8246 19.0538 37.142C18.6188 37.6888 18.1714 38.2356 17.7364 38.7949ZM48.557 27.3863C46.5686 27.3863 44.6299 27.3863 42.7036 27.3987C42.5793 27.3987 42.4053 27.5354 42.3556 27.6597C41.8709 28.803 41.3987 29.9464 40.9016 31.1891C43.1634 31.1891 45.3382 31.1891 47.5131 31.1767C47.6125 31.1767 47.7616 31.0276 47.7865 30.9157C48.035 29.76 48.2836 28.6042 48.557 27.3863ZM32.3638 31.1518C32.662 31.1643 32.8609 31.1891 33.0597 31.1891C34.5759 31.1891 36.0921 31.1891 37.6207 31.1891C39.112 31.1891 39.112 31.1891 39.6837 29.8221C40.0068 29.0267 40.3299 28.2438 40.6903 27.3738C38.7143 27.3738 36.8626 27.3738 35.0109 27.3863C34.8493 27.3863 34.6256 27.4733 34.551 27.5975C33.8178 28.7285 33.1094 29.9091 32.3638 31.1518ZM32.7242 27.3987C32.4632 27.3738 32.3141 27.349 32.1525 27.349C30.7109 27.3366 29.2817 27.3614 27.8401 27.2993C27.1442 27.262 26.6968 27.4981 26.2867 28.0574C25.541 29.0889 24.7084 30.0706 23.826 31.1767C26.0505 31.1767 28.126 31.1767 30.2014 31.1643C30.3132 31.1643 30.4624 31.1021 30.5121 31.0151C31.2453 29.8345 31.9661 28.6539 32.7242 27.3987Z" fill="white"/>
<path d="M53.7145 55.5101C53.2049 55.4355 52.9936 55.1497 52.8818 54.6526C52.5711 53.1985 52.3226 51.7072 51.8254 50.3029C51.1792 48.4636 50.1104 46.8853 48.209 46.0526C47.6249 45.7917 47.5752 44.9341 48.122 44.6732C50.9182 43.3558 51.8627 40.8082 52.5463 38.0865C52.7078 37.4278 52.8072 36.7319 52.8818 36.0608C52.9439 35.5264 53.1801 35.1784 53.7393 35.1909C54.2986 35.2033 54.4974 35.5886 54.5471 36.1105C54.7459 38.0492 55.2182 39.9134 56.1751 41.6408C56.8711 42.9084 57.7783 43.9648 59.1329 44.5737C59.8289 44.8844 59.8786 45.7295 59.2199 46.0402C57.0451 47.0344 56.0011 48.9234 55.3176 51.0486C54.9448 52.1919 54.7708 53.3974 54.5595 54.578C54.4601 55.1 54.2488 55.4355 53.7145 55.5101ZM50.2596 45.3443C51.9746 46.6989 52.9564 48.5009 53.7145 50.5763C54.4601 48.4885 55.4543 46.6864 57.1693 45.3318C55.4419 43.9772 54.4725 42.1752 53.7145 40.0998C52.9564 42.2001 51.9622 43.9896 50.2596 45.3443Z" fill="white"/>
<path d="M30.9843 10C31.7424 10.087 31.9164 10.4474 32.0282 10.9445C32.2519 11.976 32.4632 13.0199 32.8236 14.0141C33.2337 15.1202 33.9296 16.0523 35.0606 16.5867C35.6819 16.8849 35.7441 17.6927 35.16 17.991C33.2213 18.9603 32.6372 20.7623 32.1773 22.6513C32.0903 22.9993 32.0655 23.3473 32.0282 23.6953C31.9661 24.2048 31.7424 24.6025 31.1831 24.6025C30.6612 24.6025 30.4623 24.2421 30.3505 23.7574C30.1019 22.6638 29.8782 21.5577 29.493 20.5138C29.0953 19.445 28.3993 18.5626 27.3181 18.0531C26.6843 17.7549 26.6222 16.9595 27.2187 16.6612C29.1077 15.7167 29.7042 13.9644 30.1641 12.1251C30.2759 11.6653 30.2635 11.1558 30.425 10.7208C30.512 10.3977 30.8352 10.174 30.9843 10ZM31.1707 14.6604C30.5742 15.5303 29.9404 16.4624 29.3563 17.3075C29.9776 18.2147 30.599 19.1343 31.1707 19.967C31.7672 19.097 32.3886 18.1898 32.9976 17.3075C32.4135 16.4624 31.7797 15.5427 31.1707 14.6604Z" fill="white"/>
<path d="M18.6312 31.3756C18.3827 31.6862 18.2584 31.9969 18.0347 32.0964C16.0587 32.9787 15.4622 34.7434 15.0397 36.6325C14.9899 36.881 14.9651 37.1296 14.9278 37.3781C14.8657 37.8379 14.5923 38.1113 14.1449 38.1113C13.6602 38.1238 13.3992 37.8131 13.3122 37.3408C13.1631 36.6324 13.0637 35.8992 12.84 35.2157C12.3801 33.8611 11.6718 32.7053 10.255 32.1088C9.63363 31.8478 9.58392 30.9779 10.1804 30.7045C12.3926 29.6854 12.9518 27.7094 13.2998 25.5718C13.3744 25.0872 13.5483 24.7019 14.0703 24.6646C14.5798 24.6149 14.8408 24.9256 14.9651 25.4227C15.2012 26.4045 15.4249 27.4111 15.7853 28.3432C16.183 29.3747 16.9162 30.1701 17.9726 30.6299C18.1963 30.7666 18.3703 31.0897 18.6312 31.3756ZM15.8723 31.388C15.2882 30.5802 14.6793 29.7475 14.12 28.977C13.5359 29.7724 12.9394 30.605 12.3677 31.388C12.9518 32.1958 13.5608 33.0284 14.12 33.7989C14.6668 33.0409 15.2758 32.2082 15.8723 31.388Z" fill="white"/>
</svg>
