<svg viewBox="0 0 65 65" fill="none" xmlns="http://www.w3.org/2000/svg">
<path d="M34.1523 9H49.8496C49.8968 9.03421 49.9472 9.06372 50.0002 9.08813C51.2241 9.49938 51.8642 10.3757 51.8691 11.6584C51.8691 12.6988 51.8691 13.7392 51.8691 14.7795C51.8691 15.345 51.6182 15.5935 51.0601 15.602C50.6048 15.6094 50.1495 15.602 49.6672 15.602C51.1433 27.4059 52.6121 39.1571 54.0857 50.9438C54.4652 50.9438 54.8201 50.9438 55.164 50.9438C55.754 50.9524 55.9976 51.1886 56 51.7847C56 52.8703 56 53.9572 56 55.0429C56 55.7772 55.7834 55.9914 55.0392 55.9914C40.0139 55.9971 24.9898 56 9.96693 56C9.54711 56 9.22276 55.8984 9 55.5337V51.4065C9.43573 50.6489 10.224 51.0883 10.8359 50.8961V32.9039C10.8359 31.5576 10.8359 30.2112 10.8359 28.8648C10.8359 28.2455 11.0807 28.0081 11.6927 28.0081C12.7784 28.0081 13.864 28.0081 14.9497 28.0081C15.0965 28.0081 15.2446 27.9958 15.3793 27.9885C15.3951 27.9491 15.4066 27.908 15.4135 27.8661C15.4135 26.7188 15.4135 25.572 15.4135 24.4255C15.4135 23.6177 15.6082 23.4207 16.4062 23.4195H19.0866C19.0866 22.0841 19.0768 20.8026 19.0866 19.5211C19.1026 17.7538 20.3596 16.2581 22.1184 16.1198C23.6226 15.9974 25.144 16.0745 26.658 16.0879C27.0436 16.0879 27.27 16.356 27.2908 16.7452C27.3141 17.1124 27.046 17.4049 26.6495 17.4465C26.5273 17.4553 26.4047 17.4574 26.2823 17.4527C25.029 17.4527 23.7744 17.4441 22.5211 17.4527C21.4807 17.4637 20.5554 18.2005 20.4979 19.2127C20.4195 20.5958 20.4783 21.9862 20.4783 23.4158C21.4342 23.4158 22.3632 23.4158 23.2934 23.4158C23.8833 23.4158 24.1281 23.6606 24.1318 24.2542C24.1318 25.3558 24.1318 26.4573 24.1318 27.5589V27.9885H32.7729C33.2886 23.8719 33.8023 19.7663 34.3139 15.6718C34.2637 15.6473 34.2368 15.6241 34.2099 15.6241C33.7962 15.6241 33.3837 15.6241 32.9712 15.613C32.3739 15.6045 32.123 15.3683 32.1206 14.7869C32.1206 13.6853 32.1083 12.5838 32.1206 11.4822C32.1273 10.9709 32.2906 10.474 32.5884 10.0584C32.8863 9.64283 33.3044 9.32853 33.7864 9.15789C33.91 9.11016 34.0312 9.05018 34.1523 9ZM42.7201 34.0801V43.5866H51.7773C50.6105 34.256 49.4457 24.9388 48.2829 15.6351H35.7215C34.5538 24.9592 33.3898 34.2711 32.2295 43.5707H41.2868V34.1083C40.9551 34.1083 40.6516 34.1083 40.348 34.1083C38.4864 34.085 37.0935 33.2858 36.2355 31.6114C35.7692 30.7032 35.7631 29.7228 35.823 28.7424C35.8463 28.3581 36.1266 28.1501 36.5158 28.1476C37.2343 28.1476 37.9552 28.1243 38.6712 28.166C39.9135 28.2382 40.9172 28.8036 41.7115 29.751C41.8082 29.8648 41.9 29.9835 42.0089 30.1182C42.7115 29.1194 43.6184 28.4046 44.8069 28.2431C45.7236 28.1146 46.6661 28.1537 47.5975 28.1635C47.9892 28.1635 48.185 28.4634 48.1948 28.8489C48.2046 29.2345 48.2107 29.6445 48.1863 30.0411C48.1156 31.0809 47.6726 32.0605 46.9385 32.8003C46.2043 33.5401 45.2281 33.9906 44.1888 34.0691C43.7053 34.1046 43.2194 34.0765 42.7237 34.0765L42.7201 34.0801ZM31.3519 39.4766H30.7644C25.9306 39.4766 21.0964 39.4766 16.2617 39.4766C14.6547 39.4766 13.596 38.408 13.5911 36.7973C13.5911 35.7104 13.5911 34.6248 13.5911 33.5379C13.5911 31.7766 14.618 30.7583 16.3903 30.7571H32.4376C32.4951 30.2944 32.5502 29.8624 32.6089 29.4034H12.2423V50.9132H15.4025V43.1411C15.1577 43.1411 14.9276 43.157 14.7036 43.1411C14.6152 43.1379 14.5283 43.1174 14.4478 43.0806C14.3674 43.0438 14.2949 42.9915 14.2347 42.9267C14.1744 42.8619 14.1275 42.7859 14.0967 42.703C14.0659 42.62 14.0517 42.5319 14.0549 42.4434C14.0794 42.0554 14.2997 41.8315 14.6877 41.7776C14.8249 41.766 14.9627 41.7635 15.1002 41.7703H27.0791C27.2468 41.7703 27.4157 41.7629 27.5834 41.7703C27.9848 41.7984 28.2602 42.0677 28.2737 42.43C28.2884 42.8119 28.0044 43.1117 27.587 43.1386C27.3655 43.1546 27.144 43.1386 26.9236 43.1386V50.9169H29.9223C30.3985 47.1092 30.8709 43.3198 31.3519 39.4766ZM51.9536 45.0137H32.0496C31.8048 46.9953 31.56 48.9488 31.3152 50.9291H52.6965C52.4444 48.9463 52.207 46.9929 51.9536 45.0101V45.0137ZM54.6035 52.3575H10.4002V54.5949H54.6035V52.3575ZM33.5147 14.1982H50.4934C50.4934 13.3903 50.4934 12.607 50.4934 11.8347C50.4934 10.7747 50.0895 10.3733 49.0247 10.3733H34.9859C34.8635 10.3733 34.7411 10.3733 34.6187 10.3733C34.0067 10.4161 33.5379 10.8494 33.5171 11.4577C33.4951 12.361 33.5147 13.2618 33.5147 14.1982ZM26.4218 32.1622H21.4293V38.0715H26.4218V32.1622ZM20.0071 32.1818C19.9683 32.162 19.9271 32.1472 19.8847 32.1377C18.6607 32.1377 17.4367 32.1255 16.2128 32.1377C15.4246 32.1377 14.9705 32.6053 14.9656 33.4021C14.9582 34.533 14.9656 35.6639 14.9656 36.7949C14.9656 37.6455 15.4184 38.0972 16.2654 38.1008C17.3964 38.1008 18.5273 38.1008 19.6595 38.1008C19.775 38.0954 19.8902 38.0839 20.0046 38.0666L20.0071 32.1818ZM20.4428 50.9267V43.1815H16.8272V50.9267H20.4428ZM25.4916 50.9267V43.1827H21.876V50.9267H25.4916ZM32.2638 32.1634H27.8416V38.0641H31.5294C31.7754 36.085 32.019 34.134 32.2638 32.1634ZM22.7487 24.8197H16.8346V27.9714H22.7438L22.7487 24.8197ZM37.2196 29.5564C37.0127 31.631 39.0922 33.205 41.2856 32.6677C41.4533 30.6065 39.7336 29.281 37.2196 29.5539V29.5564ZM46.7934 29.5662C44.3455 29.2247 42.4141 30.7204 42.7396 32.6897C45.108 33.0532 46.9439 31.6555 46.7934 29.5625V29.5662Z" fill="white"/>
</svg>
