<svg viewBox="0 0 239 51" fill="none" xmlns="http://www.w3.org/2000/svg">
<path d="M56.328 32.2254V35.603H41.0908V15.7398H56.0488V19.1398H45.3479V23.9043H54.56V27.0359H45.3479V32.2254H56.328Z" fill="white"/>
<path d="M58.7473 25.5149C58.7473 24.2846 58.9799 23.0767 59.4685 21.9135C59.957 20.7504 60.6549 19.6991 61.6086 18.7372C62.5392 17.7754 63.679 17.0372 65.0283 16.4556C66.3775 15.8964 67.8896 15.6056 69.5645 15.6056C71.5884 15.6056 73.3331 16.0083 74.7987 16.8135C76.2643 17.6188 77.3576 18.6701 78.0555 19.9451L74.7987 21.9806C74.4265 21.2425 73.938 20.6385 73.3564 20.2135C72.7516 19.7885 72.1235 19.4754 71.4256 19.2964C70.7277 19.1175 70.0763 19.0056 69.425 19.0056C68.3549 19.0056 67.4244 19.207 66.6334 19.5872C65.8425 19.9899 65.1911 20.482 64.6561 21.1306C64.121 21.757 63.7256 22.4727 63.4697 23.2556C63.1905 24.0385 63.0742 24.8214 63.0742 25.6267C63.0742 26.4767 63.237 27.3267 63.5395 28.132C63.8419 28.9372 64.2839 29.653 64.8422 30.2793C65.4005 30.9056 66.0984 31.3977 66.8893 31.7556C67.6803 32.1135 68.5642 32.2925 69.4948 32.2925C70.1461 32.2925 70.844 32.1806 71.5419 31.9793C72.2398 31.778 72.8911 31.4425 73.496 30.9951C74.1008 30.5477 74.5893 29.9662 74.9383 29.228L78.4044 31.0846C77.9392 32.0688 77.2413 32.9188 76.2643 33.6122C75.2872 34.3056 74.1939 34.8201 72.9842 35.178C71.7745 35.5359 70.5881 35.7149 69.3784 35.7149C67.8198 35.7149 66.3775 35.4241 65.0981 34.8425C63.8186 34.2609 62.702 33.478 61.7482 32.4938C60.7944 31.5096 60.0733 30.4135 59.5383 29.1833C59.0032 27.9977 58.7473 26.7451 58.7473 25.5149Z" fill="white"/>
<path d="M91.1293 35.7373C89.5242 35.7373 88.0586 35.4465 86.7792 34.8873C85.4764 34.3281 84.3598 33.5675 83.406 32.6057C82.4523 31.6439 81.7311 30.5702 81.2193 29.3623C80.7075 28.1544 80.4517 26.9241 80.4517 25.6491C80.4517 24.3294 80.7308 23.0544 81.2659 21.8689C81.8009 20.661 82.5686 19.5873 83.5224 18.6478C84.4761 17.7083 85.616 16.9702 86.942 16.411C88.268 15.8518 89.687 15.5833 91.2456 15.5833C92.8275 15.5833 94.2698 15.8741 95.5958 16.4557C96.8985 17.0373 98.0151 17.7978 98.9456 18.782C99.8762 19.7439 100.597 20.8399 101.086 22.0254C101.598 23.211 101.853 24.4412 101.853 25.7162C101.853 27.0136 101.598 28.2662 101.063 29.4741C100.528 30.682 99.7831 31.7557 98.8293 32.6952C97.8755 33.6347 96.7357 34.3728 95.4329 34.9097C94.0837 35.4689 92.6647 35.7373 91.1293 35.7373ZM84.7553 25.6715C84.7553 26.5215 84.8949 27.3491 85.1973 28.1544C85.4764 28.9597 85.8952 29.6754 86.4535 30.3018C86.9885 30.9281 87.6631 31.4202 88.4541 31.7781C89.245 32.136 90.1523 32.3149 91.1526 32.3149C92.1994 32.3149 93.1299 32.1136 93.8976 31.7333C94.6885 31.3531 95.3399 30.8386 95.8982 30.2123C96.4332 29.586 96.852 28.8702 97.1311 28.0649C97.4103 27.2596 97.5266 26.4544 97.5266 25.6491C97.5266 24.7991 97.387 23.9715 97.0846 23.1662C96.8055 22.3833 96.3635 21.6675 95.8284 21.0412C95.2701 20.4149 94.5955 19.9228 93.8278 19.5649C93.0369 19.207 92.1529 19.0281 91.1293 19.0281C90.129 19.0281 89.2218 19.2294 88.4308 19.6096C87.6399 19.9899 86.9653 20.5044 86.4302 21.1307C85.8952 21.757 85.4764 22.4728 85.1973 23.2557C84.8949 24.0386 84.7553 24.8439 84.7553 25.6715Z" fill="white"/>
<path d="M105.599 35.6031V15.7399H107.762V27.282L119.836 15.7175H122.232L113.252 24.4636L122.697 35.6031H120.254L111.857 25.6267L107.762 29.4965V35.6031H105.599Z" fill="white"/>
<path d="M143.541 15.7398V35.603H141.4V26.3201H128.373V35.603H126.21V15.7398H128.373V24.5754H141.4V15.7398H143.541Z" fill="white"/>
<path d="M164.547 33.8583V35.603H149.798V15.7398H164.268V17.4846H151.962V24.6425H162.709V26.2977H151.962V33.8583H164.547Z" fill="white"/>
<path d="M188.833 35.603V19.4306L180.877 32.0017H179.528L171.549 19.4306V35.603H169.385V15.7398H171.595L180.179 29.3398L188.81 15.7398H190.997V35.603H188.833Z" fill="white"/>
<path d="M199.441 15.7398H197.278V35.603H199.441V15.7398Z" fill="white"/>
<path d="M212.492 15.7398H214.306L223.425 35.603H221.145L218.4 29.3846H208.374L205.629 35.603H203.303L212.492 15.7398ZM217.726 27.8635L213.376 18.0438L209.049 27.8635H217.726Z" fill="white"/>
<mask id="mask0_390_2810" style="mask-type:luminance" maskUnits="userSpaceOnUse" x="5" y="4" width="21" height="43">
<path d="M8.2899 43.4618L8.42948 42.7908C8.476 42.6118 8.52253 42.4105 8.59232 42.2316L22.108 40.1066C22.5035 40.9118 22.8292 41.7171 23.0618 42.5671C23.1549 42.9697 23.2247 43.3724 23.2712 43.7526H8.24337C8.24337 43.6632 8.26664 43.5737 8.2899 43.4618ZM9.35999 40.2184C9.42978 40.0618 9.52283 39.9053 9.61588 39.7487L19.1071 36.0132C19.1304 36.0355 19.1304 36.0579 19.1537 36.0579C19.5026 36.4605 19.8515 36.8632 20.1772 37.2658C20.7123 37.9145 21.2008 38.5632 21.6195 39.2566L8.89473 41.2697C9.03431 40.9118 9.17389 40.554 9.35999 40.2184ZM19.2234 4.27237H19.2002C19.1769 4.27237 19.1304 4.29474 19.1071 4.29474C19.0839 4.29474 19.0839 4.29474 19.0606 4.31711C16.9437 5.21184 14.9431 6.33026 13.0821 7.69474C12.1515 8.36579 11.2443 9.10395 10.4068 9.88684C9.98809 10.2895 9.56936 10.6921 9.19715 11.1395C8.82495 11.5868 8.42948 12.0342 8.08053 12.5039C7.73159 12.9737 7.40591 13.4658 7.10349 13.9803C6.80108 14.4947 6.54518 15.0316 6.33582 15.5908C6.10319 16.15 5.94035 16.7539 5.82404 17.3579C5.70772 17.9618 5.63793 18.6105 5.6612 19.2145C5.6612 19.5053 5.68446 19.8184 5.70772 20.1092C5.75425 20.4 5.80077 20.7132 5.82404 21.004L5.8473 21.2276L5.89382 21.4513L6.01014 21.8987C6.05666 22.0553 6.07993 22.1895 6.12645 22.3461L6.26603 22.7711C6.6615 23.9118 7.24307 24.9855 7.94096 25.9474C9.35999 27.8487 11.128 29.3697 12.8727 30.7566C13.7567 31.4724 14.6407 32.1434 15.5247 32.8145C16.3854 33.4855 17.2461 34.1789 18.0138 34.9395C18.1534 35.0737 18.2929 35.2079 18.4092 35.3421L10.4068 38.4961C11.1047 37.5118 11.9189 36.5947 12.7796 35.6776C12.9425 35.4987 13.1286 35.3197 13.2914 35.1408C13.4775 34.9618 13.6404 34.7829 13.8265 34.6263C14.1754 34.2908 14.5476 33.9776 14.9198 33.6645L13.5473 32.4342C12.8262 33.0382 12.0817 33.6197 11.3606 34.2461C9.75546 35.6105 8.31316 37.2658 7.26633 39.2118C6.73129 40.1737 6.35908 41.225 6.07993 42.2763L5.89382 43.0816C5.8473 43.35 5.82404 43.6184 5.77751 43.8868L5.73098 44.2895L5.70772 44.6921L5.68446 45.4974C5.6612 46.1461 6.17298 46.6829 6.8476 46.7053C7.52223 46.7276 8.08053 46.2355 8.1038 45.5868V45.4974L8.12706 44.804V44.6474H23.341C23.3642 44.9382 23.3875 45.2066 23.3875 45.4974V45.5421C23.4108 46.1684 23.9458 46.6829 24.5972 46.6605C25.2485 46.6382 25.7836 46.1237 25.7603 45.4974C25.7371 44.3342 25.5975 43.1487 25.2951 42.0079C24.9694 40.8671 24.5041 39.7711 23.8993 38.7421L23.434 37.9816L22.9222 37.2658C22.7594 37.0197 22.55 36.8184 22.3872 36.5724C22.2941 36.4605 22.2011 36.3487 22.108 36.2368L21.8056 35.9237C21.0147 35.0737 20.154 34.3132 19.27 33.5974L16.6645 31.4276C15.8038 30.7118 14.9431 30.0184 14.1289 29.3026C12.5005 27.8487 10.9884 26.3276 9.87178 24.6276C8.77842 22.9276 8.15032 21.0711 8.12706 19.125C8.05727 17.2684 8.84821 15.4118 9.98809 13.7342C11.1512 12.0566 12.6633 10.5355 14.315 9.17105C15.5247 8.18684 16.8041 7.26974 18.1534 6.44211C18.1301 7.04605 18.2464 7.60526 18.4092 8.14211C18.7582 9.23816 19.3165 10.1776 19.8748 11.05C20.4331 11.9224 20.9914 12.7724 21.4799 13.6C21.9917 14.4276 22.4105 15.2776 22.7361 16.1276C23.0618 16.9776 23.2712 17.8276 23.2712 18.6776C23.2712 18.7895 23.2712 18.8789 23.2712 18.9908L23.3177 19.3711C23.2945 19.5947 23.2945 19.8184 23.2945 20.0645C23.2247 20.5118 23.2014 20.9592 23.0851 21.4066C23.0153 21.8539 22.8525 22.2789 22.7129 22.7039C22.6198 22.9053 22.5268 23.1066 22.457 23.3303C22.4105 23.4421 22.3639 23.5316 22.3174 23.6434L22.1546 23.9566C21.7126 24.7618 21.2008 25.5224 20.5727 26.2605C19.4096 27.625 17.9905 28.8553 16.525 30.0632L18.0138 31.3158C19.4561 30.1974 20.9449 29.0566 22.2709 27.6697C23.0386 26.8868 23.7132 26.0145 24.2715 25.0526L24.4809 24.6947C24.5506 24.5829 24.6204 24.4487 24.667 24.3145L25.0159 23.5539C25.202 23.0171 25.4114 22.5026 25.5044 21.9434C25.644 21.4066 25.6905 20.8474 25.7836 20.3105C25.8068 20.0421 25.8068 19.7737 25.8301 19.4829L25.8534 19.0803C25.8534 18.9461 25.8534 18.7895 25.8301 18.6553C25.7603 17.4474 25.4812 16.3289 25.0624 15.3C24.6437 14.2711 24.0854 13.3316 23.5038 12.4592C22.9222 11.5868 22.2941 10.7592 21.7126 9.95395C20.5494 8.36579 19.4561 6.73289 20.0842 5.25658C20.2238 4.92105 20.0842 4.51842 19.7585 4.33947C19.6422 4.27237 19.5259 4.25 19.3863 4.25C19.3398 4.25 19.27 4.25 19.2234 4.27237Z" fill="white"/>
</mask>
<g mask="url(#mask0_390_2810)">
<path d="M25.8304 4.25H5.63818V46.75H25.8304V4.25Z" fill="url(#paint0_linear_390_2810)"/>
</g>
<mask id="mask1_390_2810" style="mask-type:luminance" maskUnits="userSpaceOnUse" x="10" y="9" width="12" height="20">
<path d="M15.4085 13.5776C15.3853 13.5552 15.362 13.5328 15.362 13.5328C15.1526 13.3315 14.9665 13.1078 14.7572 12.9065C14.5711 12.7052 14.3617 12.4815 14.1756 12.2578C13.9662 12.0341 13.7801 11.8104 13.594 11.5868C13.7801 12.146 14.036 12.6828 14.3617 13.1749C14.5245 13.421 14.6874 13.667 14.8735 13.9131C14.9898 14.0697 15.1061 14.2039 15.2457 14.3381C15.0363 15.2552 14.8735 16.1723 14.7572 17.1118C14.6874 17.0447 14.5943 16.9999 14.5245 16.9328C14.1756 16.6644 13.8499 16.3736 13.5242 16.0828C13.1986 15.792 12.8729 15.5012 12.5705 15.1881C12.2448 14.8749 11.9656 14.5618 11.6632 14.2262C11.8028 14.6512 11.9889 15.0539 12.2215 15.4565C12.4541 15.8368 12.71 16.217 13.0125 16.5526C13.3149 16.8881 13.6173 17.2236 13.943 17.5368C14.1756 17.7381 14.4082 17.9394 14.6409 18.1407C14.6176 18.2749 14.6176 18.4091 14.5943 18.5433C14.5245 19.3262 14.5013 20.1091 14.5013 20.8697C13.8964 20.5341 13.2916 20.1539 12.6868 19.7736C12.268 19.4828 11.8493 19.2144 11.4306 18.9236C11.0118 18.6328 10.5931 18.342 10.1511 18.0512C10.4303 18.4762 10.7792 18.8565 11.1282 19.2368C11.4771 19.617 11.8493 19.9749 12.2448 20.3104C12.6403 20.646 13.059 20.9591 13.501 21.2723C13.8267 21.496 14.1756 21.6973 14.5478 21.8762C14.5478 21.9657 14.5478 22.0552 14.5478 22.1447L14.5711 22.7486L14.6176 23.3526C14.6641 23.8223 14.7106 24.2697 14.7804 24.717C14.3152 24.5157 13.8267 24.292 13.3614 24.046C12.6868 23.7104 12.0354 23.3302 11.3608 22.9723C11.5934 23.2631 11.8726 23.5539 12.1517 23.7999C12.4309 24.0683 12.7333 24.3144 13.0357 24.5381C13.3381 24.7618 13.6638 24.9854 14.0128 25.1868C14.3152 25.3433 14.6176 25.4999 14.9433 25.6118C15.1061 26.4394 15.3155 27.267 15.5714 28.0947C15.5714 27.692 15.5714 27.2894 15.5481 26.8868C15.5481 26.6854 15.5248 26.4841 15.5248 26.2828C15.5248 26.0815 15.5248 25.8802 15.5248 25.6789V25.567C15.8273 25.3657 16.1529 25.142 16.4786 24.9407C16.8276 24.7394 17.1765 24.5157 17.5255 24.3368C17.8744 24.1354 18.2466 23.9341 18.6188 23.7552C18.991 23.5539 19.3632 23.3973 19.7354 23.196C19.2934 23.2183 18.8747 23.2854 18.456 23.3973C18.0372 23.4868 17.6185 23.621 17.223 23.7776C16.8276 23.9341 16.4321 24.1131 16.0599 24.3144C15.8738 24.4262 15.6644 24.5381 15.4783 24.6499V24.5157L15.5016 23.3302V22.7486L15.5248 22.167V21.9657C15.9436 21.7644 16.339 21.5854 16.7578 21.4065L18.2931 20.7131C18.8049 20.4894 19.3167 20.2433 19.8285 20.042C20.3403 19.796 20.8753 19.5947 21.3871 19.3486C20.8055 19.4157 20.2472 19.5052 19.6889 19.6394C19.1306 19.7736 18.5723 19.9078 18.0372 20.0868C17.5022 20.2657 16.9439 20.4447 16.4088 20.646C16.1297 20.7578 15.8505 20.8697 15.5714 21.0039C15.6179 20.221 15.6412 19.4604 15.7342 18.6776C15.7342 18.5657 15.7575 18.4539 15.7575 18.342C16.0599 18.1854 16.3856 18.0065 16.688 17.8499C17.1067 17.6486 17.5255 17.4473 17.9442 17.246L18.5723 16.9552C18.7816 16.8433 18.991 16.7539 19.2004 16.6644C19.6191 16.4631 20.0611 16.2841 20.4798 16.0604C19.9913 16.0828 19.5261 16.1499 19.0375 16.2394C18.5723 16.3289 18.107 16.4407 17.6418 16.5973C17.1765 16.7315 16.7345 16.9104 16.2925 17.0894C16.1297 17.1565 15.9901 17.2236 15.8505 17.2907C15.9436 16.3736 16.0366 15.4565 16.1529 14.5394C16.339 14.4499 16.5251 14.3381 16.7113 14.2486L17.572 13.7789C17.8511 13.6223 18.1303 13.4657 18.4327 13.3091C18.7119 13.1526 19.0143 12.996 19.2934 12.7947C18.6188 12.8618 17.9674 13.0407 17.3394 13.2644C17.0369 13.3762 16.7113 13.5104 16.4088 13.6447C16.3623 13.667 16.3158 13.6894 16.2693 13.7118C16.4554 12.2354 16.688 10.7368 16.9206 9.23808C16.246 10.6026 15.7807 12.0789 15.4085 13.5776Z" fill="white"/>
</mask>
<g mask="url(#mask1_390_2810)">
<path d="M21.4336 9.21571H10.1511V28.1394H21.4336V9.21571Z" fill="url(#paint1_linear_390_2810)"/>
</g>
<defs>
<linearGradient id="paint0_linear_390_2810" x1="15.731" y1="41.9572" x2="15.731" y2="17.7421" gradientUnits="userSpaceOnUse">
<stop stop-color="#2DABE3"/>
<stop offset="1" stop-color="#48AE4D"/>
</linearGradient>
<linearGradient id="paint1_linear_390_2810" x1="15.7826" y1="41.9572" x2="15.7826" y2="17.742" gradientUnits="userSpaceOnUse">
<stop stop-color="#29ABE2"/>
<stop offset="1" stop-color="#39B54A"/>
</linearGradient>
</defs>
</svg>
