<svg width="57" height="54" viewBox="0 0 57 54" fill="none" xmlns="http://www.w3.org/2000/svg">
<path d="M8.27167 33.9576C9.33217 33.0632 10.3288 32.1305 11.4276 31.3C13.9958 29.3706 16.8196 28.144 20.1033 28.2207C22.1349 28.2718 24.0131 28.8595 25.8147 29.7412C26.1724 29.92 26.6196 30.0223 27.0157 30.035C29.8011 30.0606 32.5866 30.0478 35.372 30.0478C38.234 30.0478 40.074 31.3127 41.0833 33.9704C41.1089 34.0215 41.1345 34.0726 41.1856 34.1493C41.4028 34.0598 41.6072 33.9704 41.8116 33.8682C44.1115 32.731 46.4114 31.5938 48.7113 30.4439C50.1296 29.7284 51.5989 29.4984 53.1577 29.8306C54.9082 30.2011 56.1093 31.5044 56.3648 33.2804C56.6076 34.9159 55.8282 36.4619 54.3077 37.3052C52.225 38.4552 50.1168 39.5412 48.0724 40.7423C44.4693 42.8505 40.4189 43.6938 36.4964 44.8821C33.992 45.6359 31.4494 45.9809 28.8429 45.9553C26.2363 45.917 23.617 45.9426 21.0105 45.9426C20.7805 45.9426 20.5505 45.9426 20.2694 45.9426C20.3333 46.1215 20.3716 46.2364 20.4099 46.3642C20.7422 47.3097 20.6144 48.1658 19.8989 48.8813C18.4678 50.3251 17.0368 51.7689 15.593 53.1872C14.6219 54.1327 13.2931 54.1455 12.322 53.1872C8.43777 49.3285 4.57908 45.457 0.720382 41.5856C-0.250681 40.6017 -0.237904 39.2729 0.745935 38.2763C2.06198 36.9475 3.3908 35.6186 4.71962 34.2898C5.94623 33.076 6.89174 32.9993 8.27167 33.9576ZM9.57494 35.3759C9.75382 35.5292 9.89436 35.6186 10.0221 35.7464C12.7948 38.5191 15.5802 41.2917 18.3401 44.0771C18.6723 44.4093 18.9406 44.486 19.3878 44.3326C19.8478 44.1665 20.3716 44.1154 20.8699 44.1154C23.2465 44.0899 25.623 44.0643 27.9996 44.1154C30.9 44.1793 33.7365 43.8599 36.5091 42.9655C39.0262 42.1605 41.6583 41.6367 44.0604 40.5762C47.3314 39.1196 50.4362 37.2797 53.5922 35.5803C54.3716 35.1587 54.6143 34.392 54.5121 33.536C54.3971 32.6288 53.886 31.9899 53.0172 31.7216C51.9184 31.3894 50.8323 31.4916 49.7974 31.9899C47.0375 33.3443 44.2904 34.7115 41.5433 36.0786C41.3772 36.1553 41.1983 36.2831 41.1217 36.4364C40.5723 37.548 39.6651 37.9441 38.4768 37.9441C34.9759 37.9313 31.4749 37.9441 27.974 37.9313C27.744 37.9313 27.5013 37.9185 27.284 37.8546C26.8113 37.7141 26.6069 37.3563 26.6707 36.8708C26.7219 36.4108 27.0029 36.1425 27.4629 36.0914C27.6546 36.0658 27.8462 36.0786 28.0379 36.0786C31.5005 36.0786 34.9631 36.0786 38.4257 36.0786C39.3712 36.0786 39.5884 35.7975 39.384 34.8648C38.9879 33.076 37.5569 31.9133 35.6786 31.9005C32.6632 31.8877 29.6478 31.9133 26.6324 31.8749C26.1597 31.8749 25.6358 31.7344 25.2141 31.5172C22.8759 30.3034 20.4611 29.7156 17.829 30.265C14.5069 30.9678 11.9898 32.9738 9.57494 35.3759ZM13.9447 52.0884C14.1236 51.9606 14.3025 51.8712 14.4302 51.7434C15.7591 50.4273 17.0751 49.0857 18.4167 47.7697C18.7872 47.3992 18.7872 47.1308 18.4167 46.7603C14.6475 43.0038 10.891 39.2473 7.14728 35.4909C6.8023 35.1459 6.53398 35.1076 6.17622 35.4781C4.8474 36.8325 3.5058 38.1613 2.1642 39.5029C1.83199 39.8351 1.81921 40.0906 2.1642 40.4228C5.95901 44.2049 9.74104 47.9869 13.5231 51.7689C13.6253 51.8712 13.7786 51.9606 13.9447 52.0884Z" fill="white"/>
<path d="M18.3913 14.843C19.0685 15.0219 19.5796 14.9964 20.1418 14.3831C21.3812 13.0287 23.0166 12.4154 24.8565 12.3387C25.2654 12.326 25.6615 12.3387 26.1726 12.3387C26.0193 12.1726 25.9298 12.0704 25.8276 11.9682C23.5149 9.68109 22.825 5.41352 24.3582 2.8581C25.7382 0.583766 28.4214 -0.489514 30.9768 0.213229C33.5067 0.915971 35.2699 3.1903 35.2827 5.82239C35.2955 8.30116 34.5544 10.4988 32.6634 12.2748C33.43 12.326 34.1583 12.3387 34.8738 12.4409C36.3304 12.6454 37.6464 13.2459 38.6303 14.3447C39.1797 14.958 39.7163 15.073 40.483 14.843C39.4225 13.6676 38.9114 12.3004 38.8475 10.7416C38.7325 8.22449 40.598 6.18015 43.0895 6.11627C45.5299 6.05238 47.5104 8.07117 47.4848 10.5883C47.4593 12.1087 47.1143 13.0287 45.8749 14.843C46.4116 14.9325 46.9354 14.9708 47.4465 15.0986C49.657 15.6608 51.0624 17.4751 51.0752 19.7367C51.088 21.3466 51.0752 22.9438 51.0752 24.5537C51.0752 25.2692 50.7558 25.6653 50.1808 25.6781C49.5931 25.6908 49.2225 25.282 49.2225 24.5537C49.2098 23.0076 49.1714 21.4616 49.2353 19.9156C49.312 18.1779 48.0343 16.8618 46.3988 16.7979C44.38 16.7085 42.3484 16.7724 40.3041 16.7724C40.7896 19.2895 40.483 21.7938 40.5596 24.2981C40.5724 24.5281 40.5596 24.7709 40.5085 24.9881C40.3935 25.4353 40.0869 25.6781 39.6269 25.6653C39.1669 25.6525 38.8603 25.4097 38.7581 24.9625C38.7069 24.7581 38.7197 24.5409 38.7197 24.3237C38.7197 22.5604 38.6814 20.81 38.7197 19.0467C38.7964 16.0697 36.3304 14.217 33.9411 14.1786C30.9129 14.1403 27.8719 14.1275 24.831 14.1786C22.1222 14.217 20.1034 16.338 20.1034 19.0212C20.1034 20.8739 20.1034 22.7265 20.1034 24.592C20.1034 25.2947 19.6946 25.7164 19.1068 25.6525C18.583 25.6014 18.2763 25.2692 18.2763 24.7709C18.2635 22.5349 18.2891 20.2861 18.3274 18.0501C18.3402 17.6285 18.468 17.2196 18.5574 16.7341C17.6758 16.7341 16.8197 16.7341 15.9509 16.7341C14.9031 16.7341 13.8682 16.7341 12.8205 16.7341C11.2233 16.7213 9.48564 17.7946 9.57508 20.0178C9.63897 21.5383 9.60064 23.0715 9.58786 24.6048C9.58786 25.2692 9.24288 25.6525 8.69346 25.6653C8.14404 25.6781 7.74795 25.2947 7.74795 24.6559C7.73517 22.931 7.69684 21.2188 7.76073 19.4939C7.86294 16.9513 9.75396 15.1369 12.4244 14.9069C12.6033 14.8942 12.7694 14.8814 13.0249 14.8686C12.8971 14.7025 12.7949 14.5747 12.7055 14.447C11.5428 12.9137 11.0828 11.1888 11.53 9.32333C12.0283 7.18954 14.0854 5.8735 16.2703 6.1546C18.4041 6.42292 20.0012 8.25005 20.014 10.4222C19.9884 11.9682 19.6946 12.8115 18.3913 14.843ZM25.3932 6.38458C25.4443 7.5473 25.7765 8.92723 26.6581 10.1027C28.0764 12.0193 30.5679 12.0576 32.0501 10.1922C33.0211 8.96557 33.4172 7.52175 33.43 5.97572C33.4555 3.6375 31.654 1.83592 29.3541 1.86148C27.0542 1.88703 25.3165 3.73972 25.3932 6.38458ZM18.123 10.716C18.1485 9.17 17.2158 8.12228 15.8742 7.98173C14.6859 7.85396 13.4721 8.69725 13.2677 9.87274C13.0505 11.0993 13.3188 12.2621 14.111 13.2459C15.0054 14.3575 16.4747 14.2936 17.318 13.1309C17.8802 12.3515 18.0847 11.4699 18.123 10.716ZM45.6194 10.7416C45.6322 9.17 44.7122 8.12228 43.3706 7.98173C42.1696 7.85396 40.9302 8.73558 40.7513 9.92385C40.5724 11.1121 40.8407 12.2365 41.569 13.1948C42.4251 14.332 43.9072 14.3064 44.7761 13.1692C45.3638 12.4026 45.581 11.4954 45.6194 10.7416Z" fill="white"/>
<path d="M34.0049 22.2538C34.0049 21.4616 33.9922 20.6694 34.0049 19.8772C34.0177 19.2512 34.3883 18.8423 34.9249 18.8423C35.4615 18.8423 35.8449 19.2512 35.8576 19.8772C35.8704 21.4744 35.8704 23.0843 35.8576 24.6814C35.8576 25.3075 35.4615 25.7036 34.8993 25.6781C34.3627 25.6653 34.0177 25.282 34.0049 24.6814C33.9922 23.8637 34.0049 23.0587 34.0049 22.2538Z" fill="white"/>
<path d="M22.9654 22.2411C22.9654 21.4489 22.9526 20.6567 22.9654 19.8645C22.9782 19.2257 23.3359 18.8296 23.8853 18.8296C24.4092 18.8296 24.8181 19.2385 24.8181 19.8645C24.8309 21.4617 24.8309 23.0716 24.8181 24.6687C24.8053 25.3076 24.4092 25.6909 23.8598 25.6654C23.3232 25.6526 22.9782 25.282 22.9782 24.6687C22.9526 23.8638 22.9654 23.0588 22.9654 22.2411Z" fill="white"/>
<path d="M13.8552 45.8532C14.5835 45.8405 15.1841 46.4282 15.2096 47.1437C15.2224 47.8848 14.5963 48.5109 13.868 48.5109C13.1525 48.4981 12.552 47.8976 12.552 47.1821C12.5392 46.4665 13.1269 45.866 13.8552 45.8532Z" fill="white"/>
</svg>
