<svg width="17" height="21" viewBox="0 0 17 21" fill="none" xmlns="http://www.w3.org/2000/svg">
<path fill-rule="evenodd" clip-rule="evenodd" d="M2.66461 5.63965C2.92245 5.63965 3.16974 5.74208 3.35207 5.92441C3.5344 6.10673 3.63683 6.35402 3.63683 6.61187V17.3063C3.63683 17.5642 3.73926 17.8115 3.92159 17.9938C4.10391 18.1761 4.3512 18.2785 4.60905 18.2785H12.3868C12.6447 18.2785 12.892 18.1761 13.0743 17.9938C13.2566 17.8115 13.3591 17.5642 13.3591 17.3063V6.61187C13.3591 6.35402 13.4615 6.10673 13.6438 5.92441C13.8261 5.74208 14.0734 5.63965 14.3313 5.63965C14.5891 5.63965 14.8364 5.74208 15.0187 5.92441C15.2011 6.10673 15.3035 6.35402 15.3035 6.61187V17.3063C15.3035 18.0799 14.9962 18.8217 14.4492 19.3687C13.9022 19.9157 13.1604 20.223 12.3868 20.223H4.60905C3.8355 20.223 3.09364 19.9157 2.54666 19.3687C1.99967 18.8217 1.69238 18.0799 1.69238 17.3063V6.61187C1.69238 6.35402 1.79481 6.10673 1.97714 5.92441C2.15947 5.74208 2.40676 5.63965 2.66461 5.63965Z" fill="#2DABE3"/>
<path fill-rule="evenodd" clip-rule="evenodd" d="M6.55306 6.6119C6.81091 6.6119 7.0582 6.71433 7.24052 6.89666C7.42285 7.07898 7.52528 7.32627 7.52528 7.58412V15.3619C7.52528 15.6197 7.42285 15.867 7.24052 16.0494C7.0582 16.2317 6.81091 16.3341 6.55306 16.3341C6.29521 16.3341 6.04792 16.2317 5.8656 16.0494C5.68327 15.867 5.58084 15.6197 5.58084 15.3619V7.58412C5.58084 7.32627 5.68327 7.07898 5.8656 6.89666C6.04792 6.71433 6.29521 6.6119 6.55306 6.6119ZM10.4419 6.6119C10.6998 6.6119 10.9471 6.71433 11.1294 6.89666C11.3117 7.07898 11.4142 7.32627 11.4142 7.58412V15.3619C11.4142 15.6197 11.3117 15.867 11.1294 16.0494C10.9471 16.2317 10.6998 16.3341 10.4419 16.3341C10.1841 16.3341 9.93681 16.2317 9.75448 16.0494C9.57216 15.867 9.46973 15.6197 9.46973 15.3619V7.58412C9.46973 7.32627 9.57216 7.07898 9.75448 6.89666C9.93681 6.71433 10.1841 6.6119 10.4419 6.6119ZM0.719727 3.69523C0.719727 3.43738 0.822157 3.19009 1.00448 3.00777C1.18681 2.82544 1.4341 2.72301 1.69195 2.72301H15.3031C15.5609 2.72301 15.8082 2.82544 15.9905 3.00777C16.1729 3.19009 16.2753 3.43738 16.2753 3.69523C16.2753 3.95308 16.1729 4.20037 15.9905 4.3827C15.8082 4.56502 15.5609 4.66745 15.3031 4.66745H1.69195C1.4341 4.66745 1.18681 4.56502 1.00448 4.3827C0.822157 4.20037 0.719727 3.95308 0.719727 3.69523ZM4.60862 1.75079C4.60862 1.49294 4.71105 1.24565 4.89337 1.06332C5.0757 0.880995 5.32299 0.778564 5.58084 0.778564H11.4142C11.672 0.778564 11.9193 0.880995 12.1016 1.06332C12.284 1.24565 12.3864 1.49294 12.3864 1.75079C12.3864 2.00864 12.284 2.25592 12.1016 2.43825C11.9193 2.62058 11.672 2.72301 11.4142 2.72301H5.58084C5.32299 2.72301 5.0757 2.62058 4.89337 2.43825C4.71105 2.25592 4.60862 2.00864 4.60862 1.75079Z" fill="#2DABE3"/>
</svg>
